<?xml version="1.0" encoding="UTF-8"?>
<svg id="_レイヤー_2" data-name="レイヤー 2" xmlns="http://www.w3.org/2000/svg" viewBox="0 0 431.0984606 235.2791703">
  <defs>
    <style>
      .cls-1 {
        stroke-width: 0px;
      }

      .cls-2 {
        fill: #fff;
        stroke-linecap: round;
      }

      .cls-2, .cls-3 {
        stroke-linejoin: round;
      }

      .cls-2, .cls-3, .cls-4 {
        stroke-width: 3px;
      }

      .cls-2, .cls-4 {
        stroke: #040000;
      }

      .cls-3 {
        fill: #eaaa1e;
        stroke: #000;
      }

      .cls-4 {
        fill: none;
        stroke-miterlimit: 10;
      }
    </style>
  </defs>
  <g id="location">
    <polyline class="cls-4" points="413.5379688 12.4479663 298.3357726 12.4479663 23.3244067 12.4479663"/>
    <circle class="cls-2" cx="244.3975059" cy="12.4479663" r="10.9479663"/>
    <circle class="cls-2" cx="302.3848908" cy="12.4479663" r="10.9479663"/>
    <circle class="cls-2" cx="360.3722757" cy="12.4479663" r="10.9479663"/>
    <circle class="cls-2" cx="186.410121" cy="12.4479663" r="10.9479663"/>
    <circle class="cls-2" cx="128.4227361" cy="12.4479663" r="10.9479663"/>
    <g>
      <path class="cls-1" d="m366.1804919,44.2225297l.3359375-.4414062c.1894531-.2089844.3154297-.4404297.4833984-.4404297.2519531,0,1.5957031,1.0283203,1.5957031,1.34375-.1259766.1679688-.4404297.3359375-.8603516.4199219v2.4150391c.0410156,2.3925781.0839844,3.1914062.1679688,4.6816406-.1894531.2304688-.8613281.5458984-1.3027344.5458984-.2304688,0-.3144531-.2099609-.3144531-.4199219.0419922-.2314453.0419922-.3564453.0839844-.7353516v-.5878906h-5.8574219v2.4990234c.0410156,2.4990234.0839844,3.3173828.1679688,4.8710938-.1679688.3154297-.7558594.671875-1.2597656.671875-.2734375,0-.4833984-.2099609-.4833984-.4199219.1044922-1.6376953.1679688-2.4560547.2099609-4.9345703v-2.6875h-5.8574219v.5039062c.0410156.5039062.0410156.671875.0839844.9033203-.0839844.2519531-.6308594.5673828-1.1972656.5673828-.1894531,0-.3359375-.2109375-.3359375-.4199219.0839844-1.0292969.1054688-1.5332031.1464844-3.0869141v-1.7636719c0-1.4277344-.0839844-3.1494141-.2724609-4.3037109l1.7216797.8183594h5.7109375v-.2304688c0-1.4277344-.0839844-3.1503906-.2734375-4.3046875,2.3515625.671875,2.3515625.8818359,1.9951172,1.1337891l-.3564453.2314453v3.1699219h5.6679688Zm-12.890625,6.1523438h5.8574219v-5.5429688h-5.8574219v5.5429688Zm7.2226562,0h5.8574219v-5.5429688h-5.8574219v5.5429688Z"/>
      <path class="cls-1" d="m367.1258044,70.6815141c.2304688-.3779297.4199219-.7558594.5878906-.7558594.2519531,0,1.6171875,1.4902344,1.6171875,1.8056641-.0634766.2314453-.2314453.3359375-.5039062.3359375h-8.0625c.9023438,2.3515625,3.1699219,4.8916016,8.4824219,6.5712891l-.0214844.2519531c-.7138672.0839844-1.1757812.3359375-1.34375,1.1347656-5.1015625-2.0585938-6.8447266-5.3125-7.5585938-7.9580078h-.3984375c-.9238281,3.6953125-3.2548828,6.2353516-9.0917969,7.9580078l-.1679688-.3994141c4.9550781-1.7636719,7.0332031-4.1572266,7.9160156-7.5585938h-4.4511719c-1.0917969.0205078-2.0996094.1259766-3.1503906.2939453l-.5244141-1.0917969c.671875.1054688,1.34375.1464844,2.0576172.1679688h.9453125v-3.2128906c0-1.4277344-.0839844-3.1484375-.2734375-4.3037109l1.8261719.7978516h4.1787109c0-1.1972656-.0205078-2.4775391-.0205078-3.8417969,2.1201172.5449219,2.1201172.7558594,1.7636719,1.0078125l-.3359375.2519531-.0214844,2.5820312h4.03125l.3359375-.4199219c.1894531-.2099609.3144531-.4414062.4824219-.4414062.2519531,0,1.5546875.9873047,1.5546875,1.3027344-.1474609.1679688-.4628906.3359375-.8613281.4199219v5.8574219h.5878906l.4199219-.7558594Zm-12.3876953.7558594h3.9677734c.3994141-1.7636719.4628906-3.7792969.4628906-6.109375h-4.4306641v6.109375Zm10.0576172,0v-6.109375h-4.2421875c-.0205078,2.3085938-.125,4.3457031-.4824219,6.109375h4.7246094Z"/>
      <path class="cls-1" d="m353.7722888,90.1697953c.1894531-.2939453.3144531-.5878906.4824219-.5878906.2519531,0,1.6796875,1.3017578,1.6796875,1.6171875-.125.1464844-.3984375.3144531-.9648438.3769531v5.6484375c1.40625,1.6796875,2.9179688,1.9316406,6.3613281,1.9316406,2.3730469,0,5.5429688,0,7.9365234-.0839844v.2939453c-.5458984.1044922-.9033203.5039062-.9873047,1.1552734h-6.9277344c-3.6542969,0-5.25-.4833984-6.6777344-2.8984375-.8183594.9238281-2.1201172,2.2050781-2.9179688,2.8769531.0419922.2734375-.0625.4199219-.2304688.5253906l-.9453125-1.7636719c.7773438-.3574219,2.015625-1.0292969,3.1494141-1.7011719v-6.1728516h-.9873047c-.6289062.0205078-1.1757812.1259766-1.7636719.2939453l-.5039062-1.0917969c.671875.1054688,1.34375.1464844,2.015625.1679688h.9453125l.3359375-.5878906Zm-2.1835938-7.6640625c4.8291016,1.7431641,3.7792969,5.0820312,2.2675781,3.9902344-.2734375-1.28125-1.4697266-2.8984375-2.4775391-3.8222656l.2099609-.1679688Zm14.1308594,4.7871094c.1884766-.2519531.3144531-.5039062.4824219-.5039062.2519531,0,1.5117188,1.0917969,1.5117188,1.4072266-.1259766.1679688-.4199219.3359375-.8183594.4199219v3.8632812c.0410156,2.5195312.0839844,3.359375.1679688,4.9345703-.1894531.2724609-.8613281.5878906-1.3027344.5878906-.1679688,0-.2519531-.2109375-.2519531-.4199219.0429688-.1054688.0429688-.1679688.0839844-.3574219v-.3984375h-6.4453125v.8398438c0,.1464844-.5039062.4824219-1.0498047.4824219-.2314453,0-.4199219-.2099609-.4199219-.4199219.1044922-1.3857422.1474609-2.078125.1884766-4.1572266v-2.2880859c0-1.4277344-.0839844-3.1503906-.2724609-4.3046875l1.6591797.7978516h1.6367188c.1269531-.6083984.2314453-1.34375.2734375-1.9521484h-1.6582031c-1.0507812.0205078-2.0585938.125-3.0664062.2929688l-.5244141-1.0917969c.9238281.1054688,1.8476562.1474609,2.7919922.1679688h4.5146484c.4833984-1.0917969.9238281-2.5605469,1.0078125-3.5898438,2.3310547.671875,2.3310547.8818359,1.9521484,1.0292969l-.3769531.1464844c-.5039062.7138672-1.2597656,1.6376953-2.015625,2.4140625h2.7714844l.4199219-.6083984c.2304688-.3154297.3984375-.6298828.5664062-.6298828.2519531,0,1.6796875,1.2177734,1.6796875,1.5332031-.0419922.2304688-.2099609.3359375-.5039062.3359375h-6.0048828c-.2724609.6289062-.6298828,1.3642578-.9658203,1.9521484h3.6328125l.3359375-.4833984Zm-7.0976562-5.4794922c3.6542969,1.3017578,2.3515625,4.1152344,1.0507812,3.0029297-.0214844-.9667969-.6513672-2.1425781-1.28125-2.8769531l.2304688-.1259766Zm6.9707031,6.5507812h-6.4453125v2.1416016h6.4453125v-2.1416016Zm-6.4453125,2.7714844v2.1416016h6.4453125v-2.1416016h-6.4453125Zm0,5.1025391h6.4453125v-2.3310547h-6.4453125v2.3310547Z"/>
      <path class="cls-1" d="m356.501781,112.6190141c.2099609-.2949219.3779297-.5878906.5458984-.5878906.2519531,0,1.4902344,1.1328125,1.4902344,1.4482422-.0625.2314453-.2519531.3359375-.5244141.3359375h-2.6669922v4.8291016c1.0078125-.2519531,2.0996094-.5458984,3.2128906-.8398438l.0839844.3144531c-1.7216797.7558594-4.03125,1.7851562-7.1171875,3.0029297-.0634766.2314453-.2734375.4199219-.4414062.4833984l-.6933594-1.7636719c.3154297-.0634766.7353516-.1474609,1.2597656-.2734375v-3.6953125c0-1.2597656-.0625-2.7714844-.2304688-3.8007812,2.015625.609375,2.015625.8193359,1.7011719,1.0078125l-.3154297.1894531v6.0253906l1.3017578-.3144531v-9.0488281h-1.2597656v.5878906c0,.1044922-.3984375.4199219-1.0292969.4199219-.2089844,0-.3359375-.2109375-.3359375-.4199219.0634766-.671875.0839844-1.0078125.1269531-2.015625v-1.2392578c0-1.2392578-.0634766-2.7714844-.2314453-3.7792969l1.7216797.7763672h3.0234375l.2939453-.3984375c.1679688-.1894531.2939453-.3984375.4619141-.3984375.2519531,0,1.5117188.9238281,1.5117188,1.2382812-.1464844.1679688-.4619141.3359375-.8398438.4199219v1.7216797c.0419922,1.7216797.0625,2.3095703.1259766,3.3388672-.1679688.2089844-.7763672.4824219-1.1757812.4824219h-.1884766v-.734375h-.9667969v3.2753906h.7773438l.3779297-.5878906Zm-3.6533203-7.7480469v4.4296875h3.4648438v-4.4296875h-3.4648438Zm12.9960938,9.1542969c.1679688-.2304688.2734375-.4619141.4414062-.4619141.2519531,0,1.3857422.9873047,1.3857422,1.3017578-.1474609.1464844-.3154297.2734375-.7353516.3359375v2.1210938c.0429688,2.1201172.0634766,2.8339844.1474609,4.1357422-.1474609.2099609-.6513672.5244141-1.2597656.5244141-.1884766,0-.2724609-.2089844-.2724609-.4199219.0410156-.1679688.0410156-.2519531.0839844-.5039062v-.4824219h-4.9765625v1.0292969c0,.1044922-.3984375.4199219-1.0498047.4199219-.2099609,0-.4199219-.2109375-.4199219-.4199219.1044922-1.5957031.1679688-2.4150391.2099609-4.8300781v-2.6445312c-.7558594.4199219-1.5537109.7763672-2.4140625,1.1123047l-.2109375-.3154297c2.3515625-1.1328125,4.3261719-2.7080078,5.8378906-4.5556641-.671875-.9033203-1.21875-1.9111328-1.6796875-3.0029297-.8398438,1.21875-1.7851562,2.2470703-2.8349609,3.0029297l-.2939453-.2519531c.7558594-.7978516,1.4902344-1.8681641,2.1210938-3.1074219.6503906-1.2177734,1.3007812-3.2548828,1.40625-4.4091797,2.2050781.7773438,2.2050781.9863281,1.8056641,1.1337891l-.3994141.1259766c-.1679688.4824219-.3769531.9453125-.5878906,1.3857422h3.1074219l.3994141-.4199219c.2099609-.2099609.3779297-.4404297.5458984-.4404297.2519531,0,1.34375,1.0488281,1.34375,1.3642578-.1679688.1884766-.3574219.2519531-.8398438.2724609-.671875,1.5957031-1.5742188,3.0869141-2.75,4.4306641,1.40625,1.2392578,3.2119141,2.2041016,5.4589844,2.8349609l-.0634766.2304688c-.5039062.1464844-.9238281.4824219-1.0498047,1.1337891-2.1621094-.8603516-3.7792969-2.015625-5.0390625-3.4433594-1.0078125,1.0283203-2.2050781,1.9736328-3.5898438,2.7714844l1.2167969.5039062h4.6826172l.2724609-.4619141Zm-.2089844,1.0917969h-4.9765625v4.8496094h4.9765625v-4.8496094Zm-3.7792969-9.2802734c-.1894531.3779297-.4199219.7353516-.6308594,1.0712891.5253906,1.0078125,1.1552734,1.9521484,1.953125,2.7714844.8818359-1.1972656,1.5742188-2.4990234,2.0996094-3.8427734h-3.421875Z"/>
    </g>
    <circle class="cls-3" cx="418.3596606" cy="12.4479663" r="10.9479663"/>
    <circle class="cls-2" cx="70.4353512" cy="12.4479663" r="10.9479663"/>
    <g>
      <path class="cls-1" d="m308.3426013,49.1990922c.2314453-.3154297.4199219-.6308594.5878906-.6308594.2519531,0,1.7226562,1.21875,1.7226562,1.5332031-.0634766.2304688-.2734375.3359375-.546875.3359375h-6.9277344c1.6367188,2.75,4.9335938,5.0605469,7.9785156,6.1933594l-.0214844.2314453c-.5664062.0419922-.9863281.4199219-1.1972656,1.0498047-2.9599609-1.5537109-5.8154297-4.2207031-7.2431641-7.4746094h-.0205078v3.0859375c.0410156,2.5195312.0839844,3.359375.1679688,4.9345703-.1679688.2939453-.7353516.5878906-1.2392578.5878906-.2724609,0-.4833984-.2099609-.4833984-.4199219.1054688-1.5957031.1679688-2.3935547.2109375-4.8076172v-2.625c-1.8476562,2.8974609-4.6826172,5.3330078-8.1894531,6.9287109l-.2089844-.3154297c3.0644531-1.8261719,5.6894531-4.5351562,7.2226562-7.3691406h-3.0449219c-1.0917969.0214844-2.0996094.1259766-3.1494141.2939453l-.5244141-1.0712891c.9238281.1054688,1.8476562.1474609,2.7919922.1679688h5.1025391c0-1.3007812-.0839844-2.8759766-.2519531-3.9257812,2.3085938.6298828,2.3085938.8398438,1.9521484,1.0917969l-.3564453.2304688v2.6035156h5.2275391l.4404297-.6289062Zm.7148438-4.9140625c.2089844-.2519531.3769531-.5244141.5449219-.5244141.2519531,0,1.5117188,1.3642578,1.5117188,1.6796875-.1679688.1474609-.3769531.1884766-.7763672.2314453-.6923828.7763672-1.9316406,1.9101562-2.8349609,2.5400391l-.2519531-.1679688c.4199219-.6923828,1.0292969-1.7841797,1.4072266-2.6455078h-12.9335938c0,1.40625-.5039062,2.3730469-1.0498047,2.7929688-.4824219.3984375-1.1972656.4824219-1.4697266,0-.1679688-.3994141.0634766-.8613281.5039062-1.1552734.7558594-.5244141,1.4697266-1.9316406,1.4277344-3.4013672h.3359375c.1259766.3984375.1884766.7978516.2314453,1.1542969h8.734375c.2519531-.3359375.5039062-.7128906.7558594-1.1123047.734375-1.1757812,1.5117188-2.7919922,1.8261719-3.9052734,2.3095703.9023438,2.3095703,1.1132812,1.8896484,1.2382812l-.3994141.1054688c-.8183594,1.1542969-2.1621094,2.5820312-3.4638672,3.6738281h3.6318359l.3789062-.5039062Zm-13.375-4.0517578c4.1992188,1.7001953,3.0449219,4.8291016,1.7011719,3.7158203-.1269531-1.2167969-1.0917969-2.6875-1.953125-3.5478516l.2519531-.1679688Zm4.640625-.3779297c3.9042969,2.0576172,2.4765625,5.0810547,1.2167969,3.8632812-.0205078-1.2382812-.7558594-2.7929688-1.4482422-3.7167969l.2314453-.1464844Z"/>
      <path class="cls-1" d="m294.8845935,76.1824906c.0419922.5673828.0419922.7558594.0839844,1.0078125-.0839844.2724609-.5244141.5878906-1.0917969.5878906-.2314453,0-.4619141-.2099609-.4619141-.4199219.1259766-1.8056641.1894531-2.7294922.2304688-5.4589844v-5.7949219c0-1.4277344-.0839844-3.1494141-.2724609-4.3037109l1.6162109.796875h5.4804688l.3144531-.4199219c.1894531-.2089844.3154297-.4199219.4833984-.4199219.2519531,0,1.5117188.9873047,1.5117188,1.3027344-.1259766.1679688-.4833984.3359375-.8818359.4199219v8.1669922c.0419922,2.5195312.0839844,3.359375.1679688,4.9345703-.1894531.2304688-.7978516.5878906-1.2177734.5878906-.1679688,0-.2519531-.2109375-.2519531-.4199219.0419922-.1894531.0419922-.2949219.0839844-.609375v-.5253906h-5.7949219v.5673828Zm2.2255859-12.9541016h-2.2255859v5.4794922h2.2255859v-5.4794922Zm-2.2255859,6.0878906v5.6699219h2.2255859v-5.6699219h-2.2255859Zm5.7949219-6.0878906h-2.3935547v5.4794922h2.3935547v-5.4794922Zm-2.3935547,11.7578125h2.3935547v-5.6699219h-2.3935547v5.6699219Zm7.2226562-11.421875c-.7978516.0205078-1.5742188.125-2.3515625.2929688l-.5253906-1.0917969c.9238281.1054688,1.8476562.1474609,2.7929688.1679688h3.4013672l.4404297-.6503906c.2519531-.3144531.4414062-.6503906.609375-.6503906.2519531,0,1.7421875,1.2802734,1.7421875,1.5957031-.0625.2304688-.2724609.3359375-.5244141.3359375h-2.9814453v14.2558594c0,1.1132812-.2519531,1.9316406-2.1835938,2.1210938-.0419922-.4199219-.1679688-.7988281-.4619141-1.0078125-.3359375-.2519531-.8818359-.4414062-1.8896484-.5673828v-.3154297s2.2675781.1679688,2.7294922.1679688c.3994141,0,.5039062-.125.5039062-.4609375v-14.1933594h-1.3017578Z"/>
      <path class="cls-1" d="m308.1961169,89.4979203c.3144531-.4414062.5664062-.8818359.734375-.8818359.2519531,0,2.3105469,1.8056641,2.3105469,2.1201172-.0634766.2519531-.2949219.3359375-.609375.3359375h-14.171875c-1.0917969.0214844-2.0996094.1269531-3.1503906.2949219l-.5878906-1.1757812c.9238281.1044922,1.8476562.1464844,2.7929688.1679688h12.09375l.5878906-.8613281Z"/>
      <path class="cls-1" d="m296.5437731,105.7108109c-1.0917969.0214844-2.0996094.1259766-3.1503906.2939453l-.5664062-1.0498047c.9238281.1054688,1.8476562.1464844,2.7929688.1679688h12.4296875l.5039062-.7138672c.2724609-.3564453.4824219-.7138672.6503906-.7138672.2519531,0,1.953125,1.3857422,1.953125,1.7011719-.0634766.2089844-.2734375.3144531-.546875.3144531h-7.7050781v14.0878906c0,1.1347656-.2734375,1.9746094-2.4775391,2.1835938-.0634766-.4404297-.2314453-.8183594-.5673828-1.0283203-.4199219-.2724609-1.0917969-.4619141-2.2880859-.6083984v-.3154297s2.8349609.1884766,3.4013672.1884766c.4414062,0,.5878906-.125.5878906-.5039062v-14.0039062h-5.0175781Z"/>
      <path class="cls-1" d="m297.2781481,141.7020219c.0419922.3779297.0214844.5039062.0625.6513672-.0625.2929688-.5664062.671875-1.1328125.671875-.2734375,0-.5039062-.2109375-.5039062-.4199219.125-1.8066406.1884766-2.7304688.2304688-5.4589844v-8.2099609c0-1.4277344-.0839844-3.1494141-.2734375-4.3037109l1.7431641.8183594h9.3017578l.3564453-.4824219c.1884766-.2314453.3359375-.4833984.5039062-.4833984.2519531,0,1.7001953,1.1337891,1.7001953,1.4482422-.1679688.1894531-.5244141.3789062-.9648438.4628906v10.9384766c.0410156,2.5195312.0839844,3.359375.1679688,4.9345703-.2109375.2724609-.8398438.6503906-1.34375.6503906-.2109375,0-.2949219-.2099609-.2949219-.4199219.0429688-.2099609.0429688-.3144531.0839844-.6503906v-.546875h-9.6367188v.3994141Zm9.6367188-15.6416016h-9.6367188v4.3876953h9.6367188v-4.3876953Zm0,4.9960938h-9.6367188v4.4511719h9.6367188v-4.4511719Zm-9.6367188,9.6376953h9.6367188v-4.5556641h-9.6367188v4.5556641Z"/>
      <path class="cls-1" d="m311.8494372,163.2264359l-.4199219.3574219c-1.9736328-2.4355469-4.9970703-4.6191406-9.40625-4.6191406s-7.4326172,2.1835938-9.40625,4.6191406l-.4199219-.3574219c1.8056641-2.8339844,4.7666016-5.6474609,9.8261719-5.6474609s8.0205078,2.8134766,9.8261719,5.6474609Z"/>
      <path class="cls-1" d="m295.4090075,166.7166703c2.2265625.6289062,2.2265625.8398438,1.8691406,1.0917969l-.3574219.2304688v6.046875c-.0205078,4.0732422-.6923828,8.2724609-3.9042969,10.9599609l-.2949219-.2519531c2.4355469-2.8349609,2.9189453-6.7607422,2.9189453-10.7080078v-3.6328125c0-1.1962891-.0634766-2.7285156-.2314453-3.7363281Zm6.1738281,5.0595703c0-1.3857422-.0839844-3.1494141-.2734375-4.3037109,2.2890625.6503906,2.2890625.8603516,1.9101562,1.1123047l-.3564453.2314453v8.5664062c.0419922,2.5195312.0839844,3.359375.1679688,4.9335938-.1679688.2734375-.7138672.5878906-1.2177734.5878906-.2304688,0-.4199219-.2099609-.4199219-.4199219.1054688-1.5537109.1464844-2.3300781.1894531-4.6816406v-6.0263672Zm6.3613281-.7978516c0-1.3857422-.0839844-3.1494141-.2734375-4.3046875,2.3105469.6513672,2.3105469.8613281,1.953125,1.1132812l-.3359375.2304688v11.421875c.0419922,2.5195312.0839844,3.359375.1679688,4.9345703-.1679688.2939453-.734375.6513672-1.2382812.6513672-.2734375,0-.5039062-.2109375-.5039062-.4199219.125-1.8066406.1884766-2.7304688.2304688-5.4589844v-8.1679688Z"/>
      <path class="cls-1" d="m296.29182,203.672725c.0410156.5878906.0410156.7978516.0839844,1.0712891-.0839844.2724609-.5878906.6083984-1.1552734.6083984-.2519531,0-.4833984-.2099609-.4833984-.4199219.1269531-1.8056641.1894531-2.7294922.2314453-5.4589844v-5.6689453c0-1.4277344-.0839844-3.1494141-.2724609-4.3046875l1.7207031.8193359h11.0449219l.796875-.9873047c1.8476562,1.3867188,1.8476562,1.5957031,1.3027344,1.8066406l-.5253906.1884766v8.3144531c.0419922,2.5195312.0839844,3.359375.1679688,4.9345703-.2099609.2304688-.8613281.5664062-1.34375.5664062-.1464844,0-.2304688-.2099609-.2304688-.4199219.0410156-.3144531.0410156-.4824219.0839844-.9658203v-.6923828h-11.421875v.6083984Zm0-1.2177734h11.421875v-11.5058594h-11.421875v11.5058594Z"/>
      <path class="cls-1" d="m307.5457263,214.1541703c.1679688-.2314453.2724609-.4833984.4404297-.4833984.2519531,0,1.6376953,1.1337891,1.6376953,1.4482422-.1259766.1679688-.4414062.3574219-.8613281.4199219v7.1386719c0,1.0507812-.2519531,1.7636719-2.2041016,1.9316406-.0839844-.3984375-.2099609-.734375-.4619141-.9443359-.3144531-.2314453-.8818359-.4404297-1.8476562-.5458984v-.3144531s2.1621094.1464844,2.6660156.1464844c.3994141,0,.5253906-.1259766.5253906-.4199219v-7.2646484h-4.7451172v5.9833984c.0419922,2.5195312.0839844,3.359375.1679688,4.9345703-.1679688.3154297-.7978516.6923828-1.2802734.6923828-.2734375,0-.5039062-.2089844-.5039062-.4199219.125-1.8046875.1884766-2.7285156.2304688-5.4589844v-5.7314453h-4.6816406v3.9267578c.0410156,2.5195312.0839844,3.359375.1679688,4.9335938-.1679688.2519531-.6933594.5664062-1.2597656.5664062-.2314453,0-.3994141-.2089844-.3994141-.4199219.0839844-1.3007812.1259766-1.9521484.1679688-3.9257812v-2.1835938c0-1.4277344-.0839844-3.1494141-.2724609-4.3046875l1.7001953.7773438h4.5771484v-3.1074219h-4.9335938c-1.0917969.0214844-2.0996094.1259766-3.1503906.2939453l-.5449219-1.0917969c.9238281.1044922,1.8476562.1474609,2.7919922.1679688h5.8369141c0-1.0712891-.0625-2.3515625-.1894531-3.2333984,2.2675781.6503906,2.2675781.8613281,1.9111328,1.1132812l-.3359375.2304688v1.8896484h5.6064453l.4609375-.6513672c.2519531-.3359375.4628906-.671875.6308594-.671875.2519531,0,1.8476562,1.3027344,1.8476562,1.6171875-.0634766.2304688-.2734375.3359375-.546875.3359375h-8.2929688c.9023438.4199219.9023438.6298828.5878906.8613281l-.2939453.2089844v2.0371094h4.5556641l.2949219-.4824219Z"/>
      <path class="cls-1" d="m311.8494372,229.6317094c-1.8056641,2.8134766-4.7666016,5.6474609-9.8261719,5.6474609s-8.0205078-2.8339844-9.8261719-5.6474609l.4199219-.3779297c1.9736328,2.4570312,4.9970703,4.640625,9.40625,4.640625s7.4326172-2.1835938,9.40625-4.640625l.4199219.3779297Z"/>
    </g>
    <g>
      <path class="cls-1" d="m250.4207263,44.2225297l.3359375-.4414062c.1894531-.2089844.3154297-.4404297.4833984-.4404297.2519531,0,1.5957031,1.0283203,1.5957031,1.34375-.1259766.1679688-.4404297.3359375-.8603516.4199219v2.4150391c.0410156,2.3925781.0839844,3.1914062.1679688,4.6816406-.1894531.2304688-.8613281.5458984-1.3027344.5458984-.2304688,0-.3144531-.2099609-.3144531-.4199219.0419922-.2314453.0419922-.3564453.0839844-.7353516v-.5878906h-5.8574219v2.4990234c.0410156,2.4990234.0839844,3.3173828.1679688,4.8710938-.1679688.3154297-.7558594.671875-1.2597656.671875-.2734375,0-.4833984-.2099609-.4833984-.4199219.1044922-1.6376953.1679688-2.4560547.2099609-4.9345703v-2.6875h-5.8574219v.5039062c.0410156.5039062.0410156.671875.0839844.9033203-.0839844.2519531-.6308594.5673828-1.1972656.5673828-.1894531,0-.3359375-.2109375-.3359375-.4199219.0839844-1.0292969.1054688-1.5332031.1464844-3.0869141v-1.7636719c0-1.4277344-.0839844-3.1494141-.2724609-4.3037109l1.7216797.8183594h5.7109375v-.2304688c0-1.4277344-.0839844-3.1503906-.2734375-4.3046875,2.3515625.671875,2.3515625.8818359,1.9951172,1.1337891l-.3564453.2314453v3.1699219h5.6679688Zm-12.890625,6.1523438h5.8574219v-5.5429688h-5.8574219v5.5429688Zm7.2226562,0h5.8574219v-5.5429688h-5.8574219v5.5429688Z"/>
      <path class="cls-1" d="m252.2058825,71.4705766c-.7138672,6.7607422-8.9238281,6.8242188-9.3847656,6.8867188-.671875.0625-1.0507812.0625-1.0712891-.0839844-.0419922-.1259766.5458984-.1894531.8193359-.2304688,2.3300781-.3789062,7.7265625-1.9746094,8.1464844-6.8662109.4404297-4.8916016-3.0449219-6.8662109-5.984375-7.0341797-.2734375-.0205078-.5458984-.0205078-.8183594,0,.3359375.6933594,1.2382812,2.8984375-.2949219,6.5097656-1.7001953,4.0097656-4.15625,5.8994141-5.0175781,5.7949219-.8818359-.1054688-2.3730469-1.7636719-2.5410156-4.3671875-.3564453-5.2705078,4.0107422-8.0419922,7.0341797-8.5253906,3.3798828-.5449219,9.8056641,1.1132812,9.1123047,7.9160156Zm-8.6503906-7.3066406c-2.5820312.2939453-5.1230469,1.9941406-6.109375,4.9970703-1.1347656,3.4638672.6289062,5.3330078,1.0488281,5.5429688.3994141.2099609.9238281-.2099609.9238281-.2099609,2.4355469-1.7851562,3.8007812-5.2285156,4.0742188-6.1933594.2724609-.9873047.4199219-2.9609375.0625-4.1367188Z"/>
      <path class="cls-1" d="m239.7976794,86.1600297c.2089844-.2949219.3769531-.5878906.5449219-.5878906.2519531,0,1.4912109,1.1328125,1.4912109,1.4482422-.0634766.2314453-.2314453.3359375-.5039062.3359375h-2.4150391v1.34375c3.4863281,1.8896484,2.3310547,4.3466797,1.1552734,3.3388672-.1044922-.8613281-.6513672-1.953125-1.1552734-2.7929688v6.2148438c.0429688,2.5195312.0839844,3.359375.1679688,4.9335938-.1679688.3154297-.7128906.609375-1.1757812.609375-.2519531,0-.4824219-.2099609-.4824219-.4199219.1259766-1.8056641.1894531-2.7294922.2304688-5.4589844v-3.8212891c-.6503906,1.7841797-1.5117188,3.4013672-2.6445312,4.8291016l-.2734375-.2734375c1.3652344-2.4140625,2.1835938-5.4589844,2.625-8.5029297h-.7773438c-.4619141.0205078-.8398438.1259766-1.2597656.2939453l-.5253906-1.0917969c.6308594.1054688,1.2597656.1464844,1.9316406.1679688h.9238281v-.6933594c0-1.4277344-.0839844-3.1484375-.2724609-4.3037109,2.2675781.6513672,2.2675781.8603516,1.8896484,1.1123047l-.3574219.2314453v3.6533203h.5039062l.3789062-.5664062Zm11.3583984-1.2597656c.2099609-.2734375.3779297-.5673828.5458984-.5673828.2519531,0,1.6171875,1.1123047,1.6171875,1.4277344-.0429688.2314453-.2519531.3359375-.5253906.3359375h-3.8007812c1.0917969,1.2177734,2.8769531,2.0361328,4.4726562,2.4355469v.2314453c-.4619141.1044922-.8398438.4609375-.9863281,1.0703125-.7988281-.3574219-1.5546875-.8183594-2.2265625-1.4277344l-.1464844.0419922v.9033203c.0419922.9023438.0419922,1.2167969.0839844,1.7001953-.0839844.2519531-.734375.5244141-1.1337891.5244141h-.1884766v-.5878906h-3.90625v.4414062c0,.1054688-.5449219.3779297-1.0283203.3779297-.1679688,0-.2939453-.2099609-.2939453-.4199219.0625-.6298828.0839844-.9658203.1259766-1.9316406v-1.1962891c-.8398438.7128906-1.7431641,1.34375-2.7509766,1.8476562l-.1679688-.3154297c1.4277344-.9873047,2.6035156-2.2675781,3.4648438-3.6953125h-.9863281c-.6308594.0205078-1.1757812.1259766-1.7636719.2939453l-.546875-1.0917969c.8193359.1054688,1.6386719.1464844,2.4785156.1679688h1.1757812c.2519531-.5039062.4609375-1.0498047.6503906-1.5742188-1.2382812.1044922-2.4775391.1679688-3.6953125.1679688l-.0839844-.4199219c1.5957031-.1474609,3.3808594-.4414062,4.9970703-.7773438,1.3642578-.2734375,2.6875-.7138672,3.7158203-1.28125,1.3232422,1.5751953,1.3232422,1.7851562.8193359,1.7226562l-.4833984-.0839844c-1.0283203.1884766-2.3085938.3769531-3.6953125.5244141-.2304688.6083984-.5039062,1.1757812-.8183594,1.7216797h4.6816406l.3994141-.5664062Zm-8.4404297,10.7285156c.0419922,2.4570312.0839844,3.2753906.1679688,4.8085938-.1679688.2519531-.6933594.5664062-1.2177734.5664062-.1884766,0-.3359375-.2099609-.3359375-.4199219.0839844-.9453125.1044922-1.4277344.1474609-2.8554688v-1.6582031c0-1.4277344-.0839844-3.1503906-.2734375-4.3046875l1.6376953.7773438h8.2939453l.2724609-.4199219c.1474609-.2109375.2519531-.4199219.4199219-.4199219.2519531,0,1.6162109,1.0078125,1.6162109,1.3222656-.125.1464844-.4609375.3144531-.8603516.3779297v5.7744141c0,1.0078125-.1884766,1.6367188-1.8271484,1.8261719-.0410156-.3779297-.125-.734375-.3359375-.9023438-.2724609-.2109375-.6289062-.3574219-1.3642578-.4628906v-.3359375s1.5117188.1054688,1.8896484.1054688c.3144531,0,.3984375-.1054688.3984375-.3574219v-5.8789062h-8.6289062v2.4570312Zm5.7949219-1.6171875c.1679688-.2089844.2734375-.4199219.4414062-.4199219.2519531,0,1.2597656.9238281,1.2597656,1.2392578-.1054688.1259766-.3574219.2519531-.6933594.3154297v1.0078125c.0419922,1.0078125.0419922,1.34375.1054688,1.9101562-.1054688.2519531-.671875.5664062-1.0712891.5664062h-.1474609v-.8398438h-2.9599609v.8398438c0,.1054688-.4833984.3789062-.9443359.3789062-.1474609,0-.2519531-.2109375-.2519531-.4199219.0625-.4199219.0625-.6513672.1044922-1.3027344v-.8603516c0-.8603516-.0419922-1.9521484-.1679688-2.6875l1.34375.671875h2.7080078l.2734375-.3994141Zm-3.4433594-6.2558594h3.6533203l.4619141-.4833984c-.2734375-.3564453-.5253906-.7558594-.7558594-1.1757812h-2.75c-.3359375.5039062-.7353516.9658203-1.1552734,1.4072266l.5458984.2519531Zm-.1054688,2.6240234h3.90625v-2.015625h-3.90625v2.015625Zm.4833984,6.7822266h2.9599609v-2.1425781h-2.9599609v2.1425781Z"/>
    </g>
    <g>
      <path class="cls-1" d="m179.8992419,40.7156938c2.2255859.6298828,2.2255859.8398438,1.8691406,1.0917969l-.3574219.2314453v6.046875c-.0214844,4.0722656-.6933594,8.2714844-3.9052734,10.9589844l-.2939453-.2519531c2.4355469-2.8339844,2.9179688-6.7597656,2.9179688-10.7070312v-3.6328125c0-1.1972656-.0625-2.7294922-.2304688-3.7373047Zm6.1728516,5.0595703c0-1.3847656-.0839844-3.1484375-.2724609-4.3037109,2.2880859.6513672,2.2880859.8603516,1.9101562,1.1123047l-.3574219.2314453v8.5664062c.0429688,2.5195312.0839844,3.359375.1679688,4.9345703-.1679688.2724609-.7128906.5878906-1.2167969.5878906-.2314453,0-.4199219-.2109375-.4199219-.4199219.1044922-1.5546875.1464844-2.3310547.1884766-4.6826172v-6.0263672Zm6.3623047-.796875c0-1.3867188-.0839844-3.1503906-.2734375-4.3046875,2.3095703.6503906,2.3095703.8613281,1.953125,1.1132812l-.3359375.2304688v11.421875c.0410156,2.5195312.0839844,3.359375.1679688,4.9335938-.1679688.2949219-.7353516.6513672-1.2392578.6513672-.2724609,0-.5039062-.2099609-.5039062-.4199219.1259766-1.8056641.1884766-2.7294922.2314453-5.4589844v-8.1669922Z"/>
      <path class="cls-1" d="m180.7810778,77.6717484c.0419922.5878906.0419922.7988281.0839844,1.0712891-.0839844.2724609-.5878906.6083984-1.1552734.6083984-.2519531,0-.4824219-.2089844-.4824219-.4199219.1259766-1.8046875.1894531-2.7285156.2304688-5.4589844v-5.6679688c0-1.4277344-.0839844-3.1503906-.2724609-4.3046875l1.7216797.8183594h11.0439453l.7978516-.9863281c1.8476562,1.3857422,1.8476562,1.5957031,1.3017578,1.8056641l-.5244141.1884766v8.3144531c.0410156,2.5195312.0839844,3.359375.1679688,4.9345703-.2109375.2314453-.8613281.5673828-1.34375.5673828-.1474609,0-.2314453-.2109375-.2314453-.4199219.0419922-.3154297.0419922-.4833984.0839844-.9667969v-.6923828h-11.421875v.6083984Zm0-1.2167969h11.421875v-11.5058594h-11.421875v11.5058594Z"/>
      <path class="cls-1" d="m191.9715075,84.2479203c.2519531-.3359375.4628906-.6923828.6308594-.6923828.2519531,0,1.8681641,1.34375,1.8681641,1.6591797-.0634766.2304688-.2724609.3359375-.5458984.3359375h-6.7402344v13.1220703h5.6484375l.4824219-.671875c.2519531-.3359375.4628906-.6923828.6308594-.6923828.2519531,0,1.8681641,1.34375,1.8681641,1.6582031-.0634766.2304688-.2314453.3359375-.5244141.3359375h-14.4667969c-1.0917969.0214844-2.0996094.1259766-3.1494141.2939453l-.5458984-1.0917969c.9238281.1044922,1.8476562.1474609,2.7929688.1679688h5.8574219v-13.1220703h-3.5693359c-1.0917969.0205078-2.0996094.125-3.1494141.2929688l-.5458984-1.0917969c.9238281.1054688,1.8476562.1474609,2.7919922.1679688h10.1835938l.4824219-.671875Z"/>
      <path class="cls-1" d="m193.1902575,114.8016313c.2304688-.2939453.4199219-.6083984.5878906-.6083984.2519531,0,1.6367188,1.1757812,1.6367188,1.4902344-.0625.2304688-.2519531.3144531-.5449219.3144531h-7.0546875c1.9101562,1.9951172,5.2695312,3.6328125,8.0410156,4.3671875l-.0214844.2314453c-.5039062.0634766-.9648438.4833984-1.1123047,1.0917969-2.8349609-1.0917969-5.7529297-3.1494141-7.4541016-5.6904297h-.1464844v1.890625c.0419922,1.8681641.0625,2.4980469.1259766,3.6318359-.1259766.2099609-.5673828.5039062-1.2392578.5039062-.2304688,0-.3769531-.2099609-.3769531-.4199219.0839844-1.0712891.1044922-1.6162109.1464844-3.2333984v-1.8261719c-2.0371094,2.1621094-5.0605469,3.9257812-8.3359375,5.0800781l-.1884766-.3564453c2.8554688-1.3017578,5.5009766-3.2548828,7.2431641-5.2705078h-3.2119141c-1.0917969.0214844-2.0996094.1269531-3.1494141.2949219l-.5664062-1.0712891c.9238281.1044922,1.8476562.1474609,2.7919922.1679688h5.4169922v-2.0576172h-2.5410156c-1.0917969.0214844-2.0996094.1259766-3.1484375.2939453l-.546875-1.0917969c.9238281.1044922,1.8476562.1474609,2.7929688.1679688h3.4433594v-1.9316406h-3.5273438c-1.0917969.0205078-2.0996094.1259766-3.1494141.2939453l-.5458984-1.0917969c.9238281.1054688,1.8476562.1464844,2.7929688.1679688h2.3720703c-.1259766-.9238281-.7978516-2.0371094-1.4482422-2.75h-1.5546875c-.9648438.0205078-1.9101562.125-2.8554688.2929688l-.5664062-1.0703125c.9238281.1054688,1.8476562.1464844,2.7929688.1679688h4.1777344c0-1.34375-.0839844-2.9609375-.2519531-4.0527344,2.1210938.6308594,2.1210938.8398438,1.8056641,1.0507812l-.2939453.2089844v2.7929688h2.0576172c0-1.34375-.0839844-2.9609375-.2519531-4.0527344,2.1416016.6308594,2.1416016.8398438,1.8056641,1.0712891l-.3144531.2099609v2.7714844h.734375c.7978516-1.1132812,1.5957031-2.6455078,1.9101562-3.7578125,2.0585938.8398438,2.0585938,1.0488281,1.6386719,1.1542969l-.3994141.1054688c-.6298828.796875-1.6162109,1.7421875-2.5615234,2.4980469h2.8769531l.3984375-.5878906c.2304688-.2939453.3984375-.5878906.5664062-.5878906.2519531,0,1.6591797,1.1542969,1.6591797,1.4697266-.0634766.2314453-.2724609.3154297-.5458984.3154297h-4.8496094c1.0488281.2304688,1.0488281.4404297.6503906.5878906l-.3779297.125c-.4833984.6308594-1.2177734,1.3867188-1.9111328,2.0371094h3.4023438l.3984375-.5664062c.2099609-.2734375.3779297-.5673828.5458984-.5673828.2519531,0,1.5957031,1.1123047,1.5957031,1.4277344-.0419922.2314453-.2314453.3359375-.5244141.3359375h-6.9082031v1.9316406h3.8632812l.3779297-.5244141c.2099609-.2734375.3779297-.546875.5458984-.546875.2519531,0,1.5117188,1.0507812,1.5117188,1.3652344-.0625.2304688-.2519531.3359375-.5458984.3359375h-5.7529297v2.0576172h5.6484375l.4199219-.5878906Zm-13.0810547-11.4853516c3.8427734,1.3652344,2.8134766,4.0947266,1.6162109,3.1503906-.1884766-1.0078125-1.0488281-2.2890625-1.8681641-2.9824219l.2519531-.1679688Zm4.5556641,6.8242188h3.234375c.5244141-.8183594,1.0703125-1.8896484,1.4482422-2.75h-6.3408203c1.8691406.9443359,2.0576172,2.2460938,1.6582031,2.75Z"/>
      <path class="cls-1" d="m179.9412341,136.0535844l-.3359375.1884766c-.4619141,1.953125-1.1757812,3.9472656-2.0791016,5.2705078l-.3359375-.1884766c.1894531-.4833984.3574219-1.0507812.5253906-1.6386719.3359375-1.34375.5664062-3.2753906.5253906-4.4511719l1.1542969.3359375c.9023438.0839844.9023438.2949219.5458984.4833984Zm3.0439453-3.5908203c-.2519531-.6083984-.5449219-1.1962891-.796875-1.6582031l.2304688-.1054688c3.4648438,2.1835938,2.2255859,4.8300781,1.0703125,3.7167969-.0410156-.4619141-.1679688-1.0078125-.3359375-1.5332031-.4404297.1054688-.9238281.2314453-1.4277344.3574219v4.3251953c.0429688,2.5195312.0839844,3.359375.1679688,4.9345703-.1679688.2089844-.6083984.5449219-1.2167969.5449219-.1894531,0-.4199219-.2089844-.4199219-.4199219.125-1.8046875.1884766-2.7285156.2304688-5.4589844v-3.6523438c-.671875.1464844-1.40625.2929688-2.2255859.4609375-.0839844.2734375-.2939453.3789062-.4833984.4199219l-.4824219-1.5527344c.4414062,0,1.0917969-.0429688,1.9101562-.0839844.4833984-.7988281,1.0078125-1.7011719,1.4912109-2.625.6298828-1.2382812,1.3017578-2.8134766,1.5537109-3.96875,2.078125.9873047,2.078125,1.1972656,1.6796875,1.28125l-.3779297.0839844c-.8818359,1.5117188-2.3310547,3.5693359-3.7792969,5.1855469.9658203-.0625,2.0791016-.1464844,3.2119141-.2519531Zm-2.75-8.8388672c2.2050781.8193359,2.2050781,1.0283203,1.8476562,1.1757812l-.3574219.1259766c-.6289062,1.0703125-1.4277344,2.1835938-2.2041016,3.0234375,1.5957031,1.3222656.7978516,2.8554688-.2099609,2.1210938-.1679688-.9667969-1.0917969-2.2050781-1.8476562-2.9189453l.2099609-.1679688c.5673828.1884766,1.0283203.4199219,1.4277344.6513672.5458984-1.21875,1.0078125-2.8984375,1.1337891-4.0107422Zm2.3515625,11.5263672c3.0449219,2.3515625,1.6796875,4.9140625.6298828,3.7587891,0-1.1757812-.4833984-2.6875-.8818359-3.6533203l.2519531-.1054688Zm3.4648438,1.6171875c.2519531,1.953125-.2519531,3.5488281-.7773438,4.2207031-.3574219.4609375-1.0703125.671875-1.3652344.2724609-.2304688-.3564453-.0410156-.8193359.3154297-1.1757812.5673828-.5878906,1.34375-2.0576172,1.4697266-3.359375l.3574219.0419922Zm2.3925781-10.6445312l-.3769531.125c-.8828125,1.7226562-2.1425781,3.1914062-3.4228516,4.0947266l-.2939453-.2314453c.2519531-.2929688.5039062-.6289062.7558594-1.0283203.7558594-1.1552734,1.4492188-3.0029297,1.6171875-4.1787109l1.1542969.5878906c.9453125.2949219.9453125.5039062.5664062.6308594Zm3.8222656,5.8789062c-.4628906-.7353516-.9873047-1.4277344-1.4912109-1.9316406l.2099609-.1679688c4.5351562,2.0566406,3.4853516,5.2480469,2.1416016,4.1777344-.1044922-.5253906-.3154297-1.0703125-.6298828-1.6376953-1.5117188.3154297-3.4853516.7353516-6.046875,1.1962891-.1259766.2519531-.3144531.3789062-.5253906.4199219l-.5449219-1.7421875c.4404297,0,1.0917969-.0214844,1.8681641-.0625.0839844-.2109375.1679688-.4414062.2519531-.671875.4833984-1.3027344.9658203-3.0029297,1.0498047-4.1787109,2.2460938.5244141,2.2460938.7353516,1.8896484.9033203l-.3564453.1679688c-.5253906,1.1123047-1.3652344,2.5400391-2.2265625,3.7578125,1.28125-.0625,2.8144531-.1259766,4.4101562-.2304688Zm-5.3339844,3.8632812c1.9746094.6289062,1.9746094.8398438,1.6591797,1.0488281l-.2939453.2109375v3.9042969c0,.2734375.0625.3359375.6298828.3359375h1.4277344c.6513672,0,1.1552734,0,1.34375-.0205078.1679688-.0205078.2314453-.0634766.3154297-.2519531.1464844-.3154297.3144531-1.3857422.5244141-2.4990234h.2724609l.0634766,2.5830078c.3994141.1474609.4619141.3154297.4619141.5673828,0,.5664062-.5253906.8398438-3.0234375.8398438h-1.6376953c-1.3642578,0-1.5751953-.3154297-1.5751953-1.2392578v-2.6875c0-.8818359-.0410156-2.015625-.1679688-2.7919922Zm1.34375-1.4492188c4.3261719,1.3222656,3.4648438,4.3457031,2.1425781,3.4433594-.2519531-1.1337891-1.4072266-2.5195312-2.3515625-3.2333984l.2089844-.2099609Zm7.7695312-5.4589844l-.0429688.2304688c-.4824219.1269531-.9648438.546875-1.1123047,1.0507812-1.6591797-1.2597656-2.8554688-3.0664062-3.4013672-5.1445312h-.9658203c-.5878906.0214844-1.0917969.1259766-1.6376953.2939453l-.5664062-1.0712891c.6289062.1054688,1.2597656.1474609,1.8886719.1679688h.8613281l.5878906-.9023438,1.6376953,1.1542969c-.2099609.2314453-.6923828.3789062-1.2597656.3994141.6513672,1.4912109,2.1835938,2.9599609,4.0107422,3.8212891Zm-3.296875,7.0966797c4.3457031,2.6455078,3.1074219,5.9423828,1.7851562,4.703125-.1474609-1.4912109-1.1552734-3.4013672-2.0371094-4.5556641l.2519531-.1474609Z"/>
      <path class="cls-1" d="m177.2742419,154.2186234l-.1464844-.3144531c2.2890625-1.3232422,4.8710938-3.6542969,6.65625-5.9423828.8398438-1.0917969,1.4902344-2.3310547,1.7207031-3.4853516l2.5830078.7978516c-.0634766.2519531-.3154297.3359375-.8193359.3779297,1.7851562,2.6455078,5.1230469,4.9130859,8.671875,6.3828125l-.0419922.3144531c-.5673828.1054688-1.0498047.5673828-1.1757812,1.0917969-3.3388672-1.7207031-6.4033203-4.4716797-7.8310547-7.5371094-1.8691406,3.0449219-5.7949219,6.5087891-9.6171875,8.3144531Zm4.8505859,8.6083984c.0419922.3564453.0205078.4833984.0634766.6083984-.0634766.2519531-.6513672.5673828-1.21875.5673828-.2304688,0-.3564453-.2099609-.3564453-.4199219.0634766-.7978516.0839844-1.1962891.1259766-2.3935547v-1.4277344c0-1.4277344-.0839844-3.1494141-.2734375-4.3046875l1.7636719.7988281h8.5039062l.3144531-.4414062c.1894531-.2099609.3154297-.4414062.4833984-.4414062.2519531,0,1.6162109,1.0292969,1.6162109,1.34375-.1464844.1679688-.4609375.3359375-.8398438.4199219v2.0996094c.0429688,2.0791016.0634766,2.7714844.1474609,4.0527344-.1679688.2519531-.8818359.5458984-1.3232422.5458984-.2089844,0-.2929688-.2099609-.2929688-.4199219.0410156-.1474609.0410156-.2314453.0839844-.4833984v-.4609375h-8.7978516v.3564453Zm2.7714844-9.8681641c-.9658203.0214844-1.8476562.1259766-2.7714844.2939453l-.5458984-1.0712891c.9238281.1054688,1.8476562.1474609,2.7929688.1679688h4.3876953l.4199219-.6083984c.2314453-.2939453.3994141-.6083984.5673828-.6083984.2519531,0,1.6796875,1.1962891,1.6796875,1.5117188-.0634766.2089844-.2519531.3144531-.546875.3144531h-5.9833984Zm-2.7714844,8.8808594h8.7978516v-4.9755859h-8.7978516v4.9755859Z"/>
      <path class="cls-1" d="m178.1140856,178.5779984c0,.2519531-.125.5039062-.3144531.6289062l-.8183594-1.6992188c.6083984-.2949219,1.9941406-1.1972656,3.484375-2.1640625.0214844-.5234375.0214844-1.0488281.0214844-1.5742188v-3.2128906c0-1.0917969-.0625-2.3925781-.2099609-3.2958984l1.7431641.8818359h4.9335938c0-.7773438-.0419922-1.7636719-.1464844-2.4355469,2.1835938.6298828,2.1835938.8398438,1.8261719,1.0703125l-.3359375.2314453v1.1337891h4.7871094l.4199219-.6298828c.2304688-.3154297.3984375-.6298828.5664062-.6298828.2519531,0,1.6796875,1.21875,1.6796875,1.5332031-.0625.2089844-.2519531.3144531-.5244141.3144531h-13.4580078v5.0175781c0,3.7382812-.3994141,8.2949219-4.1992188,11.296875l-.2734375-.2519531c2.2460938-2.4980469,2.9394531-5.5644531,3.1289062-8.734375-.6308594.6933594-1.4072266,1.5742188-2.3105469,2.5195312Zm-.3769531-8.9453125c3.3378906,2.4785156,1.9726562,5.2910156.8603516,4.0957031.0205078-1.3027344-.5673828-2.9394531-1.1337891-3.96875l.2734375-.1269531Zm15.6416016,4.6191406c.1679688-.2519531.2939453-.5039062.4619141-.5039062.2519531,0,1.5742188,1.1132812,1.5742188,1.4277344-.125.1679688-.4609375.3359375-.8603516.4199219v7.6640625c0,.9453125-.2314453,1.5546875-1.9316406,1.7011719-.0634766-.3359375-.1679688-.6308594-.3779297-.7988281-.2939453-.1875-.734375-.3144531-1.5332031-.4199219v-.3359375s1.7226562.1269531,2.1425781.1269531c.3564453,0,.4404297-.1054688.4404297-.4199219v-7.7695312h-4.0947266c-.1044922.5878906-.2304688,1.15625-.3984375,1.7011719,4.9130859,1.890625,4.0527344,4.8925781,2.6875,3.9257812-.3984375-1.1542969-1.7011719-2.6230469-2.7929688-3.5898438-.5878906,1.6582031-1.7001953,3.1074219-3.7578125,4.2617188l-.2734375-.3359375c2.2050781-1.6152344,2.9824219-3.6308594,3.2548828-5.9628906h-3.5478516v4.1367188c.0410156,2.5195312.0839844,3.359375.1679688,4.9335938-.1679688.2519531-.6513672.5683594-1.1972656.5683594-.1894531,0-.3779297-.2109375-.3779297-.4199219.1044922-1.34375.1474609-2.015625.1884766-4.0527344v-2.2460938c0-1.4277344-.0839844-3.1503906-.2724609-4.3046875l1.5957031.7773438h3.5068359c.0839844-.8613281.1044922-1.7851562.125-2.7304688h-1.9316406c-1.0917969.0214844-2.0996094.1269531-3.1484375.2949219l-.5253906-1.0722656c.9238281.1054688,1.8476562.1484375,2.7929688.1679688h7.6630859l.4199219-.6074219c.2314453-.2949219.3994141-.609375.5673828-.609375.2519531,0,1.6796875,1.1757812,1.6796875,1.4902344-.0634766.2304688-.2519531.3359375-.5253906.3359375h-5.6689453c-.0205078.9667969-.0634766,1.8691406-.1474609,2.7304688h3.8007812l.2939453-.484375Z"/>
      <path class="cls-1" d="m179.3113513,188.7225297v11.8417969c.0419922,2.5195312.0839844,3.359375.1679688,4.9335938-.1679688.2109375-.5664062.5878906-1.1972656.5878906-.1884766,0-.4199219-.2089844-.4199219-.4199219.1269531-1.8046875.1894531-2.7285156.2314453-5.4589844v-8.5664062c0-1.4277344-.0839844-3.1484375-.2724609-4.3027344l1.7636719.7753906h2.1621094l.3779297-.4199219c.2099609-.2089844.3564453-.4394531.5244141-.4394531.2519531,0,1.4912109,1.2792969,1.4912109,1.5957031-.1259766.1875-.4199219.2304688-.9033203.2519531-.5664062,1.1757812-1.7001953,3.4628906-2.5195312,4.6386719,1.8476562,1.5332031,2.5410156,3.1914062,2.5410156,4.7246094.0214844,1.890625-.6298828,2.7929688-2.4570312,2.8769531,0-.4199219-.0625-.8828125-.1884766-1.0507812-.1474609-.1464844-.5039062-.2714844-.9443359-.3144531v-.3144531h1.2802734c.2314453,0,.3564453-.0214844.5244141-.1269531.2949219-.1875.4628906-.6074219.4628906-1.34375,0-1.4472656-.4414062-2.9179688-1.7011719-4.3867188.4824219-1.2402344,1.1337891-3.5273438,1.5742188-5.0820312h-2.4980469Zm14.2353516,7.1816406c.2314453-.3164062.3994141-.6308594.5673828-.6308594.2519531,0,1.6367188,1.1972656,1.6367188,1.5117188-.0410156.2304688-.2304688.3359375-.5039062.3359375h-3.8837891v6.8242188c0,.2734375.0634766.3574219.5673828.3574219h1.1962891c.5458984,0,.9658203,0,1.1552734-.0214844.1679688,0,.2089844-.0429688.3144531-.2304688.1259766-.3164062.3359375-1.5546875.5458984-2.7089844h.2519531l.0634766,2.7929688c.3769531.1679688.4824219.3359375.4824219.5878906,0,.5664062-.5253906.8398438-2.8339844.8398438h-1.4707031c-1.3007812,0-1.5117188-.3359375-1.5117188-1.3027344v-7.1386719h-2.1835938c-.2724609,4.8085938-1.6796875,7.328125-6.4667969,8.9023438l-.125-.3359375c4.0517578-1.9316406,5.0175781-4.3242188,5.1855469-8.5664062h-.9863281c-.5878906.0214844-1.1347656.1269531-1.6796875.2949219l-.546875-1.0722656c.9238281.1054688,1.8476562.1484375,2.7929688.1679688h7.0332031l.3994141-.6074219Zm.3779297-6.8242188c.2099609-.2734375.3779297-.546875.5458984-.546875.2519531,0,1.5117188,1.4082031,1.5117188,1.7226562-.1474609.1679688-.3564453.2089844-.7353516.2304688-.4824219.4824219-1.3222656,1.1542969-1.9101562,1.5332031l-.2734375-.1269531c.1679688-.4199219.3789062-1.1113281.546875-1.6796875h-8.4414062c-.0205078.9453125-.3144531,1.6601562-.671875,2.015625-.3984375.3789062-1.0917969.4628906-1.34375-.0195312-.1884766-.4199219.0429688-.8828125.4414062-1.15625.5253906-.4394531,1.0078125-1.5957031.9238281-2.6230469h.3574219c.125.4199219.2089844.8183594.2519531,1.1757812h3.2958984c0-.9238281-.0419922-2.0800781-.1679688-2.8769531,2.1835938.6503906,2.1835938.8613281,1.8271484,1.0917969l-.3574219.2304688v1.5546875h3.8212891l.3779297-.5253906Zm-6.2773438,4.6601562c-.9667969.0214844-1.890625.1269531-2.8144531.2949219l-.5449219-1.0703125c.9238281.1035156,1.8476562.1464844,2.7919922.1679688h4.6191406l.3779297-.5683594c.2099609-.2929688.3779297-.5878906.5458984-.5878906.2519531,0,1.5957031,1.1132812,1.5957031,1.4277344-.0634766.2324219-.2519531.3359375-.5244141.3359375h-6.046875Z"/>
    </g>
    <g>
      <path class="cls-1" d="m134.51057,47.4979203c.2519531-.3144531.4414062-.6503906.609375-.6503906.2519531,0,1.7841797,1.2802734,1.7841797,1.5957031-.0419922.2304688-.2314453.3359375-.5458984.3359375h-6.3203125c1.8271484,3.2539062,5.1660156,6.0673828,8.2519531,7.3476562l-.0625.2109375c-.5253906.0839844-1.0292969.4824219-1.21875,1.1542969-3.0234375-1.7216797-5.8359375-4.8085938-7.4111328-8.7128906h-.0839844v4.6601562c.0419922,2.5195312.0839844,3.359375.1679688,4.9345703-.1679688.3154297-.7353516.671875-1.2597656.671875-.2724609,0-.5039062-.2099609-.5039062-.4199219.1259766-1.8056641.1884766-2.7294922.2314453-5.4589844v-3.4433594c-1.890625,3.2333984-4.8300781,6.0048828-8.4199219,7.8945312l-.2099609-.3154297c3.1914062-2.1201172,5.9208984-5.3320312,7.4951172-8.5234375h-2.5820312c-1.0917969.0205078-2.0996094.125-3.1494141.2929688l-.5673828-1.0917969c.9238281.1054688,1.8476562.1474609,2.7929688.1679688h4.640625v-3.7998047h-4.7666016c-1.0917969.0205078-2.0996094.1259766-3.1494141.2939453l-.5458984-1.0498047c.9238281.1044922,1.8476562.1474609,2.7919922.1679688h5.6699219c0-1.3232422-.0839844-2.9814453-.2519531-4.0732422,2.3085938.671875,2.3085938.8818359,1.9521484,1.1337891l-.3359375.2314453v2.7080078h5.5634766l.4628906-.6513672c.2519531-.3144531.4404297-.6503906.6083984-.6503906.2519531,0,1.8056641,1.2597656,1.8056641,1.5742188-.0625.2314453-.2519531.3154297-.5458984.3154297h-7.8945312v3.7998047h4.5351562l.4619141-.6503906Z"/>
      <path class="cls-1" d="m135.3289294,64.1522172l.4414062-.6513672c.2304688-.3154297.4199219-.6513672.5878906-.6513672.2519531,0,1.7421875,1.28125,1.7421875,1.5957031-.0625.2314453-.2519531.3359375-.5244141.3359375h-14.3613281v3.1503906c0,3.484375-.2314453,8.5449219-3.4228516,12.1142578l-.2519531-.2314453c2.0791016-3.6523438,2.3730469-7.9990234,2.3730469-11.8828125v-2.2470703c0-.7558594-.0419922-1.6796875-.1464844-2.3310547l1.7001953.7988281h5.2490234c0-1.1347656-.0625-2.5195312-.2099609-3.4648438,2.2675781.6503906,2.2675781.8613281,1.8896484,1.0917969l-.3574219.2304688v2.1425781h5.2910156Zm-.4824219,12.1777344c-.8818359-1.5332031-2.0576172-3.0664062-3.0859375-4.1582031l.2724609-.1884766c6.8662109,4.3037109,5.8583984,8.9863281,4.0947266,7.5585938-.1679688-.8603516-.546875-1.8271484-1.0507812-2.7714844-2.6875.5878906-6.2558594,1.2802734-11.0429688,2.1201172-.1474609.2519531-.3574219.3994141-.546875.4414062l-.7558594-1.8896484c.8193359-.0419922,1.9951172-.1259766,3.4433594-.2519531.6933594-2.0791016,1.34375-4.5556641,1.890625-6.9072266.3144531-1.34375.5664062-2.9609375.5878906-4.1152344,2.5195312.5039062,2.5195312.7128906,2.140625.9023438l-.3564453.1894531c-.7558594,2.8554688-2.1630859,6.7392578-3.7373047,9.8671875,2.3095703-.1884766,5.1445312-.4824219,8.1464844-.796875Z"/>
      <path class="cls-1" d="m135.0564685,89.4979203c.3154297-.4414062.5673828-.8818359.7353516-.8818359.2519531,0,2.3085938,1.8056641,2.3085938,2.1201172-.0625.2519531-.2929688.3359375-.6083984.3359375h-14.1728516c-1.0917969.0214844-2.0996094.1269531-3.1484375.2949219l-.5878906-1.1757812c.9238281.1044922,1.8476562.1464844,2.7919922.1679688h12.09375l.5878906-.8613281Z"/>
      <path class="cls-1" d="m123.4031481,105.7108109c-1.0917969.0214844-2.0996094.1259766-3.1484375.2939453l-.5673828-1.0498047c.9238281.1054688,1.8476562.1464844,2.7919922.1679688h12.4296875l.5039062-.7138672c.2734375-.3564453.4833984-.7138672.6513672-.7138672.2519531,0,1.9521484,1.3857422,1.9521484,1.7011719-.0625.2089844-.2724609.3144531-.5449219.3144531h-7.7060547v14.0888672c0,1.1328125-.2724609,1.9726562-2.4775391,2.1835938-.0625-.4414062-.2304688-.8193359-.5664062-1.0292969-.4199219-.2734375-1.0917969-.4619141-2.2890625-.609375v-.3144531s2.8339844.1894531,3.4013672.1894531c.4404297,0,.5878906-.1269531.5878906-.5039062v-14.0048828h-5.0185547Z"/>
      <path class="cls-1" d="m124.1384997,141.7020219c.0419922.3779297.0205078.5039062.0634766.6503906-.0634766.2949219-.5673828.671875-1.1347656.671875-.2724609,0-.5039062-.2089844-.5039062-.4199219.1269531-1.8046875.1894531-2.7285156.2314453-5.4589844v-8.2089844c0-1.4277344-.0839844-3.1494141-.2724609-4.3046875l1.7421875.8193359h9.3007812l.3574219-.4833984c.1894531-.2304688.3359375-.4824219.5039062-.4824219.2519531,0,1.7011719,1.1337891,1.7011719,1.4492188-.1679688.1884766-.5253906.3769531-.9667969.4609375v10.9394531c.0429688,2.5195312.0839844,3.359375.1679688,4.9335938-.2089844.2734375-.8398438.6513672-1.34375.6513672-.2089844,0-.2929688-.2099609-.2929688-.4199219.0410156-.2099609.0410156-.3154297.0839844-.6513672v-.5449219h-9.6376953v.3984375Zm9.6376953-15.6425781h-9.6376953v4.3886719h9.6376953v-4.3886719Zm0,4.9980469h-9.6376953v4.4511719h9.6376953v-4.4511719Zm-9.6376953,9.6367188h9.6376953v-4.5566406h-9.6376953v4.5566406Z"/>
    </g>
    <g>
      <path class="cls-1" d="m76.9676013,47.4969438l.5039062-.7138672c.2734375-.3564453.4833984-.7138672.6513672-.7138672.2519531,0,1.8681641,1.3857422,1.8681641,1.7011719-.0625.2089844-.2519531.3144531-.5244141.3144531h-8.0419922v5.2910156c.0429688,2.5195312.0839844,3.359375.1679688,4.9335938-.1679688.3359375-.7558594.671875-1.3007812.671875-.2734375,0-.5039062-.2089844-.5039062-.4199219.125-1.8046875.1884766-2.7285156.2304688-5.4589844v-5.0175781h-4.9130859c-1.0917969.0214844-2.0996094.1259766-3.1494141.2939453l-.5458984-1.0498047c.9238281.1054688,1.8476562.1464844,2.7919922.1679688h5.8164062v-3.421875c0-1.4277344-.0839844-3.1503906-.2734375-4.3046875,2.4150391.671875,2.4150391.8818359,2.0371094,1.1542969l-.3574219.2519531v6.3203125h5.5429688Z"/>
      <path class="cls-1" d="m77.1570544,75.6141313c.2939453-.3769531.5253906-.7763672.6933594-.7763672.2519531,0,2.078125,1.5117188,2.078125,1.8271484-.0419922.2304688-.2734375.3359375-.5458984.3359375h-14.1513672c-1.0917969.0205078-2.0996094.125-3.1494141.2929688l-.5673828-1.0917969c.9238281.1054688,1.8476562.1474609,2.7929688.1679688h12.3037109l.5458984-.7558594Zm-1.8896484-11.6523438c.2724609-.3574219.5039062-.734375.671875-.734375.2519531,0,2.015625,1.4482422,2.015625,1.7636719-.0634766.2304688-.2939453.3359375-.5673828.3359375h-10.3085938c-1.0917969.0205078-2.0996094.125-3.1494141.2929688l-.5458984-1.0917969c.9238281.1054688,1.8476562.1474609,2.7929688.1679688h8.5869141l.5039062-.734375Z"/>
      <path class="cls-1" d="m66.8054919,93.5701859c-.4404297,2.8554688-1.6796875,5.5224609-4.8916016,7.4746094l-.2724609-.2724609c3.4638672-2.8349609,4.09375-6.5097656,4.09375-10.7714844v-3.6328125c0-1.2167969-.0625-2.7080078-.2304688-3.7158203l1.8046875.7763672h7.4541016l.2939453-.4404297c.1679688-.2099609.2939453-.4404297.4619141-.4404297.2519531,0,1.6376953,1.0488281,1.6376953,1.3642578-.1259766.1679688-.4619141.3564453-.8613281.4199219v14.6132812c0,1.1337891-.2519531,1.8681641-2.2880859,2.0791016-.0839844-.4414062-.2314453-.8193359-.5244141-1.0292969-.3574219-.2304688-.9667969-.4199219-1.9951172-.5664062v-.3359375s2.4355469.1884766,2.9394531.1884766c.4404297,0,.5244141-.1474609.5244141-.5039062v-5.2070312h-8.1464844Zm.2314453-3.5908203c0,1.0078125-.0419922,2.015625-.1474609,3.0029297h8.0625v-4.2197266h-7.9150391v1.2167969Zm7.9150391-5.9199219h-7.9150391v4.0722656h7.9150391v-4.0722656Z"/>
      <path class="cls-1" d="m64.6013903,120.2811234c.0419922.4199219.0205078.5673828.0634766.7353516-.0634766.2724609-.5253906.6289062-1.1347656.6289062-.2089844,0-.4404297-.2089844-.4404297-.4199219.1259766-1.8046875.1884766-2.7285156.2314453-5.4589844v-7.1796875c0-1.4277344-.0839844-3.1503906-.2734375-4.3046875l1.7011719.8183594h12.09375l.3359375-.4404297c.1884766-.2314453.3144531-.4619141.4824219-.4619141.2519531,0,1.5742188,1.0498047,1.5742188,1.3652344-.1464844.1679688-.4824219.3359375-.8808594.4199219v9.9941406c.0410156,2.5195312.0839844,3.359375.1679688,4.9335938-.1894531.2519531-.8193359.609375-1.28125.609375-.1894531,0-.2734375-.2109375-.2734375-.4199219.0429688-.2109375.0429688-.3359375.0839844-.671875v-.5673828h-12.4501953v.4199219Zm5.4589844-14.5712891h-5.4589844v6.2988281h5.4589844v-6.2988281Zm-5.4589844,6.8867188v6.65625h5.4589844v-6.65625h-5.4589844Zm12.4501953-6.8867188h-5.6474609v6.2988281h5.6474609v-6.2988281Zm-5.6474609,13.5429688h5.6474609v-6.65625h-5.6474609v6.65625Z"/>
      <path class="cls-1" d="m77.0310778,128.2215531l.3359375-.4414062c.1884766-.2089844.3154297-.4404297.4833984-.4404297.2519531,0,1.5957031,1.0283203,1.5957031,1.34375-.1269531.1679688-.4414062.3359375-.8613281.4199219v2.4150391c.0419922,2.3925781.0839844,3.1914062.1679688,4.6816406-.1894531.2304688-.8613281.5458984-1.3017578.5458984-.2314453,0-.3154297-.2099609-.3154297-.4199219.0429688-.2314453.0429688-.3564453.0839844-.7353516v-.5878906h-5.8574219v2.4990234c.0419922,2.4990234.0839844,3.3173828.1679688,4.8710938-.1679688.3154297-.7558594.671875-1.2597656.671875-.2734375,0-.4824219-.2099609-.4824219-.4199219.1044922-1.6376953.1679688-2.4560547.2089844-4.9345703v-2.6875h-5.8574219v.5039062c.0419922.5039062.0419922.671875.0839844.9033203-.0839844.2519531-.6298828.5673828-1.1972656.5673828-.1884766,0-.3359375-.2109375-.3359375-.4199219.0839844-1.0292969.1054688-1.5332031.1474609-3.0869141v-1.7636719c0-1.4277344-.0839844-3.1494141-.2724609-4.3037109l1.7207031.8183594h5.7109375v-.2304688c0-1.4277344-.0839844-3.1503906-.2724609-4.3046875,2.3515625.671875,2.3515625.8818359,1.9951172,1.1337891l-.3574219.2314453v3.1699219h5.6689453Zm-12.8916016,6.1523438h5.8574219v-5.5429688h-5.8574219v5.5429688Zm7.2226562,0h5.8574219v-5.5429688h-5.8574219v5.5429688Z"/>
      <path class="cls-1" d="m74.3640856,151.6990922c.2314453-.2519531.3994141-.5039062.5673828-.5039062.2519531,0,1.3857422,1.3017578,1.3857422,1.6162109-.1679688.1474609-.4199219.1894531-.8613281.2109375-.796875.6503906-2.1835938,1.4277344-3.3798828,2.0361328l.1259766.0205078c-.0419922.2949219-.2304688.4628906-.671875.5253906v1.4697266h5.5644531l.4609375-.6513672c.2519531-.3359375.4628906-.671875.6308594-.671875.2519531,0,1.7841797,1.3027344,1.7841797,1.6171875-.0634766.2304688-.2519531.3359375-.5244141.3359375h-7.9160156v4.2617188c0,1.1757812-.2519531,1.890625-2.3935547,2.0996094-.0839844-.4404297-.2099609-.796875-.5673828-1.0283203-.3564453-.2314453-.9863281-.4199219-2.0996094-.5878906v-.3154297s2.6669922.1894531,3.1708984.1894531c.3994141,0,.5244141-.1054688.5244141-.4619141v-4.1572266h-5.0175781c-1.0917969.0214844-2.0996094.1259766-3.1494141.2939453l-.5458984-1.0917969c.9238281.1044922,1.8476562.1474609,2.7929688.1679688h5.9199219c0-.7558594-.0410156-1.6796875-.1464844-2.3310547l1.2597656.2314453c.7558594-.6298828,1.7011719-1.4697266,2.3515625-2.1630859h-5.1015625c-1.0917969.0214844-2.0996094.1269531-3.1503906.2949219l-.5664062-1.0712891c.9238281.1044922,1.8476562.1474609,2.7929688.1679688h6.3398438l.4199219-.5039062Zm3.6113281-2.8974609c.2314453-.2519531.3994141-.5039062.5673828-.5039062.2519531,0,1.5751953,1.3222656,1.5751953,1.6376953-.1474609.1679688-.3789062.1884766-.7773438.2099609-.671875.7773438-1.8691406,1.7851562-2.7714844,2.3730469l-.2099609-.1679688c.3564453-.6513672.8818359-1.6796875,1.1962891-2.4785156h-13.3105469c.0205078,1.4492188-.5253906,2.4150391-1.1132812,2.8554688-.5039062.3994141-1.2177734.4628906-1.4697266.0214844-.1884766-.4619141.0634766-.8818359.4619141-1.1542969.8613281-.546875,1.5742188-2.0585938,1.4277344-3.6748047l.3574219-.0205078c.1464844.5039062.2519531.9648438.2929688,1.3847656h9.0078125c.1464844-.2304688.3144531-.4609375.4619141-.7128906.7353516-1.1757812,1.4697266-2.8144531,1.7636719-3.9472656,2.2880859.8808594,2.2880859,1.0917969,1.8896484,1.2167969l-.3984375.1054688c-.7353516,1.0498047-1.890625,2.3300781-3.0664062,3.3378906h3.7167969l.3984375-.4824219Zm-13.1425781-3.6533203c4.1357422,1.6376953,3.0019531,4.6396484,1.6582031,3.5908203-.1679688-1.1347656-1.0917969-2.6035156-1.8896484-3.4433594l.2314453-.1474609Zm4.4921875-.3779297c3.96875,1.9316406,2.5830078,4.9970703,1.28125,3.7792969-.0419922-1.1972656-.7773438-2.7089844-1.5332031-3.6328125l.2519531-.1464844Z"/>
      <path class="cls-1" d="m67.204906,170.2215531c.2314453-.2939453.3994141-.609375.5673828-.609375.2519531,0,1.5957031,1.1757812,1.5957031,1.4912109-.0634766.2314453-.2519531.3359375-.5253906.3359375h-2.8339844v2.2880859c4.0097656,1.9746094,2.9599609,4.7246094,1.7001953,3.6953125-.2314453-1.0078125-.9873047-2.2880859-1.7001953-3.2119141v5.2490234c.0410156,2.5195312.0839844,3.359375.1679688,4.9335938-.1679688.2949219-.7148438.609375-1.1972656.609375-.2519531,0-.4824219-.2099609-.4824219-.4199219.125-1.8056641.1884766-2.7294922.2304688-5.4589844v-3.9892578c-.7978516,1.9111328-1.8896484,3.6533203-3.296875,5.1435547l-.2929688-.2724609c1.6796875-2.3720703,2.7285156-5.4384766,3.3164062-8.5664062h-.9238281c-.5449219.0205078-1.0488281.1259766-1.5527344.2939453l-.5253906-1.0917969c.734375.1054688,1.4697266.1464844,2.2255859.1679688h1.0498047v-.8818359c0-1.4277344-.0839844-3.1494141-.2734375-4.3037109,2.2675781.671875,2.2675781.8808594,1.9111328,1.1328125l-.3564453.2314453v3.8212891h.796875l.3994141-.5878906Zm3.4853516,7.4326172c.1259766.2314453.0625.3994141-.0625.5244141l-.9238281-1.1123047c.5664062-.4199219,1.5527344-1.3017578,2.0996094-1.8476562l.2929688-.9033203.6933594.2949219-.609375.7763672-.0205078.0419922c.3994141,1.40625,1.0283203,2.6660156,1.8271484,3.7373047.125-.2099609.2519531-.4404297.3769531-.6513672.6513672-1.2167969,1.1552734-2.9179688,1.21875-4.09375,2.2246094.671875,2.2246094.8818359,1.8261719,1.0292969l-.3779297.125c-.4833984,1.5957031-1.2177734,3.1289062-2.2880859,4.5351562,1.5117188,1.6386719,3.421875,2.7714844,5.5,3.359375l-.0410156.2519531c-.5878906.2314453-.9238281.6933594-1.0507812,1.34375-2.015625-.8398438-3.7363281-2.2460938-5.0800781-4.15625-1.5546875,1.6796875-3.6953125,3.1279297-6.7402344,4.1357422l-.1679688-.2939453c2.8769531-1.1972656,4.8925781-2.8769531,6.2988281-4.8291016-.671875-1.1552734-1.2382812-2.4990234-1.6171875-3.9677734-.3769531.5878906-.8398438,1.3007812-1.1542969,1.7001953Zm7.2011719-8.9658203c.2314453-.3144531.3994141-.6289062.5673828-.6289062.2519531,0,1.6376953,1.2167969,1.6376953,1.5322266-.0419922.2314453-.2304688.3359375-.5039062.3359375h-7.6210938c-1.0917969.0205078-2.0996094.1259766-3.1503906.2939453l-.5244141-1.0917969c.9238281.1054688,1.8476562.1464844,2.7919922.1679688h2.2470703c0-1.1132812-.0634766-2.5195312-.2099609-3.4433594,2.1621094.6298828,2.1621094.8398438,1.8261719,1.0703125l-.3144531.2109375v2.1621094h2.8339844l.4199219-.609375Zm-4.7871094,3.1289062l-.3564453.0625c-.8193359,1.1972656-2.2880859,2.6875-3.9472656,3.6328125l-.2314453-.2734375c.3154297-.2929688.6308594-.6083984.9033203-.9443359.8818359-1.0712891,1.7216797-2.6240234,1.9736328-3.7998047l1.1132812.6923828c.9238281.3564453.9238281.5673828.5449219.6298828Zm2.2470703-.9023438c5.375,1.7841797,4.7236328,5.0800781,3.2119141,4.2197266-.5039062-1.34375-2.1621094-3.0439453-3.421875-4.03125l.2099609-.1884766Z"/>
    </g>
    <circle class="cls-3" cx="12.4479663" cy="12.4479663" r="10.9479663"/>
    <g>
      <path class="cls-1" d="m10.7693591,58.1912797c.2802734-.3642578.5039062-.7275391.7275391-.7275391.3359375,0,2.015625,1.4277344,2.015625,1.8476562-.0839844.3076172-.3359375.4482422-.6992188.4482422h-5.2636719v1.8193359c.0556641,1.7919922.0556641,2.4082031.1396484,3.4443359-.1679688.2802734-.7275391.7558594-1.5683594.7558594-.2802734,0-.4755859-.2802734-.4755859-.5595703.1113281-1.1484375.1396484-1.7080078.1953125-3.4443359v-2.015625h-1.8193359c-1.1201172.0273438-2.2119141.1679688-3.3037109.3916016l-.7001953-1.4560547c1.2314453.1396484,2.4638672.1962891,3.7236328.2236328h2.0996094v-3.1630859h-2.3515625v.7558594c0,.1953125-.7285156.6152344-1.3720703.6152344-.2802734,0-.4482422-.2792969-.4482422-.5595703.0839844-.9794922.1123047-1.484375.1679688-2.9677734v-1.7919922c0-1.7919922-.1113281-4.0039062-.3359375-5.4599609l2.1289062.9794922h2.2109375v-2.7998047h-1.8193359c-1.1201172.0283203-2.2119141.1679688-3.3037109.3925781l-.7001953-1.4287109c1.2314453.140625,2.4638672.1962891,3.7236328.2246094h2.0996094c0-1.2324219-.0556641-2.6884766-.2236328-3.7246094,2.828125.8398438,2.828125,1.1201172,2.3798828,1.4287109l-.4472656.2792969v2.0166016h2.6601562l.53125-.8125c.3085938-.3916016.5322266-.8115234.7558594-.8115234.3359375,0,2.0996094,1.5673828,2.0996094,1.9873047-.0546875.3085938-.2792969.4482422-.671875.4482422h-5.375v2.7998047h2.0996094l.4472656-.53125c.2519531-.2802734.4199219-.5605469.6445312-.5605469.3359375,0,2.0439453,1.2880859,2.0439453,1.7080078-.1679688.2236328-.6162109.4765625-1.1474609.5322266v2.5761719c.0556641,2.5751953.0839844,3.4160156.1953125,4.9833984-.2236328.3359375-1.0351562.7841797-1.6523438.7841797h-.2519531v-1.0634766h-2.3789062v3.1630859h2.7148438l.5048828-.7275391Zm-.8408203-10.0244141H3.4890856v2.96875h6.4394531v-2.96875Zm-6.4394531,3.7802734v2.9960938h6.4394531v-2.9960938H3.4890856Zm12.6835938,3.2197266c-.4472656,4.0048828-1.7910156,7.8681641-5.9355469,10.6123047l-.3632812-.3359375c4.0878906-3.7236328,4.7871094-8.5400391,4.7871094-14.0283203v-4.9833984c0-1.6806641-.0839844-3.7519531-.3076172-5.1240234l2.3232422,1.0361328h4.8447266l.3916016-.5878906c.2246094-.3085938.3642578-.6162109.5878906-.6162109.3359375,0,2.2675781,1.4277344,2.2675781,1.8476562-.1953125.2802734-.6992188.5039062-1.2871094.6162109v19.4882812c0,1.4277344-.3085938,2.3515625-2.8007812,2.6318359-.0546875-.5605469-.2236328-1.0361328-.5878906-1.2880859-.4199219-.3085938-1.1191406-.5322266-2.3232422-.7001953v-.4482422s2.7724609.2246094,3.3310547.2246094c.5332031,0,.6728516-.1679688.6728516-.6445312v-7.7001953h-5.6005859Zm.140625-3.8076172c0,.9804688-.0283203,1.9882812-.1123047,2.9960938h5.5722656v-5.3476562h-5.4599609v2.3515625Zm5.4599609-8.1757812h-5.4599609v5.0117188h5.4599609v-5.0117188Z"/>
      <path class="cls-1" d="m6.2898669,91.6229203c.0546875.5878906.0273438.7841797.0839844,1.0087891-.0839844.4199219-.7285156.8955078-1.5683594.8955078-.2802734,0-.5878906-.2802734-.5878906-.5595703.1679688-2.4082031.2519531-3.640625.3076172-7.2802734v-10.1923828c0-1.9033203-.1123047-4.1992188-.3642578-5.7392578l2.296875,1.1191406h12.0957031l.4472656-.6152344c.2519531-.3085938.4482422-.6162109.671875-.6162109.3359375,0,2.1289062,1.4277344,2.1289062,1.8476562-.1962891.2246094-.6171875.4199219-1.1484375.5322266v13.9160156c.0566406,3.3603516.1113281,4.4794922.2246094,6.5800781-.2519531.3359375-1.1210938.8681641-1.7929688.8681641-.2519531,0-.3632812-.2802734-.3632812-.5605469.0556641-.3359375.0556641-.5039062.1113281-1.0078125v-.7841797H6.2898669v.5878906Zm12.5429688-19.9355469H6.2898669v8.6796875h12.5429688v-8.6796875Zm-12.5429688,18.5361328h12.5429688v-9.0439453H6.2898669v9.0439453Z"/>
      <path class="cls-1" d="m20.7371325,106.3514359c.4199219-.5878906.7558594-1.1757812.9804688-1.1757812.3359375,0,3.0800781,2.4072266,3.0800781,2.828125-.0839844.3359375-.3925781.4472656-.8125.4472656H5.0847888c-1.4550781.0283203-2.7998047.1679688-4.1992188.3925781l-.7841797-1.5683594c1.2314453.1396484,2.4638672.1962891,3.7236328.2236328h16.1279297l.7841797-1.1474609Z"/>
      <path class="cls-1" d="m5.1970935,127.9676469c-1.4560547.0273438-2.7998047.1679688-4.2001953.3916016l-.7558594-1.3994141c1.2324219.1396484,2.4648438.1953125,3.7246094.2236328h16.5761719l.671875-.9521484c.3632812-.4755859.6435547-.9521484.8671875-.9521484.3359375,0,2.6035156,1.8486328,2.6035156,2.2685547-.0839844.2792969-.3632812.4199219-.7275391.4199219h-10.2763672v18.7880859c0,1.5117188-.3632812,2.6318359-3.3027344,2.9111328-.0839844-.5878906-.3085938-1.0917969-.7568359-1.3720703-.5595703-.3632812-1.4560547-.6152344-3.0517578-.8115234v-.4199219s3.7792969.2519531,4.5361328.2519531c.5878906,0,.7841797-.1679688.7841797-.671875v-18.6757812h-6.6923828Z"/>
      <path class="cls-1" d="m6.1765856,175.9588578c.0566406.5048828.0292969.6728516.0839844.8681641-.0839844.3925781-.7558594.8964844-1.5117188.8964844-.3632812,0-.671875-.2802734-.671875-.5605469.1679688-2.4072266.2519531-3.6396484.3085938-7.2792969v-10.9482422c0-1.9042969-.1123047-4.2001953-.3642578-5.7402344l2.3232422,1.0917969h12.4042969l.4765625-.6435547c.2519531-.3076172.4472656-.6445312.671875-.6445312.3359375,0,2.2675781,1.5126953,2.2675781,1.9326172-.2236328.2519531-.6992188.5039062-1.2871094.6162109v14.5878906c.0546875,3.359375.1113281,4.4794922.2226562,6.5800781-.2792969.3632812-1.1191406.8671875-1.7910156.8671875-.2802734,0-.3925781-.2792969-.3925781-.5595703.0566406-.2802734.0566406-.4199219.1123047-.8681641v-.7275391H6.1765856v.53125Zm12.8525391-20.859375H6.1765856v5.8515625h12.8525391v-5.8515625Zm0,6.6640625H6.1765856v5.9355469h12.8525391v-5.9355469Zm-12.8525391,12.8515625h12.8525391v-6.0761719H6.1765856v6.0761719Z"/>
    </g>
    <g>
      <path class="cls-1" d="m409.5945544,41.3084672c2.96875.8398438,2.96875,1.1191406,2.4921875,1.4550781l-.4765625.3085938v8.0634766c-.0273438,5.4326172-.9238281,11.0322266-5.2070312,14.6162109l-.3925781-.3359375c3.2480469-3.7802734,3.8925781-9.015625,3.8925781-14.2802734v-4.84375c0-1.5966797-.0839844-3.6396484-.3085938-4.9833984Zm8.2324219,6.7480469c0-1.8486328-.1123047-4.2011719-.3642578-5.7402344,3.0517578.8671875,3.0517578,1.1474609,2.5478516,1.4833984l-.4755859.3076172v11.4238281c.0556641,3.3613281.1123047,4.4804688.2236328,6.5800781-.2236328.3652344-.9511719.7851562-1.6240234.7851562-.3076172,0-.5595703-.28125-.5595703-.5605469.1396484-2.0722656.1953125-3.1074219.2519531-6.2441406v-8.0351562Zm8.484375-1.0644531c0-1.8476562-.1132812-4.2001953-.3652344-5.7402344,3.0800781.8681641,3.0800781,1.1484375,2.6044922,1.484375l-.4482422.3076172v15.2314453c.0566406,3.3603516.1123047,4.4804688.2246094,6.5800781-.2246094.3925781-.9804688.8681641-1.6523438.8681641-.3632812,0-.671875-.2802734-.671875-.5595703.1679688-2.4082031.2519531-3.640625.3085938-7.2802734v-10.8916016Z"/>
      <path class="cls-1" d="m410.7703356,90.5877641c.0566406.7832031.0566406,1.0634766.1123047,1.4277344-.1123047.3632812-.7841797.8115234-1.5400391.8115234-.3359375,0-.6435547-.2802734-.6435547-.5595703.1679688-2.4082031.2519531-3.640625.3076172-7.2802734v-7.5595703c0-1.9042969-.1113281-4.2001953-.3632812-5.7402344l2.2949219,1.0917969h14.7285156l1.0644531-1.3164062c2.4628906,1.8486328,2.4628906,2.1289062,1.7353516,2.4082031l-.7001953.2519531v11.0878906c.0566406,3.3603516.1123047,4.4804688.2246094,6.5800781-.2802734.3085938-1.1484375.7558594-1.7929688.7558594-.1953125,0-.3066406-.2792969-.3066406-.5595703.0546875-.4199219.0546875-.6435547.1113281-1.2880859v-.9238281h-15.2324219v.8125Zm0-1.625h15.2324219v-15.34375h-15.2324219v15.34375Z"/>
      <path class="cls-1" d="m407.6902575,112.9315141c1.625,7.9511719-2.9667969,7.1113281-1.6513672,4.984375.7558594-.9248047,1.2041016-2.7167969,1.2314453-4.984375h.4199219Zm7.7285156-7.8681641c.2519531-.3359375.4482422-.671875.671875-.671875.3359375,0,1.8476562,1.3154297,1.8476562,1.7353516-.0839844.3085938-.3359375.4492188-.671875.4492188h-4.03125v3.0791016h2.3515625l.4199219-.5039062c.2246094-.2519531.3925781-.5322266.6162109-.5322266.3359375,0,1.8193359,1.2041016,1.8193359,1.625-.1953125.2226562-.5039062.3359375-1.0351562.4199219-.2802734,5.515625-.9804688,8.3710938-2.0449219,9.3232422-.6435547.5878906-1.4833984.8115234-2.4072266.8115234,0-.4472656-.0839844-.8955078-.3359375-1.1474609-.2802734-.2519531-1.0087891-.4482422-1.7080078-.5878906v-.4755859c.8125.0556641,2.0722656.1679688,2.5478516.1679688.4482422,0,.6435547-.0566406.8955078-.2519531.671875-.6171875,1.2050781-3.2207031,1.484375-8.0371094h-6.7480469v.8964844c0,.140625-.5039062.5878906-1.3164062.5878906-.2519531,0-.5039062-.2792969-.5039062-.5595703.140625-1.8203125.1962891-2.7441406.2519531-5.4882812v-3.0517578c0-1.9042969-.1113281-4.2001953-.3632812-5.7402344l2.2675781.9804688h5.7128906l.53125-.7285156c.2802734-.3632812.5039062-.7285156.7285156-.7285156.3359375,0,2.0722656,1.4287109,2.0722656,1.8486328-.0839844.3076172-.3369141.4482422-.7011719.4482422h-4.5351562v2.9677734h1.8476562l.4199219-.671875c.2519531-.3359375.4199219-.7001953.6445312-.7001953.3359375,0,1.875,1.3164062,1.875,1.7363281-.0556641.3076172-.3359375.4472656-.671875.4472656h-4.1152344v3.0244141h1.7363281l.4472656-.671875Zm-6.1318359,7.5878906c2.5751953,3.5839844.9238281,6.5800781-.1679688,5.1806641.2802734-1.625.0839844-3.7246094-.2519531-5.0683594l.4199219-.1123047Zm2.4072266-13.7197266h-2.6035156v2.9677734h2.6035156v-2.9677734Zm0,6.8037109v-3.0244141h-2.6035156v3.0244141h2.6035156Zm-2.6035156.8408203v3.0791016h2.6035156v-3.0791016h-2.6035156Zm1.7636719,5.5996094c3.4443359,2.7441406,2.0722656,5.5429688.8964844,4.3115234,0-1.2880859-.671875-3.0517578-1.2324219-4.1435547l.3359375-.1679688Zm1.7089844-.6162109c3.7519531,1.3720703,2.6035156,4.2001953,1.34375,3.1640625-.1679688-.9794922-.9521484-2.2402344-1.6796875-2.9404297l.3359375-.2236328Zm15.4550781-14.0283203c.2519531-.3076172.4199219-.6435547.6445312-.6435547.3359375,0,2.015625,1.4560547,2.015625,1.8759766-.1396484.2236328-.5878906.4472656-1.1191406.53125v3.1923828c.0546875,3.1640625.1113281,4.2275391.2226562,6.1884766-.2519531.3076172-1.1191406.7275391-1.6513672.7275391-.2519531,0-.3642578-.2802734-.3642578-.5595703.0566406-.140625.0566406-.2246094.1123047-.4765625v-.53125h-4.2558594c1.1474609,5.2070312,3.6123047,9.9960938,7.4755859,11.9550781l-.0556641.3085938c-.671875.1396484-1.2607422.6992188-1.5126953,1.6230469-3.7226562-2.7714844-5.515625-7.53125-6.4394531-13.8867188h-1.6796875c-.1123047,4.7597656-.7841797,10.1640625-4.7880859,13.9160156l-.4199219-.28125c3.1357422-4.1992188,3.5-9.546875,3.5-14.8945312v-4.6767578c0-1.5673828-.0839844-3.5-.3076172-4.7880859l2.3232422,1.0361328h5.8798828l.4199219-.6162109Zm-6.6074219,9.015625v.4492188h6.4677734v-8.0371094h-6.4677734v7.5878906Z"/>
      <path class="cls-1" d="m425.1345935,130.9637406c.2519531-.3359375.4482422-.671875.6728516-.671875.3359375,0,2.0712891,1.5117188,2.0712891,1.9326172-.1679688.2226562-.5878906.4199219-1.1201172.53125v2.8007812c.0566406,2.7988281.0839844,3.7226562.1962891,5.4316406-.2236328.3076172-1.1201172.7558594-1.7363281.7558594-.2802734,0-.3642578-.2802734-.3642578-.5605469.0566406-.1113281.0283203-.1953125.0839844-.3916016v-.4755859h-5.1230469c2.4921875,3.1640625,7.0839844,5.7109375,11.2275391,6.7753906l-.0556641.3085938c-.7285156.1113281-1.34375.7275391-1.5683594,1.5673828-4.0605469-1.5673828-7.9521484-4.5917969-10.1640625-8.5117188v2.8837891c.0566406,2.8554688.0839844,3.8085938.1962891,5.5722656-.1962891.3916016-.9521484.8398438-1.6523438.8398438-.3642578,0-.5878906-.2802734-.5878906-.5605469.1123047-1.5673828.1679688-2.3515625.2236328-4.7314453v-2.6601562c-2.7158203,3.1357422-6.6357422,5.6845703-11.0878906,7.3642578l-.2519531-.4765625c4.171875-2.0429688,7.8681641-5.1230469,10.1367188-8.3710938h-4.3691406v1.0078125c0,.1679688-.7832031.5878906-1.4833984.5878906-.2802734,0-.4482422-.2802734-.4482422-.5605469.0839844-1.0634766.1123047-1.5957031.1679688-3.1914062v-1.8769531c0-1.9033203-.1113281-4.1992188-.3632812-5.7392578l2.2958984,1.0634766h5.4033203v-2.9394531h-6.1035156c-1.4560547.0273438-2.7998047.1679688-4.2001953.3925781l-.7001953-1.4287109c1.2324219.1396484,2.4648438.1962891,3.7246094.2236328h7.2792969c0-1.2597656-.0839844-2.8554688-.2519531-3.9199219,2.9960938.8964844,2.9960938,1.1757812,2.5205078,1.5117188l-.4482422.3085938v2.0996094h6.9433594l.6445312-.9238281c.3642578-.4472656.6445312-.9238281.8681641-.9238281.3359375,0,2.5205078,1.7919922,2.5205078,2.2119141-.0566406.3076172-.3652344.4482422-.7285156.4482422h-10.2480469v2.9394531h5.4316406l.4482422-.6435547Zm-7.7001953,1.4560547h-5.5722656v3.0800781h5.5722656v-3.0800781Zm-5.5722656,3.8925781v3.1640625h5.5722656v-3.1640625h-5.5722656Zm13.0761719-3.8925781h-5.6835938v3.0800781h5.6835938v-3.0800781Zm-5.6835938,7.0566406h5.6835938v-3.1640625h-5.6835938v3.1640625Z"/>
      <path class="cls-1" d="m410.7703356,174.5877641c.0566406.7832031.0566406,1.0634766.1123047,1.4277344-.1123047.3632812-.7841797.8115234-1.5400391.8115234-.3359375,0-.6435547-.2802734-.6435547-.5595703.1679688-2.4082031.2519531-3.640625.3076172-7.2802734v-7.5595703c0-1.9042969-.1113281-4.2001953-.3632812-5.7402344l2.2949219,1.0917969h14.7285156l1.0644531-1.3164062c2.4628906,1.8486328,2.4628906,2.1289062,1.7353516,2.4082031l-.7001953.2519531v11.0878906c.0566406,3.3603516.1123047,4.4804688.2246094,6.5800781-.2802734.3085938-1.1484375.7558594-1.7929688.7558594-.1953125,0-.3066406-.2792969-.3066406-.5595703.0546875-.4199219.0546875-.6435547.1113281-1.2880859v-.9238281h-15.2324219v.8125Zm0-1.625h15.2324219v-15.34375h-15.2324219v15.34375Z"/>
    </g>
  </g>
</svg>