<?xml version="1.0" encoding="UTF-8"?>
<svg id="_レイヤー_2" data-name="レイヤー 2" xmlns="http://www.w3.org/2000/svg" viewBox="0 0 666.4430279 57.1635233">
  <defs>
    <style>
      .cls-1 {
        fill: #6bb949;
      }

      .cls-1, .cls-2, .cls-3, .cls-4 {
        stroke-width: 0px;
      }

      .cls-2 {
        fill: #eaaa1e;
      }

      .cls-3 {
        fill: #308bcc;
      }

      .cls-5 {
        fill: none;
        stroke: #000;
        stroke-miterlimit: 10;
        stroke-width: .9216725px;
      }

      .cls-4 {
        fill: #fff;
      }
    </style>
  </defs>
  <g id="_フレーム" data-name="フレーム">
    <g>
      <g>
        <rect class="cls-3" width="186.827125" height="57.1635233"/>
        <g>
          <path class="cls-4" d="m34.9216948,25.3688553h-9.9121094v-3.4858398h10.5654297v-5.8818359h3.9213867v5.8818359h10.565918v3.4858398h-9.9121094c.7978516,2.5424805,1.9960938,4.8300781,3.5942383,6.8618164,1.5966797,1.9609375,3.8481445,3.7412109,6.753418,5.3374023l-2.6142578,3.7036133c-2.4692383-1.1625977-4.6123047-2.940918-6.4262695-5.3374023-1.0180664-1.0161133-2.2875977-3.1210938-3.8125-6.3173828-.9448242,2.7602539-2.2875977,5.0102539-4.0302734,6.7529297-1.4536133,1.9609375-3.4853516,3.5947266-6.0996094,4.9018555l-2.7231445-3.7036133c2.3959961-1.0893555,4.4658203-2.6142578,6.2084961-4.574707,2.0322266-2.25,3.3393555-4.7924805,3.9213867-7.6245117Zm-.4355469,10.456543l3.1586914-1.8515625c.4355469.3642578,1.0161133,1.0532227,1.7426758,2.0693359.6538086.9448242,1.125,1.7070312,1.4160156,2.2875977l-3.1586914,1.9604492c-.1464844-.4355469-.5449219-1.1264648-1.1982422-2.0693359-.7998047-1.1606445-1.4536133-1.9609375-1.9604492-2.3964844Z"/>
          <path class="cls-4" d="m61.9348784,28.5275468v-1.7426758h15.9033203v3.1586914h-9.6943359l-.6538086.8710938h10.2392578l-.109375,3.050293-.3266602,4.1391602c-.1464844,2.1782227-1.1264648,3.2675781-2.940918,3.2675781h-2.940918l-1.1982422-2.8320312c-.4355469.4355469-1.0893555.9804688-1.9604492,1.6337891-1.0893555.871582-2.0336914,1.4516602-2.8320312,1.7426758l-2.3964844-2.2871094c1.5249023-.4360352,3.0498047-1.3071289,4.574707-2.6142578,1.1611328-1.0161133,1.996582-1.996582,2.5053711-2.940918h-1.0893555c-.5820312.9443359-1.5249023,1.9980469-2.8320312,3.1586914-1.1621094,1.0175781-2.6142578,1.8515625-4.3569336,2.5053711l-2.1782227-2.2875977c1.1606445-.2890625,2.3232422-.7983398,3.4853516-1.5249023,1.1606445-.7250977,1.8876953-1.3427734,2.1787109-1.8515625h-.7626953c-.1464844.2177734-.5820312.5820312-1.3071289,1.0888672-.7265625.5825195-1.3071289.9091797-1.7426758.9804688l-1.4160156-1.6337891c0,.0732422-.2177734.2177734-.6533203.4355469-.3642578.2177734-.7270508.3271484-1.0893555.3271484l-.9804688-2.8320312v8.9316406h-3.8125v-24.3989258h6.4267578l.2177734-.3271484,2.7231445,2.1787109-2.1787109,6.2084961c.2895508.4360352.5449219,1.0180664.7626953,1.7431641.2895508.8710938.4355469,1.4887695.4355469,1.8515625Zm-3.1586914-8.0605469h-1.4160156v3.8125c.2177734-.4355469.6894531-1.7055664,1.4160156-3.8125Zm-1.4160156,5.0107422v5.7729492c.5073242-.0717773.871582-.3266602,1.0893555-.7626953.1445312-.3623047.1801758-.7983398.1088867-1.3071289-.2177734-1.4516602-.6176758-2.6855469-1.1982422-3.703125Zm4.574707,6.644043c.2895508-.1445312.7250977-.4711914,1.3071289-.9799805.6538086-.5805664,1.0161133-.9804688,1.0893555-1.1982422h-2.1787109c.2182617,1.0175781.1450195,1.7426758-.2177734,2.1782227Zm1.3071289-6.2084961v-9.0405273h12.8530273v9.0405273h-12.8530273Zm3.7036133-5.6640625h5.3374023v-.6538086h-5.3374023v.6538086Zm0,2.940918h5.3374023v-.6533203h-5.3374023v.6533203Zm6.6445312,10.7836914c-.800293,1.453125-1.6713867,2.6513672-2.6142578,3.5942383h1.1982422c.7246094,0,1.125-.4711914,1.1977539-1.4160156l.2182617-2.1782227Z"/>
          <path class="cls-4" d="m101.8015776,32.7755936l4.0302734,1.3071289-.3271484,3.703125c-.0727539,1.1611328-.3637695,1.996582-.8710938,2.5053711-.5087891.5073242-1.3803711.7626953-2.6142578.7626953h-4.7924805c-1.3803711,0-2.3251953-.2553711-2.8320312-.7626953-.5092773-.4355469-.7626953-1.2353516-.7626953-2.3964844v-8.8227539h-1.7426758c-.0732422,3.3408203-.6176758,5.7729492-1.6337891,7.2978516-1.4536133,2.3232422-3.5947266,4.065918-6.4267578,5.2285156l-3.0498047-3.7036133c1.9604492-.6533203,3.4853516-1.4516602,4.574707-2.3959961,1.5966797-1.3789062,2.3964844-3.5214844,2.3964844-6.4267578h-6.9711914v-3.5942383h10.456543v-9.4765625h4.1391602v9.4765625h10.4570312v3.5942383h-8.387207v7.2978516c0,.7270508.3979492,1.0893555,1.1982422,1.0893555h2.1782227c.5805664,0,.871582-.3979492.871582-1.1982422.0712891-.9428711.1088867-2.1049805.1088867-3.4853516Zm-15.5761719-15.140625c.4355469.3642578,1.0893555,1.2714844,1.9604492,2.7231445.7983398,1.3071289,1.3427734,2.324707,1.6337891,3.0498047l-3.3764648,1.8520508c-.3642578-.7983398-.9448242-1.8144531-1.7426758-3.050293-.871582-1.3071289-1.5625-2.1782227-2.0698242-2.6142578l3.5947266-1.9604492Zm17.4277344,1.8515625c-.2910156.9448242-.7998047,1.9609375-1.5249023,3.050293-.7265625,1.1621094-1.4536133,2.0336914-2.1782227,2.6137695l-3.3769531-1.7426758c1.7426758-1.7426758,2.8676758-3.703125,3.3769531-5.8818359l3.703125,1.9604492Z"/>
          <path class="cls-4" d="m111.713687,23.843953l-2.1782227-2.5053711,2.8320312-2.5053711,1.0888672,1.1982422v-3.1586914h7.0800781l.4360352.6533203,1.1977539-.871582c.7983398.9448242,1.4160156,1.5981445,1.8520508,1.9609375l1.6337891-2.1787109,3.1586914,1.8520508-2.0693359,2.940918.8710938.6533203,2.1787109-3.0498047,3.1586914,1.9604492-2.0693359,3.050293c.5068359.5087891,1.6337891.9799805,3.3764648,1.4160156l-1.9604492,3.9208984c-1.3071289-.2177734-2.6518555-.8339844-4.0302734-1.8515625v.871582h-2.940918v1.7426758h7.6245117v3.4853516h-7.6245117v2.940918c0,.5092773.2890625.7626953.8710938.7626953h2.6142578c.2895508.0732422.5073242-.871582.6538086-2.8320312l4.0302734,1.4160156c-.1464844,1.815918-.4731445,3.1943359-.9804688,4.1391602-.4355469.7983398-1.1625977,1.1982422-2.1787109,1.1982422h-6.2084961c-.7265625,0-1.3447266-.2177734-1.8515625-.6538086-.5092773-.3642578-.7626953-.9086914-.7626953-1.6337891v-5.3374023h-1.7426758c-.4360352,2.3251953-1.4160156,4.1767578-2.940918,5.5551758-1.5981445,1.4516602-3.6323242,2.3588867-6.1000977,2.7231445l-2.0693359-3.703125c1.7426758-.2182617,3.3393555-.7626953,4.7924805-1.6342773,1.3071289-.7978516,2.0322266-1.7783203,2.1787109-2.940918h-6.2089844v-3.4853516h6.6445312v-1.7426758h-1.9604492v-.871582c-.871582.7265625-2.2158203,1.3447266-4.0302734,1.8515625l-1.7426758-4.0302734c1.9604492-.4355469,3.0854492-.8710938,3.3764648-1.3066406Zm2.2875977-3.2680664l1.3071289,1.1982422c.4355469-.1445312.9799805-.5444336,1.6337891-1.1982422h-2.940918Zm3.9208984,4.0302734h6.6445312c-1.3071289-.871582-2.3964844-1.8515625-3.2675781-2.940918-.2910156.3642578-.7998047.871582-1.5249023,1.5249023-.871582.7265625-1.4892578,1.1982422-1.8520508,1.4160156Zm2.0698242,5.3374023h1.5249023v-1.7426758h-1.5249023v1.7426758Z"/>
          <path class="cls-4" d="m136.9841948,27.0026444v-6.6445312h10.0209961v-.9804688h-8.8227539v-2.8320312h21.6757812v2.8320312h-8.8227539v.9804688h10.0209961v6.6445312h-3.8120117v-3.9213867h-6.2089844v5.0107422h-4.0302734v-5.0107422h-6.2084961v3.9213867h-3.8125Zm21.3491211,13.9423828h-8.6049805c-1.815918,0-2.7231445-.6181641-2.7231445-1.8520508v-1.9604492h-4.2480469v1.5249023h-3.8120117v-10.0209961h20.2597656v6.8623047l2.7231445.762207c-.1464844,1.5981445-.4355469,2.7231445-.871582,3.3769531-.5820312.8710938-1.4892578,1.3071289-2.7231445,1.3071289Zm-16.9921875-15.4672852v-1.7431641h5.0107422v1.7431641h-5.0107422Zm0,.6533203h5.0107422v1.9609375h-5.0107422v-1.9609375Zm1.4160156,5.7729492h4.2480469v-.762207h-4.2480469v.762207Zm0,2.7231445h4.2480469v-.762207h-4.2480469v.762207Zm9.2587891,3.7036133h4.9013672c.4360352,0,.7250977-.3984375.871582-1.1982422h-6.753418v.3266602c-.1464844.7265625.1806641,1.0180664.9804688.871582Zm-.9804688-6.4267578h4.3569336v-.762207h-4.3569336v.762207Zm0,2.7231445h4.3569336v-.762207h-4.3569336v.762207Zm.6538086-9.1494141v-1.7431641h5.1191406v1.7431641h-5.1191406Zm0,2.6142578v-1.9609375h5.1191406v1.9609375h-5.1191406Z"/>
        </g>
      </g>
      <g>
        <rect class="cls-2" x="238.4137192" width="186.827125" height="57.1635233"/>
        <g>
          <path class="cls-4" d="m263.5315581,20.4669999v-3.2675781h6.3173828v-1.0893555h3.8125v1.0893555h4.574707v-1.0893555h3.8125v1.0893555h6.2089844v3.2675781h-6.2089844v1.0893555h-3.8125v-1.0893555h-4.574707v1.0893555h-3.8125v-1.0893555h-6.3173828Zm18.081543,5.7729492l-2.0698242,2.0698242,2.0698242-.1088867-.7626953-.7626953,2.7231445-2.0693359c.871582.6533203,2.3588867,2.2158203,4.4658203,4.6835938l-1.9604492,1.9604492v9.2587891h-3.8125v-.6538086h-12.5263672v.6538086h-3.8120117v-9.2587891h19.2792969l-.9799805-1.0888672-8.1694336.3266602-11.6547852.3266602-.2182617-3.1586914h4.7929688l-2.3964844-1.7426758,2.1787109-1.6342773h-5.2285156v-3.0498047h10.456543v-.9804688h3.8125v.9804688h10.4570312v3.0498047h-8.4960938l1.8515625,1.1982422Zm-11.8730469,9.0410156h4.2480469v-.9804688h-4.2480469v.9804688Zm0,3.0498047h4.2480469v-.9804688h-4.2480469v.9804688Zm.2182617-13.2890625l1.4160156.9804688,1.0888672-.9804688h-2.5048828Zm4.2480469,2.940918l.5444336.3271484,3.4853516-3.2680664h-1.1977539l-2.8320312,2.940918Zm3.8120117,7.2983398h4.2480469v-.9804688h-4.2480469v.9804688Zm0,3.0498047h4.2480469v-.9804688h-4.2480469v.9804688Z"/>
          <path class="cls-4" d="m291.7429838,27.0026444v-6.6445312h10.0209961v-.9804688h-8.8227539v-2.8320312h21.6757812v2.8320312h-8.8227539v.9804688h10.0209961v6.6445312h-3.8120117v-3.9213867h-6.2089844v5.0107422h-4.0302734v-5.0107422h-6.2084961v3.9213867h-3.8125Zm21.3491211,13.9423828h-8.6049805c-1.815918,0-2.7231445-.6181641-2.7231445-1.8520508v-1.9604492h-4.2480469v1.5249023h-3.8120117v-10.0209961h20.2597656v6.8623047l2.7231445.762207c-.1464844,1.5981445-.4355469,2.7231445-.871582,3.3769531-.5820312.8710938-1.4892578,1.3071289-2.7231445,1.3071289Zm-16.9921875-15.4672852v-1.7431641h5.0107422v1.7431641h-5.0107422Zm0,.6533203h5.0107422v1.9609375h-5.0107422v-1.9609375Zm1.4160156,5.7729492h4.2480469v-.762207h-4.2480469v.762207Zm0,2.7231445h4.2480469v-.762207h-4.2480469v.762207Zm9.2587891,3.7036133h4.9013672c.4360352,0,.7250977-.3984375.871582-1.1982422h-6.753418v.3266602c-.1464844.7265625.1806641,1.0180664.9804688.871582Zm-.9804688-6.4267578h4.3569336v-.762207h-4.3569336v.762207Zm0,2.7231445h4.3569336v-.762207h-4.3569336v.762207Zm.6538086-9.1494141v-1.7431641h5.1191406v1.7431641h-5.1191406Zm0,2.6142578v-1.9609375h5.1191406v1.9609375h-5.1191406Z"/>
          <path class="cls-4" d="m331.3919096,19.2687577v3.4858398l1.8515625-.3266602v-6.1000977h3.8125v5.3374023l2.7226562-.5444336v-.3271484l3.7041016,1.0893555-.109375,4.4658203-.109375,3.7036133c-.0722656,1.9604492-1.0175878,2.940918-2.8320312,2.940918h-2.2871094l-.8710938-3.5947266c1.1601562,0,1.8144531-.1088867,1.9609375-.3266602.1445312-.5800781.2529297-1.4160156.3261719-2.5053711l.109375-1.6337891-2.6142578.4360352v10.8920898h-3.9213867v-10.0209961l-1.7426758.3266602v9.8032227c0,.800293.3266602,1.1269531.9799805.9804688h7.2983398c.3623047,0,.6533203-1.1982422.8710938-3.5942383l3.8125.8710938c-.1464844,2.0336914-.3642578,3.449707-.6533203,4.2480469-.5820312,1.378418-1.5986328,2.0698242-3.0498047,2.0698242h-9.5859375c-2.3959961,0-3.5942383-1.0893555-3.5942383-3.2680664v-10.456543l-2.0698242.4355469-.1088867-.3266602-1.8515625,2.7231445c-.4355469-.5073242-1.0175781-1.0161133-1.7426758-1.5249023-1.0893555-.7983398-1.9980469-1.3071289-2.7231445-1.5249023l2.0693359-3.1586914c.6538086.2177734,1.4516602.6533203,2.3964844,1.3066406.9428711.5820312,1.5249023,1.0537109,1.7426758,1.4160156l-.4355469-2.6137695,2.7231445-.4360352v-4.2480469h3.9213867Zm-12.4174805,19.2797852c1.7426758-1.9604492,2.8676758-4.4287109,3.3764648-7.4067383l3.3769531,1.8515625c-.6538086,3.5585938-1.8891602,6.2802734-3.7036133,8.1694336l-3.0498047-2.6142578Zm.6533203-19.2797852l2.1787109-3.0498047c.5800781.2177734,1.3427734.6538086,2.2871094,1.3071289.9428711.6533203,1.6342773,1.2358398,2.0698242,1.7426758l-2.0698242,3.2680664c-.3642578-.5073242-1.0532227-1.125-2.0693359-1.8520508-1.0175781-.7250977-1.815918-1.1982422-2.3964844-1.4160156Z"/>
          <path class="cls-4" d="m346.5325346,27.3293046c1.5244141-1.8144531,2.6855469-3.5947266,3.4853516-5.3374023,1.0888672-2.3964844,1.7431641-4.4282227,1.9609375-6.0996094l3.703125.8710938c-.2910156,1.5981445-.8359375,3.1591797-1.6337891,4.684082v19.9331055h-3.9208984v-12.3085938c-.0732422.2910156-.3642578.7626953-.8720703,1.4160156-.5087989.7270508-.8710938,1.1625977-1.0888672,1.3071289l-1.6337891-4.4658203Zm19.7148438,13.8334961h-4.6835938l-1.0888672-3.9213867h2.9404297c.7255859,0,1.0898438-.3984375,1.0898438-1.1982422v-10.6743164h-9.6943359v-3.5947266h9.6943359v-5.9907227h4.1386719v5.9907227h3.4853516v3.5947266h-3.4853516v13.0708008c0,1.8139648-.7998047,2.7231445-2.3964844,2.7231445Zm-10.0205078-13.0708008l3.3759766-1.6342773c.3632812.4360352.9433594,1.3447266,1.7431641,2.7231445.7978516,1.4536133,1.3066406,2.5429688,1.5253804,3.2680664l-3.2685445,1.6337891c-.4355469-1.8876953-1.5615234-3.8837891-3.3759766-5.9907227Z"/>
          <path class="cls-4" d="m377.2493315,25.9132889c3.3388672-.3623047,6.6064453-.7626953,9.8027344-1.1982422l-.7626953-1.3071289c-2.1777344.4360352-4.6113281.7270508-7.2978516.871582l-.5439453-3.5947266c3.0498047-.1445312,5.2285156-.3266602,6.5351562-.5444336-.2910156-.5805664-.6533203-1.5605469-1.0888672-2.940918l4.2480469-.6538086c.5068359,1.5249023.8710938,2.5053711,1.0888672,2.940918,1.3789062-.2177734,2.9033203-.5800781,4.5751953-1.0888672l1.0888672,3.2675781c-1.453125.4355469-2.9785156.7626953-4.5751953.9804688l.6542969,1.3071289c2.0322266-.4360352,3.8476562-.871582,5.4462891-1.3071289l.9794922,3.4853516c-.8710938.2177734-2.5048828.5820312-4.9013672,1.0893555,1.234375,2.1069336,2.2148438,3.6674805,2.9414062,4.6835938l-2.2880859,2.6142578c-1.8886719-1.0893555-4.2119141-1.7050781-6.9707031-1.8515625-.8710938-.0717773-1.5986328-.0356445-2.1787109.1088867-.8710938.2177734-1.3798828.6176758-1.5244141,1.1982422-.4365234,1.5981445.7978516,2.5424805,3.703125,2.8320312,2.5410156.2177734,5.0107422-.0361328,7.4072266-.7626953l.2177734,3.7036133c-3.1962891.7250977-6.1005859.9428711-8.7138672.6533203-3.7041016-.3642578-5.8828125-1.887207-6.5361328-4.574707-.4355469-1.5961914-.1464844-2.940918.8720703-4.0302734.9423828-1.0161133,2.2138672-1.6337891,3.8115234-1.8515625,1.5966797-.2177734,3.7041016-.1806641,6.3183594.1088867l-.9804688-1.8515625c-3.5585938.5087891-7.1533203.9799805-10.7841797,1.4160156l-.5439453-3.7036133Z"/>
        </g>
      </g>
      <g>
        <rect class="cls-1" x="479.6159029" width="186.827125" height="57.1635233"/>
        <g>
          <path class="cls-4" d="m506.4768706,34.5182694c4.1386719-2.25,7.2246094-5.0463867,9.2578125-8.387207h-9.1494141v-3.703125h11.9814453v-5.3374023h4.0302734v5.3374023h5.1201172v3.703125h-5.1201172v11.4370117c0,1.8144531-1.0888672,2.7231445-3.2675781,2.7231445h-2.5048828l-1.0898438-3.703125c.7255859,0,1.3076172-.0361328,1.7431641-.109375.7246094-.0712891,1.0888672-.4711914,1.0888672-1.1977539v-6.1000977c-2.1777344,3.4858398-5.4101562,6.4643555-9.6943359,8.9321289l-2.3955078-3.5947266Z"/>
          <path class="cls-4" d="m534.5794096,26.8937577h21.1308594v3.703125h-21.1308594v-3.703125Z"/>
          <path class="cls-4" d="m560.9387846,35.8253983c3.5576019-2.4677734,5.3378906-5.699707,5.3378906-9.6943359v-7.6245117h4.0292969v6.4262695c0,2.9052734-.5087891,5.5927734-1.5244141,8.0605469-1.1621094,2.6875-2.8320312,4.7568359-5.0107422,6.2084961l-2.8320312-3.3764648Zm11.328125.9804688l.3271484-.4360352v-18.7348633h4.1386719v15.3583984c1.7431641-1.5961914,3.7392578-3.9926758,5.9912109-7.1889648l2.6142578,3.5942383c-2.8320312,3.7768555-6.2089844,7.2265625-10.1298828,10.3481445l-2.9414062-2.940918Z"/>
          <path class="cls-4" d="m588.7151518,27.0026444v-6.6445312h10.0205078v-.9804688h-8.8222656v-2.8320312h21.6757812v2.8320312h-8.8232422v.9804688h10.0214844v6.6445312h-3.8125v-3.9213867h-6.2089844v5.0107422h-4.0302734v-5.0107422h-6.2089844v3.9213867h-3.8115234Zm21.3486328,13.9423828h-8.6044922c-1.8164062,0-2.7236328-.6181641-2.7236328-1.8520508v-1.9604492h-4.2480469v1.5249023h-3.8125v-10.0209961h20.2597656v6.8623047l2.7236328.762207c-.1464844,1.5981445-.4355469,2.7231445-.8710938,3.3769531-.5820312.8710938-1.4892578,1.3071289-2.7236328,1.3071289Zm-16.9921875-15.4672852v-1.7431641h5.0107422v1.7431641h-5.0107422Zm0,.6533203h5.0107422v1.9609375h-5.0107422v-1.9609375Zm1.4160156,5.7729492h4.2480469v-.762207h-4.2480469v.762207Zm0,2.7231445h4.2480469v-.762207h-4.2480469v.762207Zm9.2587728,3.7036133h4.9013835c.4355469,0,.7255859-.3984375.8710938-1.1982422h-6.7529297v.3266602c-.1464844.7265625.1806641,1.0180664.9804525.871582Zm-.9804525-6.4267578h4.3574219v-.762207h-4.3574219v.762207Zm0,2.7231445h4.3574219v-.762207h-4.3574219v.762207Zm.6533203-9.1494141v-1.7431641h5.1201172v1.7431641h-5.1201172Zm0,2.6142578v-1.9609375h5.1201172v1.9609375h-5.1201172Z"/>
          <path class="cls-4" d="m615.8372221,27.3293046c2.5410156-2.7587891,4.5019531-6.5356445,5.8818359-11.328125l3.5947266,1.1982422c-.2177734.6533203-.5449219,1.5625-.9804688,2.7231445-.4355469,1.0888672-.7626953,1.7802734-.9804688,2.0693359v19.3886719h-3.8125v-12.9619141c-.5087891,1.0175781-1.1982422,2.0336914-2.0693359,3.0498047l-1.6337891-4.1391602Zm22.65625-8.6049805l2.1787109,3.1586914-9.9121094,7.0800781v7.2978516c0,.7270508.4355469,1.0893555,1.3066406,1.0893555h4.1396484c.5800781,0,.9423828-.7250977,1.0888672-2.1782227l.3271484-3.7036133,3.59375,1.3071289-.3261719,3.9213867c-.0732422,1.3798828-.4003906,2.3959961-.9804688,3.0498047-.7265625.7983398-1.8164062,1.1982422-3.2675781,1.1982422h-6.5361328c-2.1777344,0-3.2675781-.9448242-3.2675781-2.8320312v-21.894043h3.921875v8.387207l7.7333984-5.8818359Z"/>
        </g>
      </g>
      <g>
        <line class="cls-5" x1="207.943444" y1="22.7609036" x2="220.0858647" y2="34.9033244"/>
        <line class="cls-5" x1="220.0858647" y1="22.7609036" x2="207.943444" y2="34.9033244"/>
      </g>
      <g>
        <line class="cls-5" x1="446.3571632" y1="22.7609036" x2="458.4995839" y2="34.9033244"/>
        <line class="cls-5" x1="458.4995839" y1="22.7609036" x2="446.3571632" y2="34.9033244"/>
      </g>
    </g>
  </g>
</svg>