<?xml version="1.0" encoding="UTF-8"?>
<svg id="_レイヤー_2" data-name="レイヤー 2" xmlns="http://www.w3.org/2000/svg" viewBox="0 0 374.597304 243.7360742">
  <defs>
    <style>
      .cls-1 {
        fill: #1d2087;
      }

      .cls-1, .cls-2, .cls-3, .cls-4 {
        stroke-width: 0px;
      }

      .cls-2 {
        fill: #e50012;
      }

      .cls-5 {
        isolation: isolate;
      }

      .cls-4 {
        fill: #308bcc;
      }
    </style>
  </defs>
  <g id="_フレーム" data-name="フレーム">
    <g>
      <g>
        <g>
          <path class="cls-3" d="m159.9264056,18.5490625c2.3320312.6601562,2.3320312.8803711,1.9580078,1.1445312l-.3740234.2416992v6.3369141c-.0219727,4.2685547-.7260742,8.6694336-4.0927734,11.4858398l-.3076172-.2641602c2.5522461-2.9702148,3.0581055-7.0849609,3.0581055-11.2216797v-3.8066406c0-1.2539062-.065918-2.8603516-.2416992-3.9165039Zm6.46875,5.3027344c0-1.4521484-.0878906-3.300293-.2861328-4.5102539,2.3984375.6821289,2.3984375.9018555,2.0024414,1.1660156l-.3740234.2421875v8.9770508c.0439453,2.640625.0878906,3.5205078.1757812,5.1708984-.1757812.2861328-.7480469.6162109-1.2758789.6162109-.2421875,0-.4404297-.2202148-.4404297-.4404297.1103516-1.6279297.1542969-2.4423828.1982422-4.9067383v-6.3149414Zm6.6669922-.8359375c0-1.4521484-.0878906-3.300293-.2861328-4.5107422,2.4204102.6821289,2.4204102.9023438,2.0463867,1.1660156l-.3520508.2421875v11.9697266c.0439453,2.640625.0878906,3.5205078.1757812,5.1708984-.1757812.3081055-.7700195.6821289-1.2978516.6821289-.2861328,0-.5283203-.2202148-.5283203-.4399414.1323242-1.8925781.1982422-2.8608398.2421875-5.7211914v-8.559082Z"/>
          <path class="cls-3" d="m182.8468157,35.2717187c.0439453.6162109.0439453.8359375.0878906,1.1220703-.0878906.2861328-.6157227.6381836-1.2099609.6381836-.2641602,0-.5058594-.2202148-.5058594-.4399414.1318359-1.8925781.1977539-2.8608398.2416992-5.7211914v-5.940918c0-1.4960938-.0878906-3.300293-.2861328-4.5102539l1.8046875.8579102h11.5732422l.8359375-1.0341797c1.9365234,1.4521484,1.9365234,1.6723633,1.3642578,1.8925781l-.5498047.1977539v8.7133789c.0439453,2.6401367.0878906,3.5205078.1757812,5.1708984-.2197266.2416992-.9013672.59375-1.4082031.59375-.1533203,0-.2421875-.2197266-.2421875-.4399414.0449219-.3300781.0449219-.5063477.0888672-1.012207v-.7260742h-11.9702148v.6381836Zm0-1.2763672h11.9702148v-12.0576172h-11.9702148v12.0576172Z"/>
          <path class="cls-3" d="m216.6373431,24.2482812c.1767578-.2421875.2861328-.5063477.4619141-.5063477.2646484,0,1.7167969,1.1879883,1.7167969,1.5180664-.1318359.1762695-.4619141.3740234-.9023438.4404297v7.480957c0,1.1000977-.2636719,1.8481445-2.3105469,2.0244141-.0878906-.418457-.2197266-.7705078-.4833984-.9902344-.3300781-.2421875-.9248047-.4624023-1.9365234-.5722656v-.3300781s2.2666016.1542969,2.7939453.1542969c.4189453,0,.5507812-.1323242.5507812-.4404297v-7.612793h-4.9726562v6.2709961c.0439453,2.6401367.0878906,3.5205078.1757812,5.1704102-.1757812.3300781-.8359375.7260742-1.3427734.7260742-.2851562,0-.5273438-.2197266-.5273438-.4399414.1318359-1.8920898.1972656-2.8603516.2421875-5.7207031v-6.0068359h-4.9072266v4.1142578c.0439453,2.640625.0878906,3.5205078.1757812,5.1708984-.1757812.2641602-.7255859.5942383-1.3203125.5942383-.2412109,0-.4179688-.2202148-.4179688-.4399414.0888672-1.3642578.1328125-2.0463867.1767578-4.1147461v-2.2885742c0-1.4960938-.0878906-3.300293-.2861328-4.5102539l1.7822266.8139648h4.796875v-3.2563477h-5.1708984c-1.1445312.0219727-2.2001953.1318359-3.3007812.3081055l-.5722656-1.1445312c.96875.1103516,1.9365234.1542969,2.9267578.1762695h6.1171875c0-1.1220703-.0664062-2.4643555-.1982422-3.3886719,2.3759766.6821289,2.3759766.9023438,2.0019531,1.1665039l-.3515625.2416992v1.9804688h5.8740234l.484375-.6821289c.2646484-.3520508.484375-.7041016.6601562-.7041016.2636719,0,1.9365234,1.3642578,1.9365234,1.6943359-.0664062.2416992-.2861328.3520508-.5722656.3520508h-8.6914062c.9462891.4399414.9462891.6601562.6162109.9018555l-.3076172.2202148v2.1342773h4.7744141l.3076172-.5058594Z"/>
          <path class="cls-3" d="m238.7447649,25.6564844c.2636719-.3300781.4619141-.6821289.6376953-.6821289.2646484,0,1.8710938,1.3417969,1.8710938,1.671875-.0449219.2421875-.2421875.3520508-.5722656.3520508h-6.6230469c1.9140625,3.4106445,5.4130859,6.3588867,8.6474609,7.7011719l-.0664062.2202148c-.5498047.0878906-1.078125.5058594-1.2763672,1.2099609-3.1679688-1.8041992-6.1162109-5.0385742-7.7666016-9.1313477h-.0878906v4.8847656c.0439453,2.640625.0878906,3.5205078.1757812,5.1708984-.1757812.3300781-.7705078.7041016-1.3203125.7041016-.2861328,0-.5283203-.2202148-.5283203-.4399414.1318359-1.8925781.1982422-2.8608398.2421875-5.7211914v-3.6083984c-1.9804688,3.3886719-5.0605469,6.2929688-8.8232422,8.2734375l-.2197266-.3300781c3.34375-2.2226562,6.2050781-5.5888672,7.8544922-8.9335938h-2.7060547c-1.1445312.0219727-2.2001953.1323242-3.3007812.3081055l-.59375-1.144043c.9677734.1098633,1.9365234.1538086,2.9267578.1757812h4.8623047v-3.9824219h-4.9951172c-1.1435547.0219727-2.2001953.1318359-3.2998047.3081055l-.5722656-1.1000977c.9677734.1098633,1.9365234.1538086,2.9267578.1757812h5.9404297c0-1.3862305-.0878906-3.1240234-.2636719-4.2685547,2.4199219.7041016,2.4199219.9243164,2.0458984,1.1884766l-.3515625.2416992v2.8383789h5.8300781l.484375-.6821289c.2636719-.3295898.4619141-.6821289.6376953-.6821289.2646484,0,1.8925781,1.3203125,1.8925781,1.6503906-.0654297.2421875-.2636719.3300781-.5722656.3300781h-8.2724609v3.9824219h4.7519531l.484375-.6816406Z"/>
          <path class="cls-3" d="m261.5992571,21.1017969l.4619141-.6821289c.2421875-.3300781.4404297-.6821289.6162109-.6821289.2636719,0,1.8261719,1.3417969,1.8261719,1.671875-.0664062.2421875-.2646484.3520508-.5498047.3520508h-15.0507812v3.3007812c0,3.6523438-.2421875,8.9550781-3.5859375,12.6958008l-.2646484-.2421875c2.1787109-3.8286133,2.4863281-8.3833008,2.4863281-12.4536133v-2.3544922c0-.7919922-.0439453-1.7602436-.1533203-2.4423828l1.7822266.8364258h5.5c0-1.1884766-.0654297-2.640625-.2197266-3.6308594,2.3759766.6821289,2.3759766.9023438,1.9804688,1.1445312l-.3740234.2416992v2.2446289h5.5449219Zm-.5058594,12.7617188c-.9248047-1.6064453-2.1572266-3.2124023-3.2353516-4.3569336l.2861328-.1977539c7.1953125,4.5107422,6.1396484,9.4174805,4.2910156,7.9208984-.1757812-.9018555-.5722656-1.9140625-1.1005859-2.9042969-2.8164062.6162109-6.5566406,1.3422852-11.5732422,2.222168-.1542969.2641602-.3740234.418457-.5722656.4624023l-.7919922-1.9804688c.8583984-.0439453,2.0898438-.1318359,3.6083984-.2641602.7265625-2.1782227,1.4082031-4.7744141,1.9804688-7.2387695.3300781-1.4082031.59375-3.1025391.6162109-4.3125,2.640625.527832,2.640625.7480469,2.2441406.9458008l-.3740234.1982422c-.7919922,2.9921875-2.2666016,7.0629883-3.9169922,10.3413086,2.4208984-.1977539,5.3916016-.5058594,8.5380859-.8359375Z"/>
          <path class="cls-3" d="m282.4957415,34.4797266v1.5620117h-10.9130859v-1.144043l5.1484375-5.6328125c2.0458984-2.1782227,2.8164062-3.5644531,2.8164062-5.6328125,0-2.0244141-1.1660156-3.6308594-3.4101562-3.6308594-.7480469,0-1.3867188.1103516-2.0908203.418457l-.6601562,1.5620117c-.2861328.7919922-.6162109,1.078125-1.078125,1.078125-.3740234,0-.7041016-.1977539-.9023438-.5942383.5722656-2.090332,2.7724609-3.2563477,5.3027344-3.2563477,3.2353516,0,4.8632812,1.8481445,4.8632812,4.4667969,0,2.0024414-1.1884766,3.6523438-3.7402344,5.8969727l-4.8408203,4.9067383h9.5048828Z"/>
          <path class="cls-3" d="m293.0953509,20.6393945c-1.1445312.0219727-2.2001953.1323242-3.3007812.3081157l-.59375-1.1001079c.9677734.1098633,1.9365234.1538086,2.9267578.1762695h13.0253906l.5283203-.7485352c.2861328-.3740234.5058594-.7480469.6816406-.7480469.2646484,0,2.046875,1.4521484,2.046875,1.7822266-.0664062.2202148-.2861328.3300781-.5722656.3300781h-8.0751953v14.7641602c0,1.1884766-.2861328,2.0683594-2.5966797,2.2885742-.0654297-.4624023-.2421875-.8583984-.59375-1.078125-.4404297-.2861328-1.1445312-.484375-2.3984375-.6381836v-.3300781s2.9707031.1977539,3.5644531.1977539c.4619141,0,.6162109-.1318359.6162109-.527832v-14.6762695h-5.2587891Z"/>
          <path class="cls-3" d="m315.8619524,36.3498437c.0439453.3959961.0214844.527832.0654297.6821289-.0654297.3081055-.59375.7041016-1.1884766.7041016-.2851562,0-.5273438-.2202148-.5273438-.4399414.1318359-1.8925781.1982422-2.8608398.2421875-5.7211914v-8.6030273c0-1.4960938-.0888672-3.3007812-.2861328-4.5107422l1.8261719.8583984h9.7470703l.3740234-.5063477c.1982422-.2421875.3525391-.5058594.5283203-.5058594.2636719,0,1.7822266,1.1879883,1.7822266,1.5180664-.1757812.1982422-.5498047.3959961-1.0126953.4838867v11.4638672c.0449219,2.6401367.0888672,3.5205078.1767578,5.1708984-.2207031.2856445-.8808594.6821289-1.4082031.6821289-.2207031,0-.3085938-.2202148-.3085938-.4404297.0439453-.2197266.0439453-.3300781.0878906-.6821289v-.5717773h-10.0986328v.4179688Zm10.0986328-16.3925781h-10.0986328v4.5986328h10.0986328v-4.5986328Zm0,5.2368164h-10.0986328v4.6645508h10.0986328v-4.6645508Zm-10.0986328,10.0996094h10.0986328v-4.7749023h-10.0986328v4.7749023Z"/>
          <path class="cls-3" d="m347.8482806,35.2717187v.7700195h-9.7480469v-.7700195l3.9609375-.2202148c.0224609-1.4741211.0439453-2.9482422.0439453-4.4003906v-9.8574219l-3.3886719.6821289v-.8583984l5.0390625-1.3203125.3740234.2861328-.1103516,3.6967773v7.3710938c0,1.4521484.0224609,2.9262695.0439453,4.4003906l3.7851562.2202148Z"/>
          <path class="cls-3" d="m364.6080462,30.3210352c.2207031-.3081055.3740234-.6162109.5507812-.6162109.2636719,0,1.4736328,1.1879883,1.4736328,1.5180664-.0439453.2202148-.2636719.3300781-.5498047.3300781h-7.4150391c-1.1445312.0219727-2.2001953.1323242-3.3007949.3081055l-.549791-1.1220703c.5722656.1098633,1.1445312.1538086,1.7597656.1757812h.8144531v-9.2192383h-.6162109c-.3515625.0219727-.6816406.1323242-1.0117188.3081055l-.5722656-1.144043c.484375.1098633.9677734.1538086,1.4960938.1757812h.7041016c0-1.078125-.0664062-2.3759766-.1982422-3.2563477,2.2226562.6821289,2.2226562.9023438,1.8701172,1.144043l-.3300781.2202148v1.8920898h3.8066406c0-1.0561523-.0654297-2.3759766-.1972656-3.2783203,2.265625.6821289,2.265625.9023438,1.8916016,1.144043l-.3515625.2421875v1.8920898h.3076172l.3525391-.5498047c.1972656-.2641602.3300781-.550293.5058594-.550293.2636719,0,1.3642578,1.078125,1.3642578,1.4082031-.0439453.2421875-.2646484.3520508-.5283203.3520508h-2.0019531v9.2192383h.3300781l.3955078-.59375Zm-4.6865234,2.9921875l-.4179688.0883789c-1.078125,1.9580078-2.6181641,3.4541016-4.2246094,4.3564453l-.2636719-.2861328c.3740234-.3300781.7480469-.7480469,1.0996094-1.2099609.9023438-1.1445312,1.7382812-3.0805664,1.9804688-4.2910156l1.2324219.6601562c1.0117188.3520508,1.0117188.5722656.59375.6821289Zm2.6181641-11.6176758h-3.8066406v2.4643555h3.8066406v-2.4643555Zm-3.8066406,3.1245117v2.640625h3.8066406v-2.640625h-3.8066406Zm0,3.2783203v2.8164062h3.8066406v-2.8164062h-3.8066406Zm2.9492188,4.2026367c4.2900391,1.496582,3.234375,4.5107422,1.8476562,3.4765625-.2197266-1.1000977-1.2539062-2.5083008-2.1123047-3.300293l.2646484-.1762695Zm6.5791016-2.8164062c-.2421875,3.0805664-1.1230469,6.0732422-3.9169922,8.2075195l-.3076172-.2421875c2.6621094-2.8823242,3.0361328-6.6889648,3.0361328-10.8476562v-4.1806641c0-1.3862305-.0878906-3.1245117-.2646484-4.2685547l1.8271484.8139648h3.5205078l.2851562-.4399414c.1767578-.2197266.2861328-.4619141.4628906-.4619141.2636719,0,1.6933594,1.0561523,1.6933594,1.3862305-.1318359.1757812-.4833984.3740234-.9013672.4399414v15.7104492c0,1.1660156-.2207031,1.8701172-2.15625,2.090332-.0664062-.4404297-.1767578-.8364258-.4619141-1.0341797-.2861328-.2421875-.8144531-.4399414-1.7607422-.550293v-.3740234s2.1123047.1762695,2.5527344.1762695c.3740234,0,.5058594-.1323242.5058594-.484375v-5.940918h-4.1142578Zm.109375-2.9042969c0,.7480469-.0214844,1.4960938-.0654297,2.2441406h4.0703125v-4.4003906h-4.0048828v2.15625Zm4.0048828-6.953125h-4.0048828v4.1806641h4.0048828v-4.1806641Z"/>
        </g>
        <g>
          <path class="cls-1" d="m17.3044288,28.3781142h2.8036465c.9172053,0,2.0781537.1575592,2.0781537,1.2239008v9.6013894s-3.1483822,1.1406698-8.8515981,1.1406698c-5.6966787,0-13.3346308-3.089681-13.3346308-11.6527095,0-8.5348967,7.9512027-11.8832449,13.8381265-11.8832449,2.6376823,0,5.9494939.1570255,5.9494939,1.6188173v2.8596793c-2.2389148-1.798541-3.141178-2.117777-6.5395737-2.117777-3.397195,0-9.4750309,2.2024934-9.4750309,9.3218561,0,7.127937,8.157724,11.3614897,14.9293006,8.6828501v-5.4582898c0-1.1438539-.066439-3.3371418-1.3978876-3.3371418Z"/>
          <path class="cls-1" d="m59.9342633,39.7728055h7.2060944c-1.9959721-.7316296-2.8135188-3.0864791-3.4669692-4.8029538-.6761304-1.7100709-5.8869236-14.1652516-6.4718004-15.8921323-.5752711-1.7021996-1.40776-1.7021996-2.0664135-1.7021996h-4.1436333c1.9971728.6526499.9086706,2.0421325.5810079,3.0095006-.330861.9863125-7.2940166,17.9239922-7.2940166,17.9239922-2.4070135-.6469132-8.437885-9.374056-8.437885-9.374056,8.0424528-2.2800056,6.7937195-11.5594368-1.0598224-11.5594368h-9.0267677c1.8135984.3940981,1.6493686,2.2818733,1.6493686,3.7365942v15.4119837c0,2.118444-.6650572,2.6793067-1.7268808,3.2487077h6.6073469c-1.8135984-.8091418-1.3334497-2.6865109-1.3334497-3.5704967v-16.6249627h3.5704968c1.8988484,0,3.3052744,2.2838745,3.3052744,3.8381205,0,2.5086732-1.985566,3.4929665-3.9729998,4.2296838-1.9816971.7237583-.9067992,2.35565,0,3.6688211.9276114,1.2983624,3.5684956,4.9612957,5.1390179,6.7527654,1.5790573,1.7854485,2.9640039,1.7060685,3.7300537,1.7060685h5.9625681c-2.3118874-.7316296-1.0814351-2.5184122-.7589754-3.406934.3309908-.9160046,1.8330765-4.7346648,1.8330765-4.7346648h8.9284394s1.0794339,2.764041,2.0716165,5.2133459c.9965852,2.4533073.2506805,2.7705603-.8247471,2.9282529Zm-9.2730493-10.7452433l3.4089352-8.7252571,3.6245284,8.7252571h-7.0334636Z"/>
          <path class="cls-1" d="m132.4181631,39.7728055h7.2171658c-1.988762-.7316296-2.8180548-3.0864791-3.4661688-4.8029538-.6638507-1.7100709-5.8850559-14.1652516-6.4615277-15.8921323-.5843431-1.7021996-1.40776-1.7021996-2.0728172-1.7021996h-4.1352228c1.9907636.6526499.9081278,2.0421325.583009,3.0095006-.341406.9863125-7.288152,17.9239922-7.288152,17.9239922-.4664072,1.0566205-1.1465399,1.0819687-1.5601161,1.4637929h5.9454914c-2.3184281-.7316296-1.0683607-2.5184122-.7484395-3.406934.3191207-.9160046,1.8188014-4.7346648,1.8188014-4.7346648h8.9524571s1.0801009,2.764041,2.0669471,5.2133459c.9791083,2.4533073.2384067,2.7705603-.8514276,2.9282529Zm-9.2507659-10.7452433l3.3821139-8.7252571,3.6545461,8.7252571h-7.03666Z"/>
          <path class="cls-1" d="m106.9494681,40.1967878c.829954-.7477724,1.5783935-1.3131711,1.5783935-3.9215206v-15.3963568c0-1.2215173-.0637657-2.6051298-1.5783935-3.1092925h6.3865504c-.65852.578473-1.4448485,1.3081015-1.4448485,2.9411938v15.5644555c0,1.3868321-.3021774,3.4277639,1.5458411,3.9215206h-6.487543Z"/>
          <path class="cls-1" d="m72.6734736,22.5888479s-.0813811,12.2988222-.0813811,13.6864193c0,1.3868321.1823738,3.4277639,1.9973062,3.9215206h-6.0524875c.83449-.7477724,1.4983465-1.3131711,1.4983465-3.9215206,0-2.5997756.1550244-14.1841783.1550244-15.3963568,0-1.2215173-.1550244-2.6051298-1.6533709-3.1092925h4.6440605l13.8993621,17.2002338v-14.0160973c0-.8950589.1739734-2.6056635-1.7287485-3.2577797h6.2073785c-.7479012.577806-1.8382795.8110096-1.8382795,3.1829358v20.2169386s-1.7146069.3139177-4.5353299-3.0291121c-2.8199226-3.3352919-12.5118807-15.4778891-12.5118807-15.4778891Z"/>
          <path class="cls-2" d="m112.2325705,57.5305667c-18.2080256-15.0994001-25.1658448-32.8761058-.2670902-57.1442234.77446-.7459233,1.5210265-.3003283.9067992.3954322-10.9237481,12.2702721-23.0799532,31.9223457-.2541492,55.9938145.3596779.3850261.2162603,1.1621491-.3855597.7549767Z"/>
        </g>
      </g>
      <g>
        <path class="cls-4" d="m72.8559435,109.350457c0,.8593529-1.3305096,2.0854401-3.9844276,3.66927-2.0206186,1.1445194-3.7797834,2.0038723-5.2671653,2.5870505-1.2575607.4772042-3.8365932,1.2235182-7.7416162,2.2299502-.8669939.238281-2.162643.5741865-3.8934029,1.0006516h-1.0116005c-6.8972171,0-13.2611975-2.9480044-19.0925867-8.8440132-.9618919-.9062384-1.6358619-1.8908333-2.0206186-2.9447931-2.7049176-6.852344-4.0567308-13.4972358-4.0567308-19.9199033,0-5.3661387.9483351-10.1137746,2.8211193-14.2409807,2.316933.8683447,3.8107706,2.135537,4.4821582,3.8131377-.1007081,1.1984698-.4790093,3.183074-1.1568526,5.9743653-.5764896,2.5337423-.8637661,4.5504599-.8637661,6.0340961,0,1.9724012.6023122,4.1927174,1.806291,6.6924196l26.7528617-23.4485169c1.052271.0533081,2.0580614.3102148,3.0225356.7899881,1.3053326.6743801,1.979948,1.2986634,2.0238465,1.8722076v2.6596266l-14.7363136,12.440707c-5.8288069,4.8420491-11.133415,8.8433709-15.8996219,12.0110306-.14848.765582-.2175554,1.3359148-.2175554,1.7309089,0,1.4335394.9360693,3.0173692,2.8178915,4.7418554.1355687.0976245.8605382.7180542,2.1658708,1.8689963.7720958.621072,1.374408,1.1984698,1.8088733,1.7219172,2.7423604.7244769,5.4188731,1.0822195,8.022437,1.0822195,3.4234315,0,7.253569-.6274946,11.4865391-1.8696385,3.7132902-1.2479243,7.4014034-2.4926373,11.0643396-3.7379925,1.1064985.9563352,1.6674946,1.6525524,1.6674946,2.0854401"/>
        <path class="cls-4" d="m145.3367844,98.1236341c-.0471262,4.5093549-1.2039788,8.6962918-3.4705578,12.5909974-2.4053754,4.1650999-5.5822011,7.0687879-9.534996,8.6962918-.6778433-.6300637-1.3524588-1.2479243-2.0238465-1.8689963-.8263233-.8651333-1.2356115-1.627504-1.2298014-2.301884v-.3603116l.0664932-.1412987c6.41498-2.4463941,10.1185868-8.3732317,11.1366429-17.759318-3.0419026-2.5433763-5.2516718-4.2498791-6.6512568-5.109232-2.6571458-1.6307153-5.2768488-2.4489631-7.8771849-2.4489631-.2930865,0-.7217417.0250484-1.3021047.0719339-4.4285763,9.6372126-7.7635654,19.2712139-9.9701068,28.9084266h-.1510622c-1.012246.0533081-1.9670367-.4450909-2.8876125-1.4740022-.9205758-1.0282691-1.4970654-2.1233339-1.73657-3.2678532l7.7416162-23.8775511c-1.4596226-1.0507484-3.0483582-1.5870411-4.7784726-1.5870411-.9586641,0-2.4337803.1971759-4.4130828.5799669-1.9702646.3860023-3.4679755.5741865-4.479576.5741865-2.4557295,0-3.7823657-1.5523587-3.9682884-4.6731329,1.7268865-.768151,5.099964-1.3166468,10.1153589-1.649341,4.8604593-.2915891,8.2612961-.890824,10.1844344-1.803485,3.0890288-1.5363021,4.633866-4.4059499,4.633866-8.626927l-.0032278-1.3673859c1.6358619.4829846,3.0167255,1.8188994,4.1167684,4.0263703-.8637661,2.5876927-1.7714305,5.4663323-2.7423604,8.6275693,4.286552,1.0629515,8.0915125,2.78808,11.4232738,5.1747432,3.5712659,2.4958486,6.1625641,5.5189982,7.8016538,9.0662375"/>
        <path class="cls-4" d="m182.0503804,100.5636055c-3.7642899-3.2087647-5.6396564-8.5838952-5.6396564-16.1041966,0-.1502904.0884424-1.5806185.2872765-4.3179594l.6455651-9.2858927c.1923784-.0378937.3912124-.0597308.5835908-.0597308,1.1536248,0,1.9257206.5266587,2.3137052,1.5774071.0974803.2883778.1355687.4547249.1355687.5048217,0,.4861959-.0161391,1.2228759-.069721,2.2267388-.0438984,1.006432-.0658476,1.752746-.0658476,2.2357306,0,3.161237.5990844,10.9011936,1.8095189,23.2230813m22.5470053-25.2423679c-1.3460032,15.1504304-3.854669,29.4447193-7.5143773,42.8635986-.8573104.5240897-1.522888.7842077-1.954771.7842077-.4351109.0064227-1.0335497-.2318583-1.8030632-.7180542,2.6920063-17.5936132,5.1729128-32.8095548,7.4427196-45.6581012.1923784-.0976245.3937947-.1509327.5732618-.1535018,1.2072067.0025691,2.291756.9653269,3.2562302,2.8818509"/>
        <path class="cls-4" d="m279.8071871,82.7220774c-.8637661,2.7816573-2.7927145,5.4945921-5.7810351,8.1227476-1.2517507,1.1098369-3.9779719,3.1169206-8.1644613,6.0462992-2.4111855,1.6808121-4.3433617,3.1670174-5.7868452,4.4592581,1.0148283,1.9190931,2.5370707,3.6410102,4.5544615,5.1683206,2.5564376,1.637138,5.1096475,3.2678532,7.6693129,4.8953572,2.9760549,2.2517872,4.4511711,4.6570762,4.3975892,7.1908186v.1477214h-1.8030632c-1.6804059-1.3924343-3.9308457-2.9948899-6.7235601-4.820212-4.5738285-2.9197447-6.8843058-4.4059499-6.9411155-4.4560467-5.6332007-3.8388284-9.2483651-7.3545966-10.8312906-10.5717108,2.6448801-1.4335394,6.4905111-3.6159618,11.5562602-6.5453405,4.2897798-2.7283492,7.8300586-5.9679427,10.6227731-9.7059352-2.0645171-2.8792819-5.5383027-4.3153903-10.4116733-4.3153903-1.2956491,0-3.2530023.1599244-5.879161.4643589-2.6351966.3198488-4.6048156.4733506-5.9320973.4701393-1.3208261.0032113-3.2659136.7495253-5.8281614,2.2646326-2.5473997,1.5112537-4.2994633,2.2672016-5.2671653,2.2672016-1.3021047,0-2.5344884-.7931994-3.6823031-2.3738179-.0471262-1.8632159.6558941-3.2556502,2.0935675-4.1618886.8695761-.5831782,2.480261-1.2074615,4.847548-1.8818416,1.1000429-.2318583,2.7171833-.7398913,4.8359279-1.5080423.2930865-.1412987.5074141-.238281.6487929-.2883778,2.1690986-.5709751,5.4976321-.8593529,9.9830181-.8593529,10.7932023-.0064227,18.0654927,3.3269418,21.8226813,9.9911016"/>
        <path class="cls-4" d="m348.9851174,91.7825345c-.7753236,1.5741958-2.3860085,2.3706066-4.8481936,2.3706066-.387339,0-.9799678-.0250484-1.7682027-.0687225-.7946906-.0500968-1.3873193-.0725761-1.7682027-.0725761-1.7875697,0-3.2091039.3108571-4.2652484.9344981-.6810711,2.3526231-1.0180561,5.077761-1.0180561,8.1914702,0,1.2986634.0884424,3.2363822.2614538,5.8272863.1672014,2.5902618.2491881,4.5344033.2491881,5.826644,0,1.6307153-.0755311,2.9762641-.2207833,4.0295816h-.1355687c-.4790093.0443164-.9515629-.2035986-1.4118508-.758517-.4570601-.5523494-.7127038-1.0854308-.7533744-1.6185122l-1.0212839-20.2089234c-2.0303021-.9094497-4.2174765-1.3609632-6.5757257-1.3609632-1.349231,0-3.3285335.1791924-5.9320973.5362927-2.5912982.3609539-4.52993.5459267-5.7778073.5459267-.8166398-.7713624-1.2330293-1.6339266-1.2330293-2.5934731,0-.1380874.0316327-.3326942.0761767-.5741865.2427325,0,2.6758672-.4360991,7.3000497-1.2980211,2.9444222-.527301,5.4659994-.787419,7.5840983-.787419.6339449,0,1.6487732.0751452,3.0386747.2100212.5300089-1.2922407.7946906-2.5838391.7914628-3.8825025.0032278-1.1914048-.2336946-2.8471685-.7127038-4.9608684-.2459603-1.0539597-.5229077-2.8041366-.8695761-5.2466771-1.6455453.0937709-3.6377591.7148429-6.0018184,1.8657849-1.9263661,1.0096433-3.8553145,1.9916692-5.7810351,2.9480044-1.2582063.5330814-2.2478575.7899881-2.9599158.7899881-1.1665361,0-2.1026054-.498399-2.8243471-1.5112537.7753236-1.5305217,2.3104774-2.8034944,4.6306382-3.8105686,2.8901948-1.3860117,5.7461746-2.7501862,8.5989266-4.0893124,3.9024408-1.7341202,6.8655844-2.5966845,8.8862031-2.5966845,2.0264287,0,3.5932151.7180542,4.6997136,2.1605854v.6461204c0,.6743801-.3344027,1.0038629-1.012246,1.0038629-.2834031,0-.7152861-.0314711-1.2640164-.1034049-.5577682-.0757875-.9735121-.1040472-1.2698265-.1040472-1.0561444,0-1.7998354.3982054-2.2381741,1.2138842.1956062.7713624.2963144,1.8471592.2963144,3.2395935,0,.6242833-.0348605,1.5774071-.1136195,2.8760705-.0723033,1.2915984-.1103916,2.2794047-.1103916,2.9441508,0,4.8015862,1.5196602,7.1946722,4.5518792,7.1946722.967702,0,2.2000857-.2325006,3.6848854-.7186965.2014163.0443164.4157439.0693648.6617042.0693648.4699714,0,1.1949409-.1034049,2.162643-.3198488.967702-.2196552,1.6894438-.3262715,2.168453-.3262715,1.0658279,0,1.806291.5298701,2.2446297,1.5870411"/>
      </g>
      <g>
        <path class="cls-4" d="m70.0172645,176.8007741c-.2883633.0191686-.5266324-.177629-.7058159-.5737801-.1033998-.2683604-.2755187-.6491766-.5298436-1.1264747l-.9248179-6.2898567c-.6775575.2498308-1.3769511.3744267-2.1168053.3744267-.4547021,0-1.1322597-.0466436-2.0384527-.1399308-.9094042-.0843418-1.5869618-.137375-2.0416639-.137375-1.4296143,0-2.6087571.3776214-3.5464196,1.12328.0282583.3431179.0468831.698376.0468831,1.0887765,0,.3086145,0,.7827178-.0282583,1.4191154-.0064223.6363975-.0186248,1.1168904-.0186248,1.4229491,0,1.341802.1348693,2.3896855.4046078,3.1385388-.0879861.0127791-.1631276.0249192-.2292778.0249192-.2479026,0-.5047964-.2773057-.7559102-.8331952-.134227-.3463127-.3198328-.8108318-.5484684-1.369277.0128447.1654889.0186248-1.5692694.0186248-5.2100255,0-4.2030351-.4135991-7.3569088-1.2510731-9.4692885.0751415-.109261.2511137-.1712395.4983741-.1712395h.2228554c.5548907.7986917.9723432,1.9526414,1.2607066,3.4535428.1534941.8670597.4450686,2.2024722.8811459,4.0055985.6582905-.2178831,1.3043785-.3239493,1.9633113-.3239493.4386463,0,1.097579.0530331,1.9658802.1495151.8657323.109261,1.5208116.1469593,1.9665224.1527098,1.1348286-.0057506,2.1168053-.2990302,2.9350123-.876644.0533055-.3022249.0783526-.5833644.0783526-.84853,0-.767383-.2003772-1.7002548-.604985-2.8018104-.583149-1.6440269-.9036241-2.5551744-.9537184-2.739193.1849636-.4146807.3513023-.6146731.5272746-.6146731.1817524,0,.3981855.3527022.6518682,1.0702468.1194556.3776214.301208.9143422.555533,1.6037729.7302208,1.4663979,1.1727204,3.2260754,1.357684,5.2847831.0687191,1.8159054.1412916,3.6318108.2318467,5.4541057.0693613.8887841.1695499,1.6561671.2947857,2.3302628.1066109.315004.2228554.7520481.3513023,1.2977142v.1309854l.0064223.1686837.1785412-.1686837h-.1033998Z"/>
        <path class="cls-4" d="m86.7506879,176.7477409c-.0475254.2217168-.1823946.3213935-.3981855.3213935-.3737806,0-.6775575-.2089377-.9318825-.6204237-.0815638-.1565436-.2286355-.5181912-.4168103-1.1079451-.1881747-.5769749-.3416688-1.1200852-.4675468-1.6223025-.4386463-2.0031187-.648657-4.1308333-.648657-6.3927282,0-2.5768988.2697385-5.0886244.8246293-7.5064238.2665274.1341802.5452572.384011.8149957.7488533.2825832.3712319.4206637.6645115.4206637.8798387,0,.9392614-.0879861,2.3366524-.2665274,4.2023961-.1759723,1.8753281-.2607473,3.2886928-.2607473,4.2400944.0032112,2.4305785.470758,4.4611722,1.4052094,6.0777242,0,.1840186-.0250472.4491842-.0751415.7795231"/>
        <path class="cls-4" d="m101.4231803,159.4608583c.1849636,0,.3924054.109261.6088384.3054197.1656965.1750732.3416688.3399232.5266324.4990226-.1631276.6740958-.3326775,1.3481915-.4797493,2.0376222-.1849636.7954969-.2761609,1.4817328-.2761609,2.0497623,0,.5986993.1348693,1.1731183.407819,1.7283688,2.1450637-1.4350892,3.9542386-2.1558286,5.4378006-2.1622181.8496764,0,1.6113667.1999924,2.2799329.5801696v.2249116c0,.4555737-.125878.6772905-.3737806.6772905-.2003772,0-.4951629-.0626174-.8683012-.1872133-.3699271-.1252349-.6711352-.1872133-.8907794-.1872133-.2883633,0-.5298436.0837029-.7276518.245997-1.5298029.0722017-3.3081506,1.0331876-5.340181,2.8797627,1.1258373,1.1948427,2.6119682,1.9532804,4.4500438,2.3085384.4418574.0811471,2.0352415.2344959,4.7917126.4498232.0622968.0837029.0969774.1993534.0969774.3520633,0,.0626174-.0096335.178268-.0346807.3245883-.0250472.1527098-.043672.2587761-.043672.3245883-.5298436.1341802-1.1072125.1967976-1.7057752.1967976-.9973904,0-2.12965-.1904081-3.3993479-.5744191-.7212295-.2338569-1.9067946-.5897539-3.5470619-1.0734416-.0873439.4185144-.1252358.7897463-.1252358,1.1264747,0,.5149964.1130333,1.2759898.3352465,2.2778687.2228554,1.0012399.3423111,1.7622333.3423111,2.2836192,0,.0153349-.0815638.2025482-.2543249.5488609l-.021836.0715628c-.3044192-.0996767-.5548907-.3520633-.7591213-.7731335-.1316581-.3686761-.2787298-.7239341-.429655-1.0734416-.5516795-4.4490321-.8278404-7.5223977-.8278404-9.2443769,0-2.3334576.2729497-4.4049443.8278404-6.2176549"/>
        <path class="cls-4" d="m136.184772,168.352533c-.3352465.068368-.8779347.1897691-1.6087978.3801772.0815638.8331952.4174525,1.8063211,1.0006016,2.9078766.3384577.5584452.7931598,1.3820561,1.3608952,2.4740273-.1130333.1309854-.2504715.2031872-.3949743.2031872-.3326775,0-.5613131-.2313011-.711596-.6772905-.1881747-.5520557-.4829604-1.1386149-.9036241-1.753288-.3731383-.5367208-.7366431-1.0702468-1.1097814-1.6005781-.2324889-.3712319-.4360773-.7737725-.6056273-1.204427l-4.5059182.4715476c-1.4585148,3.0075534-2.2702994,5.5499487-2.4302158,7.6431598h-.1098221c-.147714,0-.364147-.1431255-.6306744-.4274598l-.1721189-.1463203v-.1808238c0-.767383.1631276-1.7443426.5047964-2.9264063.2003772-.6523714.4643356-1.6945043.8060045-3.1327882-.8593099-.1182064-1.4302565-.492633-1.7186199-1.122641.0815638-.2747499.3981855-.4498232.9344514-.5526946.4482798-.0843418.7398543-.137375.8496764-.1840186.3076304-.0932872.5613131-.2402465.7655437-.4459894.8464652-2.7705017,1.2793314-4.1653368,1.2793314-4.1806717.5484684-1.5756589,1.1508845-2.8797627,1.809175-3.9557601.238269.1182064.5741578.3303389,1.0070239.6549272-.2697385.4491842-.4013966.9360666-.4013966,1.4478683,0,.5833644.1849636,1.2696003.5581019,2.0497623.3480912.6332028.6929712,1.2664055,1.0224375,1.9059978.2568939.4900772.4482798.9143422.5799379,1.3041038.2350579.1495151.4951629.2274674.7841685.2274674.3352465,0,.7963709-.1086221,1.3827312-.3239493.5426883-.1999924.9440849-.3060586,1.2106123-.3060586.4168103,0,.6364545.3309778.648657.9795155-.2787298.1967976-.6801265.3590918-1.2009788.4715476m-5.9143387-4.4336972l-1.0500536,3.8407485c.260105.0498384.4604822.0715628.5953515.0715628.2010194,0,.4958051-.0562279.9094042-.1654889.3891942-.1028715.7122382-.1616552.9286713-.1616552.1033998,0,.303777.0370593.6332433.1028715-.3981855-1.1858974-1.0628983-2.4152436-2.0166167-3.6880387"/>
        <path class="cls-4" d="m166.8386309,166.3276899c-.4232326.9827102-1.2542842,1.6689461-2.496366,2.0497623-1.1040013.2370517-2.2015803.4645191-3.2991593.6830411-.5863602.1437645-1.2163924.3897615-1.8778941.7207394-.0944085.0402541-.2979969.1341802-.6338856.2996691.6274632.4395999,1.1701515.9137033,1.6306337,1.4286997.5927826.7520481,1.1791428,1.4945119,1.7719253,2.2305861.7026047.8645039,1.3859423,1.5226258,2.0352415,1.9750048.1534941.533526.2260666.8983684.2260666,1.0766364,0,.0466436-.0064223.0996767-.0250472.1495151-.1631276.0498384-.3358887.0779523-.4990163.0779523-.6929712,0-1.357684-.4338493-2.0159745-1.3041038-.4893828-.6958202-.9755544-1.4037805-1.4681484-2.1059902-.2697385-.3495075-.5767267-.670901-.9530762-.9699312-.5613131-.3904005-1.1354708-.780162-1.7089864-1.1763131-.6647128-.4900772-1.160518-.9705701-1.4520925-1.4542578l.364147-1.1009166c.8965595-.3527022,2.3390185-.7865516,4.3363682-1.2919637,1.9979919-.5054121,3.5470619-1.0044346,4.6510632-1.4849276-.1823946-.6740958-.5741578-1.2076218-1.1791428-1.6095235-.5709466-.3277831-1.1451043-.6740958-1.7186199-1.0236033-.4643356-.1156506-.9344514-.177629-1.4052094-.177629-1.680728,0-3.207962.6645115-4.6003267,1.9775606l-.8060045.876644c-.1534941.1565436-.3731383.4057354-.6615017.7520481-.6865488.9545963-1.0224375,2.1967216-1.0224375,3.7282927,0,.5054121.0378918,1.2446811.1194556,2.2088617.084775.9641806.1284469,1.6970601.1284469,2.1967216,0,.4709086-.021836.8983684-.0751415,1.2849352-.0719303.0530331-.147714.0722017-.2292778.0722017-.4450686,0-.7180183-.3405621-.8085734-1.0236033-.1162445-1.1073061-.1945971-2.7922261-.2292778-5.0726506-.043672-2.2746739-.1348693-3.984513-.2697385-5.1199331-.219002-1.8657438-.6364545-3.5161602-1.2292371-4.9359145.062939-.1309854.1631276-.3431179.301208-.6236185.1284469-.2338569.2479026-.3527022.34488-.3527022.1098221,0,.2196442.0530331.3545135.1527098.2100107.6459818.4893828,1.6350816.8560988,2.9487697.323044,1.1788689.5080076,2.3334576.5581019,3.4880463.4392885-.3872057,1.0410623-.917537,1.8155973-1.6069676,1.9100058-1.6440269,3.6318368-2.4804169,5.1809068-2.4804169.604985,0,1.1598757.0996767,1.6556809.2996691.1534941.068368.3699271.1654889.6300322.2773057,1.1508845.4836877,1.9755137.9520405,2.5027884,1.4012247.7995821.6830411,1.2009788,1.5379607,1.2009788,2.5583692"/>
        <path class="cls-4" d="m183.6028815,176.7324061c-.0500943.2274674-.1913859.3367284-.4071768.3367284-.3705694,0-.6775575-.2089377-.9286713-.6268132-.0815638-.150154-.2222132-.5181912-.4135991-1.1079451-.1945971-.5801696-.3513023-1.1290306-.4675468-1.6191078-.4386463-2.0056745-.6550793-4.1365839-.6550793-6.3895334,0-2.5896779.2755187-5.0886244.8278404-7.5096186.2697385.1309854.542046.3808162.8182069.7520481.2825832.3648424.4174525.6581219.4174525.8702544,0,.9360666-.084775,2.3340965-.2607473,4.2087856-.1849636,1.8657438-.2665274,3.2759138-.2665274,4.2400944,0,2.4273837.4611245,4.4554216,1.4084205,6.0713346,0,.1904081-.019267.4459894-.0725725.7737725"/>
        <path class="cls-4" d="m221.2969165,175.0883791c-.0944085,0-.2164331-.0223634-.34488-.0498384-.8406851-1.0517172-1.4899843-2.5213099-1.9350529-4.408778-.3416688-1.6037729-.6711352-3.2011562-1.012804-4.8138745-.3140527-1.191648-.7963709-2.2900088-1.4052094-3.2791085-1.2106123,1.5040962-2.348652,3.7314875-3.4276062,6.6923973-.604985,1.6312479-1.0217953,2.7513331-1.2574954,3.3225574-.5234212,1.2197619-1.0751008,2.2682844-1.6588921,3.135344-.3538713.1840186-.6647128.2715552-.9408737.2715552-.5105765,0-1.0314288-.4587685-1.5580612-1.3820561-.1945971-.3897615-.3956165-.7833568-.5927826-1.1667288-.2665274-.4868824-.5266324-.8331952-.7591213-1.0517172-.2254244-.4555737-.4450686-1.0421329-.6833376-1.7782071-.3673582-1.1481992-.5645242-1.7692618-.5805801-1.8504089-.5613131-1.5846043-1.338417-2.6893546-2.307549-3.3033888-.5523218.9635416-1.3268567,2.4082151-2.3146136,4.3237972-.7713238,1.656806-1.1662981,3.1794318-1.1662981,4.5614879,0,.6146731.0783526,1.2261515.2318467,1.8280455-.388552.3181988-.6550793.4741034-.8060045.4741034-.0500943,0-.0969774,0-.1470717-.0249192-.7905908-.8830335-1.1919875-2.0120641-1.1919875-3.38198,0-.8325562.1194556-1.4753433.3326775-1.930917.1348693-.1967976.3294664-.5022173.5799379-.9232876.34488-.6459818.9472961-2.1155745,1.787339-4.4023885.6807687-1.8408246,1.420623-3.2382155,2.2080027-4.2087856l.0533055.0031948c.8400429-.0376982,1.6775169.7923021,2.5214132,2.4740273.2851522.5737801.9029819,2.0216484,1.8560581,4.3646903.7559102,1.8127106,1.5208116,3.3161678,2.2985577,4.4956757.8535298-1.014019,1.5805394-2.1654129,2.1861667-3.450348.7019625-1.7194234,1.4077783-3.4445975,2.110383-5.1825505.8560988-2.0337885,1.8252308-3.6126422,2.8945515-4.7295326,1.0442735.0434488,1.7494471.6549272,2.1168053,1.8248507.1348693.5494999.2755187,1.1015556.4264438,1.656806.1907437.6459818.4071768,1.1545887.6801265,1.519431.5080076,4.1589473,1.3204344,7.2789564,2.4616853,9.3657781,0,.6677062-.2100107,1.0050736-.6550793,1.0050736"/>
        <path class="cls-4" d="m247.0736457,168.3461435c-.3320353.0715628-.8779347.1904081-1.617789.383372.0879861.8331952.429655,1.8037653,1.0095928,2.9014871.3416688.5648348.7905908,1.3916404,1.3641064,2.4772221-.1156022.1284296-.2479026.1999924-.407819.1999924-.3069882.0031948-.5452572-.2249116-.7019625-.6804853-.1823946-.5488609-.4797493-1.1290306-.900413-1.7500932-.3731383-.5367208-.7398543-1.0670521-1.1065703-1.5973833-.2357001-.3648424-.4457108-.7769673-.6088384-1.2012323l-4.5059182.4747423c-1.4585148,2.9979691-2.2702994,5.5499487-2.4366382,7.6374093h-.0976197c-.1599164,0-.366716-.1437645-.6364545-.424265l-.1785412-.1533488.0064223-.1744343c0-.767383.1631276-1.7500932.5047964-2.9264063.1945971-.6555661.4669046-1.6970601.8027933-3.1295935-.8560988-.1182064-1.4238342-.492633-1.7154087-1.1322253.0783526-.2651656.3949743-.4491842.9344514-.5520557.4482798-.0843418.7372854-.1437645.8560988-.178268.3044192-.096482.5548907-.2491918.7559102-.4491842.8528876-2.7736964,1.2825426-4.1589473,1.2825426-4.1742822.5484684-1.5756589,1.1573068-2.888708,1.8123861-3.9557601.2292778.1118168.5677354.3239493,1.0070239.6453429-.2697385.452379-.407819.9360666-.407819,1.451063,0,.5897539.1913859,1.2727951.5581019,2.0561518.3545135.630008.7026047,1.2664055,1.0282176,1.8996083.2511137.4900772.4424997.9207318.5805801,1.3104933.2350579.1437645.4951629.2217168.774535.2217168.3352465,0,.7931598-.1124558,1.3891535-.3309778.5394771-.1936029.9440849-.2996691,1.2163924-.2996691.4110302,0,.6338856.3309778.6428769.9769597-.2787298.1993534-.6865488.3648424-1.2041899.4741034m-5.9143387-4.4273077l-1.0596871,3.8279695c.2793721.0472825.4733269.0722017.6024161.0779523.2067996,0,.5105765-.0587837.9119732-.16485.3988277-.109261.7122382-.1622941.9318825-.1622941.1001886,0,.3069882.0338645.6332433.1060663-.3949743-1.1858974-1.0693207-2.424189-2.0198279-3.6848439"/>
        <path class="cls-4" d="m270.025827,176.0864242c-1.9755137,0-3.8418476-.3776214-5.5855146-1.1290306-.2536827-.1003157-.4701158-.2594151-.6550793-.4747423-1.2889649-1.4913171-1.9382641-3.2631347-1.9382641-5.3378162,0-1.0018788.1631276-1.9500856.4771803-2.8548435.8715124-2.4177994,2.5117796-4.1678926,4.9041036-5.2541133.323044-.1527098.6146185-.2338569.8625211-.2523866,1.420623-.0127791,2.540038.3712319,3.3492536,1.1545887v.0996767c0,.2306622.084775.4772981.2479026.739269.1689077.2619709.3384577.4990226.5015852.7424638.0687191.1341802.1001886.2498308.1001886.3463127,0,.1188453-.0655079.2281063-.2035884.3495075h-.0661502c-.3570825.0153349-.8528876-.2089377-1.4893421-.6958202-.7058159-.5367208-1.2703401-.8050812-1.6871504-.8050812-.3917631,0-.7809573.1469593-1.1855651.452379-1.2009788.849169-2.173322,1.9315559-2.8913403,3.2541894-.7552679,1.3731107-1.1258373,2.7736964-1.1258373,4.2087856,0,.5584452.0533055,1.1418096.1727611,1.7283688,1.1759316,1.2197619,2.778307,1.8286845,4.8289622,1.8286845.8027933,0,1.869545-.1156506,3.1989707-.3309778,1.5587035-.2498308,2.6119682-.3961511,3.1732813-.424265.1663388.1124558.3044192.28689.4206637.520747.1220246.2344959.2414802.4619633.3506601.6804853-1.4925533.9699312-3.4115504,1.4536188-5.7602024,1.4536188"/>
        <path class="cls-4" d="m303.7213092,176.7854392c-.2793721.0153349-.5176411-.1718784-.6961823-.5769749-.104042-.2683604-.2761609-.6395923-.5240635-1.1296695l-.9376626-6.2866619c-.6743464.2530255-1.3763088.3808162-2.1135942.3808162-.4547021,0-1.1380398-.0498384-2.0416639-.137375-.9029819-.096482-1.5831084-.137375-2.0345993-.137375-1.4270454,0-2.6158217.3776214-3.5534842,1.12328.0314695.3367284.0533055.6958202.0533055,1.0766364,0,.3181988-.0057801.7986917-.0250472,1.4318944-.0154136.6395923-.0154136,1.1105009-.0154136,1.4223101,0,1.341802.1284469,2.3775454.3949743,3.1385388-.084775.0095843-.1631276.0191686-.2260666.0191686-.2536827,0-.5080076-.2779447-.7616903-.8268056-.1316581-.3495075-.3198328-.808276-.5491106-1.3763055.0128447.1590994.0282583-1.5692694.0224782-5.2068308,0-4.2087856-.4174525-7.3626593-1.2574954-9.4654548.0841327-.1156506.2568939-.1750732.5015852-.1750732h.2254244c.5587441.8018864.9755544,1.9532804,1.2639178,3.4599323.147714.8613091.4392885,2.1967216.8779347,3.9998479.6589327-.2153273,1.3140121-.3245883,1.9568889-.3245883.4424997,0,1.1007902.0466436,1.9729448.1527098.8715124.1003157,1.527234.150154,1.9594579.150154,1.1418932,0,2.1264389-.2996691,2.947857-.876644.0468831-.3060586.0751415-.5808086.0751415-.84853,0-.7737725-.2003772-1.7008938-.6146185-2.8081999-.583149-1.6440269-.8901372-2.5455901-.9530762-2.7296087.1881747-.4153197.366716-.6274522.5330547-.6274522.1785412,0,.4013966.3680371.6582905,1.0734416.1098221.3897615.301208.9200928.555533,1.6037729.7180183,1.4721485,1.1727204,3.231826,1.3544728,5.2815883.062939,1.8222949.1348693,3.6439509.2260666,5.4566615.0655079.889423.1599164,1.6663903.3005658,2.3309018.1066109.3181988.2164331.7546039.3545135,1.3041038v.3022249l.1785412-.1744343h-.1091799Z"/>
        <path class="cls-4" d="m320.4701461,176.7292113c-.0533055.218522-.1913859.3309778-.4110302.3309778-.366716,0-.6743464-.2153273-.9344514-.6306469-.0751415-.1463203-.2196442-.5175522-.4110302-1.095166-.1881747-.5833644-.34488-1.1290306-.4636934-1.6280531-.4328661-2.0063135-.6525104-4.1372229-.6525104-6.3927282,0-2.5896779.2729497-5.0854296.8246293-7.5064238.2697385.1341802.5458994.3801772.8246293.7482144.2761609.3654813.4046078.6619557.4046078.8798387,0,.9392614-.0815638,2.3340965-.2536827,4.2030351-.1817524,1.8714943-.2729497,3.2816644-.2729497,4.2305101,0,2.4427186.4797493,4.464367,1.4109895,6.0898643,0,.1808238-.0154136.4395999-.0655079.7705777"/>
      </g>
      <g id="_現場名および物件種別" data-name="現場名および物件種別">
        <g class="cls-5">
          <path class="cls-4" d="m92.2984759,232.7341211c-.0561523,0-.1049805-.034668-.1469727-.1049805l-.3769531-.7124023c-.0141602-.0136719-.0209961-.0419922-.0209961-.0839844,0-.0693359.0556641-.1044922.1674805-.1044922.7543945.0698242,1.5996094.1186523,2.5356445.1464844h2.7871094c.2236328-.6420898.4086914-1.3442383.5556641-2.105957.1464844-.7612305.2265625-1.4282227.2407227-2.0014648h-2.3051758c-.894043.0141602-1.8930664.1049805-2.996582.2724609h-.0629883c-.0561523,0-.1049805-.034668-.1464844-.1044922l-.3564453-.7128906c-.0141602-.0136719-.0209961-.0415039-.0209961-.0834961,0-.0698242.0488281-.1049805.1469727-.1049805.7260742.0703125,1.5297852.1191406,2.409668.1469727h1.2573242c0-1.0478516-.0488281-1.9350586-.1464844-2.6616211,0-.1396484.0698242-.1884766.2094727-.1469727,1.159668.3496094,1.7392578.6152344,1.7392578.7963867,0,.0703125-.0556641.1401367-.1674805.2099609l-.3354492.2094727v1.5927734h1.5927734l.3979492-.5869141c.0419922-.0556641.1015625-.1430664.1782227-.262207.0766602-.1181641.1430664-.2055664.1992188-.2617188.0556641-.0556641.1118164-.0839844.1674805-.0839844.1259766,0,.3911133.1748047.7963867.5239258.4052734.3496094.6567383.6220703.7543945.8173828.0136719.0698242.0068359.1396484-.0209961.2094727-.0834961.1538086-.2446289.2304688-.4819336.2304688h-2.6821289c.7124023.2236328,1.2080078.3984375,1.487793.5239258.2792969.1259766.4189453.2304688.4189453.3144531,0,.0419922-.0625.0908203-.1884766.1464844l-.3774414.1469727c-.6005859,1.159668-1.2084961,2.1513672-1.8227539,2.9755859h1.6552734l.3984375-.6074219c.0556641-.0698193.1152344-.1538086.1777344-.2514648.0629883-.0976562.1293945-.1816406.1992188-.2514648s.1328125-.1049805.1884766-.1049805c.0839844,0,.2548828.1049805.5136719.3144531.2583008.2094727.4995117.4331055.7231445.6704102.2231445.237793.3349609.4052734.3349609.5029297-.0141602.0981445-.0664062.1748047-.1572266.2304688-.0908203.0561523-.2060547.0839844-.3457031.0839844h-6.0141602c-.8945312.0141602-1.8935547.1049805-2.9970703.2724609h-.0625Zm7.1040039,7.0830078c-.1396484-.4609375-.4160156-.949707-.8276367-1.4667969-.4125977-.5166016-.855957-.9707031-1.3310547-1.3623047v2.0537109c.0419922,1.7045898.0908203,2.9897461.1469727,3.855957,0,.0698242-.0209961.1328125-.0629883.1889648-.1118164.1391602-.2724609.2583008-.4819336.355957s-.4121094.1469727-.6079102.1469727c-.1254883,0-.2304688-.0419922-.3144531-.1259766-.0834961-.0839844-.1254883-.1816406-.1254883-.293457.0839844-1.1733398.1396484-2.347168.1674805-3.5205078v-1.9907227c-1.0058594,1.7045898-2.2705078,3.1152344-3.7929688,4.2329102-.0976562.0698242-.1748047.0629883-.2304688-.0209961l-.0419922-.0625c-.0419922-.0976562-.0351562-.1748047.0209961-.230957.7680664-.7958984,1.4492188-1.6972656,2.043457-2.703125.5932617-1.0058594,1.0791016-2.0537109,1.4560547-3.1435547h-1.0683594c-.6010742.0141602-1.1948242.0981445-1.7817383.2514648-.1118164.0283203-.1816406,0-.2094727-.0834961l-.3769531-.7543945c-.0141602-.0141602-.0209961-.0419922-.0209961-.0839844,0-.0698242.0488281-.1049805.1464844-.1049805.7685547.0703125,1.6137695.1191406,2.5356445.1469727h1.3203125c0-.8242188-.0419922-1.5717773-.1254883-2.2426758,0-.1391602.0698242-.1884766.2094727-.1464844,1.1035156.3632812,1.6557617.6357422,1.6557617.8173828,0,.0556641-.0493164.1186523-.1469727.1884766l-.3144531.2094727v1.1738281h1.8862305l.3979492-.565918c.0419922-.0556641.1015625-.1362305.1782227-.2412109.0766602-.1044922.1430664-.1850586.1992188-.2407227.0556641-.0556641.1118164-.0839844.1674805-.0839844.1118164,0,.3598633.1713867.7441406.5136719s.625.6113281.7231445.8066406c.0136719.0698242.0068359.1396484-.0209961.2094727-.0839844.1538086-.2446289.2304688-.4819336.2304688h-3.793457v.9638672l.0209961-.0205078c1.1318359.2929688,1.9628906.6914062,2.4941406,1.1943359.5307617.5029297.7958984.9921875.7958984,1.4667969,0,.2236328-.0556641.4052734-.1674805.5449219s-.2587891.2094727-.4399414.2094727c-.1538086,0-.2866211-.034668-.3984375-.1044922-.0556641-.027832-.1044922-.0839844-.1464844-.1679688Zm-4.7363281-8.340332c-.0556641-.0556641-.0834961-.1259766-.0834961-.2094727-.0283203-.4614258-.1293945-.9780273-.3041992-1.5507812s-.3735352-1.0825195-.597168-1.5297852c-.0419922-.0839844-.0209961-.1538086.0629883-.2099609.0698242-.0415039.1464844-.034668.2304688.0209961.6289062.4472656,1.0898438.9116211,1.3833008,1.3935547.293457.4824219.4399414.9189453.4399414,1.3100586,0,.293457-.0629883.5273438-.1884766.7021484-.1259766.1748047-.2866211.2617188-.4819336.2617188-.1401367,0-.293457-.0629883-.4614258-.1884766Zm15.1201172-.5029297c.4399414.3911133.7089844.6845703.8066406.8798828.0141602.0703125.0141602.1401367,0,.2099609-.0834961.1538086-.2446289.2304688-.4819336.2304688h-2.2001953v5.8046875c.027832,1.746582.0834961,3.3461914.1674805,4.7988281,0,.0839844-.0283203.1538086-.0839844.2099609-.3212891.3208008-.7055664.4819336-1.1523438.4819336-.1118164,0-.2167969-.0419922-.3144531-.1259766s-.1464844-.1816406-.1464844-.293457c.0556641-.8242188.1044922-1.6240234.1464844-2.3994141s.0698242-1.7915039.0839844-3.0493164v-5.4272461h-2.996582v.628418c0,1.480957-.1049805,2.8291016-.3144531,4.0444336-.2094727,1.2158203-.6362305,2.3925781-1.2783203,3.53125-.6430664,1.1391602-1.5859375,2.1337891-2.8291016,2.9863281-.0839844.0556641-.1611328.0488281-.2304688-.0209961l-.0419922-.0419922c-.0839844-.0834961-.0839844-.1674805,0-.2514648,1.3549805-1.2851562,2.2666016-2.7519531,2.7348633-4.4008789.4677734-1.6479492.7016602-3.597168.7016602-5.8466797v-3.4365234c0-1.2016602-.0556641-2.3051758-.1674805-3.3115234v-.0415039c0-.1118164.0556641-.1469727.1674805-.1049805l1.4882812.565918c.0834961-.027832.4047852-.1469727.9638672-.3564453.6425781-.2514648,1.2817383-.5620117,1.9174805-.9326172.6357422-.3696289,1.1557617-.7368164,1.5610352-1.1000977.0839844-.0698242.1679688-.0629883.2514648.0209961.4892578.4609375.8310547.8037109,1.0268555,1.0268555.1958008.2236328.293457.3774414.293457.4609375,0,.0981445-.0976562.1328125-.293457.1049805l-.4819336-.0419922c-.6987305.265625-1.5507812.5239258-2.5566406.7753906s-1.9770508.4472656-2.9125977.5869141v4.5263672h4.2958984l.4399414-.628418c.0698242-.0839844.1396484-.1748047.2094727-.2724609s.1396484-.1850586.2094727-.262207c.0698242-.0766602.1328125-.1152344.1889648-.1152344.1113281,0,.3876953.1958008.8276367.5869141Z"/>
          <path class="cls-4" d="m123.460097,238.4343164c.9077148.7543945,2.074707,1.4145508,3.4995117,1.9799805,1.425293.565918,2.8710938.9746094,4.3378906,1.2260742.0976562.0283203.1469727.0629883.1469727.1049805,0,.0556641-.0141602.0976562-.0419922.1254883-.0283203.0283203-.0629883.0493164-.1049805.0629883-.2236328.0556641-.4189453.1748047-.5864258.3564453-.1679688.1811523-.293457.390625-.3774414.628418-.0419922.0976562-.1118164.1396484-.2094727.1259766-1.4951172-.4331055-2.8886719-1.0478516-4.1806641-1.8442383-1.2924805-.7963867-2.34375-1.7182617-3.1542969-2.7661133h-.0625v1.5927734c.0419922,1.2851562.0834961,2.2631836.1254883,2.9335938,0,.0839844-.0209961.1469727-.0629883.1884766-.0976562.1259766-.2583008.237793-.4819336.3354492s-.4472656.1464844-.6704102.1464844c-.1259766,0-.2236328-.0415039-.293457-.1254883s-.1049805-.1816406-.1049805-.293457c.0556641-.6704102.1049805-1.5786133.1469727-2.7241211v-1.5927734c-.9780273,1.0058594-2.1796875,1.8720703-3.6044922,2.5986328-1.425293.7260742-3.0039062,1.3129883-4.7363281,1.7602539h-.0415039c-.0703125,0-.1259766-.0351562-.1679688-.1049805l-.0209961-.0415039c-.0141602-.0141602-.0209961-.0419922-.0209961-.0839844,0-.0703125.0419922-.1191406.1259766-.1469727,1.4384766-.5166016,2.7661133-1.1557617,3.9814453-1.9174805,1.2158203-.7612305,2.2353516-1.6030273,3.0595703-2.5249023h-3.3525391c-.8945312.0141602-1.8935547.1044922-2.9970703.2724609h-.0419922c-.0698242,0-.1254883-.034668-.1674805-.1049805l-.3774414-.7333984-.0205078-.0839844c0-.0698242.0483398-.1044922.1464844-.1044922.7543945.0698242,1.5996094.1186523,2.5356445.1464844h5.7001953c0-.628418-.0351562-1.2573242-.1049805-1.8862305,0-.1391602.0698242-.1884766.2094727-.1464844.6425781.2094727,1.0864258.3740234,1.3310547.4926758.2441406.1186523.3666992.2270508.3666992.324707,0,.0556641-.0493164.1186523-.1469727.1884766l-.3139648.2094727v.8173828h5.699707l.4194336-.565918c.0419922-.0556641.1044922-.1391602.1884766-.2514648.0839844-.1113281.1572266-.1953125.2202148-.2514648.0629883-.0556641.1220703-.0834961.1782227-.0834961.1254883,0,.4116211.1708984.8588867.5131836.4472656.3427734.7197266.6113281.8173828.8066406.0136719.0283203.0209961.0629883.0209961.1049805,0,.1118164-.0522461.1958008-.1572266.2514648-.1049805.0561523-.2338867.0839844-.3876953.0839844h-7.125Zm-7.418457-11.1489258c-.8383789,1.1181641-1.8164062,2.0258789-2.934082,2.7241211-.0698242.0561523-.1464844.0419922-.2304688-.0415039l-.0209961-.0209961c-.0698242-.0976562-.0629883-.1748047.0209961-.2304688.3911133-.3911133.7822266-.859375,1.1733398-1.4042969.3774414-.5166016.7441406-1.1591797,1.1005859-1.9277344.355957-.7685547.6040039-1.4462891.7436523-2.0327148.0136719-.1118164.0908203-.1469727.2304688-.1049805,1.0898438.5170898,1.6347656.859375,1.6347656,1.0268555,0,.0561523-.0698242.0976562-.2094727.1254883l-.3774414.0839844c-.3071289.559082-.5517578.9638672-.7333984,1.215332h3.7514648l.355957-.5444336c.0556641-.0698242.1118164-.1469727.1679688-.230957.0556641-.0834961.1152344-.1601562.1777344-.2304688.0629883-.0698242.1220703-.1044922.1782227-.1044922.1118164,0,.3564453.1674805.7333984.5029297.3774414.3349609.6079102.59375.6918945.7753906l.0205078.0834961c0,.2236328-.1748047.3354492-.5234375.3354492h-3.9609375c.3632812.237793.6318359.4926758.8066406.7651367s.262207.5341797.262207.7856445c0,.2236328-.0595703.4086914-.1782227.5551758-.1186523.1469727-.269043.2202148-.4506836.2202148-.1538086,0-.300293-.0488281-.4399414-.1464844-.0703125-.0556641-.1049805-.1259766-.1049805-.2099609-.027832-.3208008-.1083984-.659668-.2407227-1.0161133-.1328125-.3564453-.2832031-.6738281-.4506836-.9536133h-1.1943359Zm-2.0537109,9.3676758c-.0703125,0-.1191406-.034668-.1469727-.1049805l-.6914062-1.2783203c-.0141602-.027832-.0209961-.0629883-.0209961-.1049805,0-.0693359.0419922-.1044922.1259766-.1044922l.5029297-.0839844c.2231445-.0419922.6074219-.1079102,1.1523438-.1992188.5449219-.090332,1.0688477-.1845703,1.5717773-.2827148v-3.3530273h-.9008789c-.4755859.0141602-.9575195.0981445-1.4462891.2514648h-.0629883c-.0556641,0-.1044922-.034668-.1464844-.1044922l-.3564453-.7128906c-.0141602-.0136719-.0209961-.0419922-.0209961-.0834961,0-.0698242.0488281-.1049805.1469727-.1049805.7680664.0703125,1.6206055.1186523,2.5566406.1464844h2.3891602l.355957-.5029297c.0556641-.0693359.1362305-.1743164.2412109-.3139648.1044922-.1396484.1987305-.2099609.2827148-.2099609.1259766,0,.3735352.1542969.7441406.4614258.3701172.3071289.6040039.5517578.7021484.7333984.0136719.0698242.0068359.1396484-.0209961.2094727-.0839844.1538086-.2446289.2304688-.4824219.2304688h-2.703125v3.1015625l.7333984-.1254883c1.0195312-.1958008,1.7045898-.328125,2.0537109-.3984375h.0419922c.0976562,0,.1538086.0419922.1674805.1259766v.0834961c0,.0561523-.034668.1049805-.1044922.1469727-2.0820312.7407227-4.1845703,1.453125-6.3081055,2.137207-.0419922.1958008-.1396484.3354492-.293457.4194336-.0136719.0141602-.034668.0209961-.0625.0209961Zm7.2299805-7.2509766l-.0419922-.0419922c-.0703125-.0839844-.0703125-.1606445,0-.2304688.293457-.293457.5449219-.6005859.7543945-.921875.390625-.5170898.7612305-1.1455078,1.1103516-1.8862305.3491211-.7402344.6005859-1.4042969.7548828-1.9907227.027832-.1396484.1044922-.1748047.2304688-.1049805,1.0893555.4750977,1.6342773.7963867,1.6342773.9638672,0,.0561523-.0698242.1049805-.2094727.1469727l-.3769531.1044922c-.2514648.4472656-.5239258.8666992-.8173828,1.2573242h4.4423828l.3984375-.5864258c.0419922-.0556641.1010742-.1430664.1782227-.262207.0766602-.1186523.1430664-.2060547.1987305-.2617188s.1118164-.0839844.1679688-.0839844c.1113281,0,.3837891.1782227.8173828.5341797.4326172.3564453.6982422.6323242.7958984.828125.0141602.0698242.0073242.1396484-.0205078.2094727-.0839844.1396484-.2446289.2094727-.4824219.2094727h-4.5053711c.4189453.237793.7260742.4960938.921875.7753906.1958008.2797852.293457.5522461.293457.8173828,0,.2236328-.0629883.4086914-.1884766.5551758-.1259766.1469727-.2797852.2202148-.4609375.2202148-.1538086,0-.3007812-.0488281-.4404297-.1469727-.0556641-.027832-.0976562-.090332-.1254883-.1884766-.0561523-.3212891-.1748047-.6669922-.3564453-1.0371094s-.3911133-.7021484-.628418-.9956055h-1.4667969c-.6430664.7685547-1.3203125,1.4111328-2.0332031,1.9282227l1.5507812.7958984h3.5419922l.3139648-.4399414c.0419922-.0556641.1118164-.1430664.2099609-.2617188.097168-.1186523.1884766-.1782227.2724609-.1782227.1113281,0,.324707.1606445.6391602.4819336.3139648.3217773.5131836.5800781.597168.7753906.0419922.0839844.0209961.1538086-.0629883.2094727-.1538086.0981445-.3427734.1679688-.565918.2094727v3.7724609c0,.1118164.0209961.1850586.0629883.2197266.0419922.0351562.1323242.0527344.2724609.0527344h1.3413086c.0556641-.0141602.1254883-.0209961.2094727-.0209961.0556641-.0136719.1113281-.0698242.1674805-.1679688.0976562-.2792969.2441406-.8725586.4399414-1.78125.0141602-.0976562.0629883-.1464844.1469727-.1464844.0698242,0,.1044922.0561523.1044922.1674805l.0629883,1.78125c.1679688.0839844.2832031.1645508.3457031.2412109.0629883.0766602.0942383.1782227.0942383.3037109,0,.2797852-.1606445.4819336-.4819336.6079102-.3212891.1254883-.887207.1884766-1.6972656.1884766h-1.0268555c-.5170898,0-.855957-.0839844-1.0166016-.2514648s-.2407227-.4677734-.2407227-.9008789v-4.2333984h-3.9819336v1.3623047c0,.6987305-.1083984,1.3339844-.324707,1.9067383-.2167969.5732422-.6601562,1.125-1.3305664,1.6557617-.6708984.53125-1.6489258.9711914-2.934082,1.3203125-.1118164.027832-.1816406,0-.2094727-.0839844l-.0210038-.0419922c-.0419845-.0976562-.0141525-.1674805.083992-.2094727,1.3549805-.5727539,2.2768555-1.2260742,2.7661133-1.9594727.4887695-.7333984.7333984-1.5888672.7333984-2.5668945v-1.3623047c0-.5585938-.027832-1.0336914-.0835038-1.4248047l-.2934493.1884766c-.0981445.0698242-.1748047.0629883-.2304688-.0209961Zm2.2001953,2.3681641c.0556641-.0556641.1259766-.0766602.2094727-.0629883.9360352.1816406,1.6274414.4643555,2.074707.8486328.4467773.3842773.6704102.7719727.6704102,1.1630859,0,.1958008-.0522461.3530273-.1567383.4716797-.1049805.1186523-.2412109.1782227-.4086914.1782227-.1259766,0-.2446289-.027832-.3564453-.0839844-.0698242-.027832-.1118164-.0839844-.1254883-.1674805-.1259766-.3632812-.3671875-.7441406-.7231445-1.1425781-.3564453-.3979492-.7304688-.7294922-1.1210938-.9951172-.1123047-.0698242-.1333008-.1396484-.0629883-.2094727Z"/>
          <path class="cls-4" d="m138.7164446,225.9860742l1.0268555.5449219c.5585938.1958008.8383789.3564453.8383789.4819336,0,.0561523-.0839844.1049805-.2514648.1469727l-.3774414.0834961c-.628418,1.2436523-1.456543,2.4907227-2.4833984,3.7407227-1.0268555,1.2504883-2.1621094,2.309082-3.4052734,3.1748047-.0839844.0703125-.1606445.0561523-.2304688-.0415039s-.0629883-.1748047.0209961-.230957c1.159668-1.1171875,2.2143555-2.4936523,3.1645508-4.128418.3349609-.5585938.6352539-1.1660156.9008789-1.8227539.2651367-.6567383.4609375-1.2714844.5869141-1.8442383.0136719-.1118164.0839844-.1469727.2094727-.1049805Zm.6704102,7.5234375c-.7958984.0283203-1.5576172.1186523-2.2841797.2724609h-.0625c-.0561523,0-.1049805-.034668-.1469727-.1049805l-.3979492-.7543945c-.0141602-.0136719-.0209961-.0419922-.0209961-.0839844,0-.0693359.0556641-.1044922.1674805-.1044922.7543945.0698242,1.5996094.1186523,2.5356445.1464844h7.8168945l.3349609-.4189453c.0419922-.0419922.1157227-.1259766.2202148-.2514648.1049805-.1259766.1992188-.1884766.2832031-.1884766.1113281,0,.3525391.1538086.7226562.4609375.3701172.3076172.6040039.559082.7021484.7543945.0419922.0839844.0209961.1538086-.0629883.2094727-.1538086.1118164-.3842773.1884766-.6914062.2304688-.2094727,5.1972656-.7475586,8.2290039-1.6137695,9.0952148-.4892578.4887695-1.1875.7543945-2.0957031.7963867-.1118164,0-.1674805-.0561523-.1674805-.1679688-.0283203-.3911133-.1606445-.6635742-.3979492-.8168945-.1679688-.1123047-.4335938-.2202148-.7963867-.3251953-.3637695-.1044922-.7475586-.1918945-1.152832-.2617188-.1118164-.0283203-.1674805-.0908203-.1674805-.1884766v-.0419922c0-.0556641.0170898-.0976562.0522461-.1259766.034668-.027832.0800781-.034668.1362305-.0209961,1.4111328.1538086,2.375.2304688,2.8920898.2304688.1953125,0,.3491211-.0170898.4609375-.0522461.1118164-.034668.2094727-.1010742.293457-.1992188.3071289-.2792969.565918-1.1381836.7753906-2.5776367.2094727-1.4384766.3632812-3.2758789.4609375-5.5112305h-5.0292969c-.1401367,1.3271484-.4125977,2.5498047-.8173828,3.6674805-.4052734,1.1176758-1.1108398,2.2285156-2.1166992,3.3320312s-2.402832,2.109375-4.1914062,3.0175781c-.0976562.0419922-.1748047.0209961-.2304688-.0629883l-.0625-.0839844c-.0141602-.0136719-.0209961-.034668-.0209961-.0625,0-.0703125.0693359-.1538086.2094727-.2514648,1.5087891-.9501953,2.675293-1.9663086,3.4995117-3.0493164.8242188-1.0825195,1.3935547-2.1445312,1.7080078-3.1855469.3144531-1.0405273.5063477-2.1479492.5761719-3.3212891h-1.3203125Zm9.1791992-3.855957c1.1591797,1.1875,2.4584961,2.1376953,3.8974609,2.8500977.0698242.0419922.1049805.0834961.1049805.1254883,0,.0561523-.0141602.0981445-.0419922.1259766s-.0629883.0488281-.1044922.0629883c-.2236328.0556641-.4296875.1674805-.6181641.3349609-.1889648.1679688-.3320312.3564453-.4296875.565918-.0419922.1118164-.1123047.1328125-.2094727.0629883-1.3134766-.9501953-2.4697266-2.105957-3.4682617-3.4682617-.9990234-1.3623047-1.75-2.8188477-2.2529297-4.3696289h-1.487793c-.9223633.0283203-1.7954102.1191406-2.6196289.2724609h-.0629883c-.0561523,0-.1049805-.034668-.1464844-.1044922l-.3774414-.7333984-.0209961-.0839844c0-.0698242.0488281-.1049805.1469727-.1049805.7543945.0703125,1.5991211.1191406,2.5356445.1469727h1.5507812l.5449219-.8383789c.0556641-.0976562.1323242-.1118164.2304688-.0419922l1.4667969,1.0478516c.0976562.0703125.1254883.1259766.0839844.1674805-.2099609.2099609-.6289062.3354492-1.2573242.3774414.5307617,1.215332,1.3754883,2.4169922,2.5356445,3.6044922Z"/>
          <path class="cls-4" d="m156.9898821,229.0666406c-.6005859.0141602-1.2084961.0981445-1.8227539.2514648-.1123047.0283203-.1821289,0-.2099609-.0834961l-.355957-.7128906c-.0141602-.0136719-.0209961-.0419922-.0209961-.0834961,0-.0698242.0488281-.1049805.1464844-.1049805.7680664.0703125,1.6206055.1186523,2.5566406.1464844h2.2426758l.3769531-.5654297c.0419922-.0698242.1010742-.1572266.1782227-.262207.0766602-.1044922.1396484-.1850586.1884766-.2407227s.1010742-.0839844.1572266-.0839844c.1118164,0,.3632812.1713867.7543945.5131836.3911133.3427734.6357422.6113281.7333984.8071289l.0209961.0834961c0,.0981445-.0488281.1782227-.1464844.2412109-.0981445.0629883-.2167969.0942383-.3564453.0942383h-4.4428711Zm-.2094727,13.1186523l.0629883.7543945c.0136719.0839844,0,.1538086-.0419922.2094727-.0976562.1118164-.2446289.2128906-.4399414.3041992-.1958008.090332-.3984375.1362305-.6079102.1362305-.0834961,0-.1572266-.0419922-.2197266-.1259766-.0629883-.0839844-.0947266-.1816406-.0947266-.293457.0556641-.5727539.0976562-1.2851562.1259766-2.137207v-1.2993164c0-1.4672852-.0703125-2.7104492-.2094727-3.7304688v-.0419922c0-.0556641.0136719-.090332.0419922-.1044922.027832-.0136719.0693359-.0068359.1254883.0209961l1.3623047.628418h2.3261719l.293457-.3979492c.0419922-.0419922.1079102-.1186523.1987305-.2304688s.1782227-.1679688.262207-.1679688c.1254883,0,.3803711.1435547.7646484.4296875.3842773.2866211.6254883.5205078.7231445.7021484.0419922.0839844.0209961.1538086-.0629883.2094727-.1816406.1538086-.4262695.2587891-.7333984.3144531v1.6762695c.0419922,1.3696289.0839844,2.3964844.1259766,3.0805664,0,.0839844-.0209961.1538086-.0629883.2099609-.1118164.1113281-.2797852.2163086-.5029297.3139648-.2236328.0976562-.4262695.1469727-.6079102.1469727-.1254883,0-.2167969-.1049805-.2724609-.3144531,0-.0283203.0136719-.0981445.0419922-.2094727l.0419922-.2094727v-.3774414h-2.640625v.5029297Zm2.347168-16.890625c.0419922-.0556641.1010742-.1362305.1782227-.2412109.0766602-.1044922.1430664-.1850586.1992188-.2407227.0556641-.0556641.1113281-.0839844.1674805-.0839844.1259766,0,.3803711.1645508.7651367.4926758.3837891.328125.625.590332.7226562.7856445l.0209961.0839844c0,.1118164-.0522461.1987305-.1572266.2617188-.1044922.0629883-.2338867.0942383-.3876953.0942383h-1.6552734c-.8666992.0141602-1.8515625.1049805-2.9550781.2724609h-.0629883c-.0556641,0-.1044922-.034668-.1464844-.1044922l-.3774414-.7333984-.0205078-.0839844c0-.0839844.0556641-.1118164.1674805-.0839844.6704102.0703125,1.3549805.1123047,2.0537109.1259766h1.1108398l.3769531-.5449219Zm.0839844,5.3227539c.0419922-.0556641.1010742-.1323242.1782227-.2304688.0766602-.0976562.1391602-.1674805.1884766-.2094727.0488281-.0419922.1010742-.0629883.1572266-.0629883.1113281,0,.3422852.1538086.6914062.4609375.3491211.3076172.565918.5522461.6499023.7333984.0136719.0703125.0136719.1401367,0,.2099609-.0839844.1538086-.2446289.2304688-.4824219.2304688h-1.6552734c-.8666992.0141602-1.8374023.1044922-2.9130859.2724609h-.0629883c-.0556641,0-.1044922-.034668-.1464844-.1049805l-.3774414-.7543945-.0205078-.0839844c0-.0698242.0556641-.1044922.1674805-.1044922.628418.0698242,1.3413086.1186523,2.1376953.1464844h1.1313477l.3564453-.5029297Zm0,2.6826172c.0556641-.0698242.1362305-.1748047.2407227-.3144531.1049805-.1396484.1992188-.2094727.2832031-.2094727.1113281,0,.3422852.1538086.6914062.4609375.3491211.3076172.565918.5522461.6499023.7333984.0136719.0703125.0136719.1396484,0,.2094727-.0839844.1538086-.2446289.2304688-.4824219.2304688h-1.6552734c-.8666992.0141602-1.8374023.1049805-2.9130859.2724609h-.0629883c-.0556641,0-.1044922-.034668-.1464844-.1044922l-.3774414-.7128906c-.0136719-.0136719-.0205078-.0415039-.0205078-.0834961,0-.0698242.0556641-.1049805.1674805-.1049805.628418.0703125,1.3413086.1191406,2.1376953.1469727h1.1313477l.3564453-.5239258Zm-2.4311523,3.8349609v3.9394531h2.640625v-3.9394531h-2.640625Zm14.5439453-1.3413086c.0415039-.0556641.1010742-.1362305.1777344-.2412109.0766602-.1044922.1396484-.1811523.1889648-.2304688.0488281-.0488281.1010742-.0732422.1572266-.0732422.1113281,0,.359375.1645508.7436523.4926758s.625.5834961.7231445.7646484c.0136719.0703125.0136719.1401367,0,.2094727-.0839844.1542969-.2446289.2304688-.4819336.2304688h-5.1552734c.3354492.8945312.8100586,1.6767578,1.4248047,2.347168.3911133-.2929688.7822266-.6420898,1.1738281-1.0478516.390625-.4047852.7192383-.7890625.9848633-1.1523438.027832-.0419922.065918-.0664062.1152344-.0732422.0488281-.0068359.0942383.0175781.1362305.0732422.5869141.5449219.9394531.9116211,1.0581055,1.1000977s.1015625.2758789-.0522461.262207l-.2724609-.0419922c-.6704102.3911133-1.6137695.8105469-2.8291016,1.2573242,1.0756836,1.0898438,2.3330078,1.8305664,3.7719727,2.2211914.0976562.0141602.1469727.0698242.1469727.1679688-.0141602.0556641-.0629883.1044922-.1469727.1464844-.2094727.0698242-.3945312.1918945-.5551758.3666992s-.269043.3876953-.324707.6391602c-.0419922.1259766-.1123047.1606445-.2094727.1049805-1.2714844-.559082-2.2983398-1.3588867-3.0805664-2.3994141-.7827148-1.0410156-1.3764648-2.3647461-1.78125-3.9716797h-.0629883c-.53125.53125-1.1318359.9990234-1.8022461,1.4042969v2.996582l2.8920898-.5864258h.0415039c.0839844,0,.1396484.034668.1679688.1044922v.0419922c0,.0703125-.0351562.1259766-.1049805.1674805-1.5786133.7128906-3.234375,1.3901367-4.9667969,2.0332031-.0698242.1953125-.1538086.3349609-.2514648.4189453-.0136719.0136719-.0415039.0209961-.0834961.0209961-.0703125,0-.1191406-.0351562-.1469727-.1049805l-.7124023-1.3203125c-.0141602-.027832-.0209961-.0625-.0209961-.1044922,0-.0698242.0419922-.1049805.1259766-.1049805l1.8442383-.3354492v-2.5566406c-.8525391.4335938-1.7817383.8105469-2.7875977,1.1318359h-.0625c-.0703125,0-.1259766-.027832-.1679688-.0839844l-.0419922-.1044922c-.0415039-.0976562-.0136719-.1679688.0839844-.2094727,1.7045898-.7685547,3.0874023-1.7045898,4.1494141-2.8085938h-1.2993164c-.7265625.0141602-1.4458008.0981445-2.1586914.2519531-.1118164.027832-.1816406,0-.2094727-.0839844l-.355957-.7543945-.0209961-.0839844c0-.027832.0136719-.0522461.0419922-.0732422.027832-.0209961.0625-.0244141.1044922-.0107422.6845703.0703125,1.3481445.1123047,1.9907227.1259766h1.0478516v-1.6557617h-.6914062c-.293457.0141602-.6079102.0913086-.9428711.2304688l-.0839844.0209961c-.0698242,0-.1186523-.034668-.1464844-.1044922l-.3564453-.6914062-.0209961-.0839844c0-.0976562.0556641-.1328125.1674805-.1049805.293457.0561523.7407227.0981445,1.3413086.1259766h.7333984v-1.5927734h-.8378906c-.4335938.0141602-.8735352.0976562-1.3203125.2514648h-.0629883c-.0561523,0-.1049805-.034668-.1464844-.1049805l-.3564453-.6704102c-.0141602-.027832-.0209961-.0629883-.0209961-.1049805,0-.0693359.0488281-.097168.1464844-.0834961.3774414.0556641.9360352.0976562,1.6767578.1254883h.921875c0-.628418-.034668-1.2709961-.104501-1.9277344,0-.1396484.069833-.1889648.2094815-.1469727.6147461.2094727,1.0405185.3740234,1.2783203.4926758.2373047.1186523.3564453.2270508.3564453.324707,0,.0703125-.0629883.1396484-.1889648.2094727l-.3349609.2099609v.8378906h2.7871094c0-.628418-.0351562-1.2709961-.1049805-1.9277344,0-.1396484.0698242-.1889648.2094727-.1469727.6147461.2094727,1.0410156.3740234,1.2783203.4926758.237793.1186523.3564453.2270508.3564453.324707,0,.0703125-.0561523.1396484-.1674805.2094727l-.3354492.2099609v.8378906h.7753906l.3564453-.5239258c.0415039-.0556641.1010742-.1362305.1777344-.2407227.0766602-.1049805.1396484-.1816406.1889648-.2304688.0488281-.0488281.1010742-.0737305.1567383-.0737305.1118164,0,.3530273.1611328.7231445.4824219s.6040039.5727539.7021484.7543945l.0209961.0834961c0,.2236328-.1748047.3354492-.5239258.3354492h-2.5776367v1.5927734h.5449219l.355957-.5029297c.0419922-.0556641.0976562-.1328125.1679688-.2304688.0698242-.0976562.1289062-.1708984.1782227-.2202148.0488281-.0488281.1010742-.0732422.1567383-.0732422.1259766,0,.3671875.1538086.7231445.4609375.3564453.3076172.5761719.5522461.6601562.7333984.0136719.0703125.0068359.1396484-.0209961.2094727-.0834961.1538086-.2446289.2304688-.4819336.2304688h-2.2841797v1.6557617h1.2573242l.3564453-.5239258Zm-6.5385742-8.3408203l.8383789.6499023c.4609375.2236328.6914062.3979492.6914062.5239258,0,.0561523-.0766602.0976562-.2304688.1254883l-.3564453.0209961c-.4887695.4057617-1.1142578.793457-1.8754883,1.1630859-.7617188.3706055-1.5332031.6601562-2.3154297.8696289-.0839844.0141602-.1538086-.0068359-.2094727-.0625l-.0209961-.0209961c-.0283203-.0419922-.0385742-.0874023-.0317383-.1362305s.0385742-.0805664.0942383-.0942383l.2724609-.1469727c.5869141-.3491211,1.152832-.7822266,1.6977539-1.2993164.5449219-.5166016.949707-1.0268555,1.215332-1.5297852.0698242-.1113281.1464844-.1323242.2304688-.0629883Zm6.2241211-1.3198242c.0419922-.0556641.1010742-.1430664.1782227-.262207.0766602-.1186523.1430664-.2060547.1987305-.2617188s.1118164-.0839844.1679688-.0839844c.1113281,0,.3837891.1816406.8173828.5449219.4326172.3632812.6982422.6425781.7958984.8383789.0141602.0698242.0073242.1396484-.0205078.2094727-.0839844.1396484-.237793.2094727-.4614258.2094727h-7.5019531c-.8945312.0141602-1.8935547.1049805-2.9970703.2724609h-.0629883c-.0556641,0-.1044922-.034668-.1464844-.1049805l-.3564453-.7333984c-.0136719-.0136719-.0205078-.0419922-.0205078-.0839844,0-.0693359.0483398-.1044922.1464844-.1044922.7680664.0698242,1.6206055.1186523,2.5566406.1464844h2.1166992c0-.7822266-.0419922-1.487793-.1259766-2.1162109,0-.1396484.0698242-.1889648.2094727-.1469727,1.159668.3496094,1.7397461.6152344,1.7397461.7963867,0,.0703125-.0561523.1396484-.1679688.2094727l-.355957.2304688v1.0268555h2.8916016l.3984375-.5864258Zm-2.5356445,6.3286133h-2.7871094v1.5927734h2.7871094v-1.5927734Zm0,2.2001953h-2.7871094v1.6557617h2.7871094v-1.6557617Zm-.1049805-6.7265625v-.0209961c.0419922-.0698242.1186523-.1049805.2304688-.1049805.9921875.0703125,1.809082.2270508,2.4521484.4716797.6420898.2446289,1.1103516.5273438,1.4038086.8486328s.4404297.621582.4404297.9008789c0,.1679688-.0561523.3076172-.1679688.4194336s-.2587891.1674805-.4399414.1674805c-.0703125,0-.1259766-.0068359-.1674805-.0209961-.0839844-.027832-.1401367-.0556641-.1679688-.0834961-.3491211-.3911133-.8588867-.8139648-1.5297852-1.2680664-.6704102-.4536133-1.3271484-.8208008-1.9697266-1.1000977-.1123047-.0698242-.1401367-.1396484-.0839844-.2094727Z"/>
          <path class="cls-4" d="m178.3868548,232.0217187c-.6987305,1.1176758-1.5229492,2.1582031-2.4731445,3.1225586-.0698242.0698242-.1464844.0766602-.2304688.0205078l-.0419922-.0205078c-.0834961-.0556641-.0908203-.1328125-.0205078-.230957,1.1591797-1.6762695,2.2280273-3.7436523,3.2060547-6.2026367.2514648-.6147461.4926758-1.3378906.7231445-2.1689453s.3803711-1.5405273.4501953-2.1274414c.0141602-.1254883.0839844-.1674805.2099609-.1254883,1.2993164.4189453,1.9487305.7197266,1.9487305.9008789,0,.0561523-.0629883.1049805-.1884766.1469727l-.3984375.1464844c-.6567383,1.8583984-1.4667969,3.6328125-2.4306641,5.3227539.684082.4472656,1.0268555.7617188,1.0268555.9433594,0,.0834961-.0561523.1464844-.1679688.1884766l-.3139648.1259766v6.0351562c.027832,1.746582.0834961,3.3461914.1674805,4.7988281,0,.0839844-.0283203.1538086-.0839844.2099609-.1396484.1254883-.3110352.2373047-.5131836.3349609-.2026367.0976562-.4086914.1469727-.6181641.1469727-.1259766,0-.237793-.0419922-.3354492-.1259766s-.1464844-.1816406-.1464844-.293457c.0556641-.8242188.1044922-1.6240234.1464844-2.3994141s.0698242-1.7915039.0839844-3.0493164v-5.699707Zm12.8256836,2.4726562c.0410156-.0556641.1074219-.1430664.1992188-.2617188.0898438-.1186523.1640625-.2060547.21875-.262207.0566406-.0556641.1123047-.0839844.1679688-.0839844.1113281,0,.3886719.1821289.828125.5449219.4394531.3637695.7089844.6430664.8066406.8383789.0136719.0703125.0136719.1396484,0,.2094727-.0839844.1538086-.2519531.2304688-.5019531.2304688h-5.1352539v6.3291016h3.7094727l.4609375-.6708984c.0556641-.0698242.1289062-.1674805.2207031-.293457.0898438-.1254883.1630859-.2197266.21875-.2827148.0566406-.0629883.1113281-.0942336.1679688-.0942336.1113281,0,.4121094.202632.9023438.6079054.4882812.4052734.7890625.7124023.9003906.921875.0136719.0698242.0058594.1396484-.0214844.2094727-.0839844.1538086-.2441406.2304688-.4824219.2304688h-9.8066406c-.8945312.0136719-1.8935547.1049805-2.9970703.2724609h-.0625c-.0561523,0-.1049805-.0351562-.1469727-.1044922l-.355957-.7543945c-.0141602-.0141602-.0209961-.0419922-.0209961-.0839844,0-.0698242.0488281-.1049805.1464844-.1049805.7680664.0698242,1.6206055.1186523,2.5566406.1469727h3.2480469v-6.3291016h-1.5712891c-.9365234.0283203-1.8374023.1191406-2.7036133.2724609h-.0629883c-.0556641,0-.1044922-.0346631-.1464844-.1044922l-.3564453-.7333984c-.0141602-.0141602-.0209961-.0419922-.0209961-.0839844,0-.0698242.0488281-.1049805.1469727-.1049805.7680664.0703125,1.6206055.1191406,2.5566406.1469727h2.1582031v-5.3232422h-1.9067383c-.8945312.0141602-1.8935547.1049805-2.996582.2724609h-.0629883c-.0561523,0-.1049805-.034668-.1469727-.1044922l-.355957-.7333984c-.0141602-.0141602-.0209961-.0419922-.0209961-.0839844,0-.0698242.0488281-.1049805.1464844-.1049805.7680664.0703125,1.6206055.1191406,2.5566406.1469727h7.5024414l.4404297-.6289062c.0693359-.0834961.1386719-.1743164.2089844-.2724609.0703125-.0976562.1396484-.1850586.2099609-.2617188.0693359-.0766602.1318359-.1152344.1884766-.1152344.125,0,.4160156.1884766.8691406.565918.4550781.3769531.7363281.6704102.8496094.8798828.0136719.0703125.0058594.1396484-.0214844.2094727-.0839844.1538086-.2519531.2304688-.5019531.2304688h-5.5961914v5.3232422h2.996582l.4199219-.6079102Zm-6.5810547-9.8286133c.0698242-.0698242.1469727-.0834961.230957-.0419922.9077148.2514648,1.6518555.565918,2.2314453.9433594.5795898.3769531.9990234.7617188,1.2573242,1.1523438.2587891.3916016.3876953.7475586.3876953,1.0688477,0,.2236328-.0595703.4052734-.1777344.5449219-.1191406.1396484-.2695312.2094727-.4506836.2094727-.1396484,0-.265625-.027832-.3774414-.0834961-.0556641-.027832-.1044922-.0839844-.1464844-.1679688-.2236328-.5585938-.6113281-1.1523438-1.1630859-1.78125-.5522461-.628418-1.1352539-1.1733398-1.75-1.6347656-.0976562-.0693359-.1118164-.1391602-.0419922-.2094727Z"/>
          <path class="cls-4" d="m204.2262102,232.1682031c-1.8583984.4052734-3.5488281.6914062-5.0712891.859375h-.0419922c-.0839844,0-.1396484-.0419922-.1679688-.1259766l-.0205078-.0834961v-.0419922c0-.0698242.0488281-.1186523.1464844-.1469727,2.3330078-.4467773,4.75-1.1313477,7.2509766-2.0537109,1.2431641-.4609375,2.3046875-1.0195312,3.1855469-1.6762695.0693359-.0556641.1533203-.0488281.2509766.0209961.4892578.4750977.828125.8208008,1.0166016,1.0371094.1884766.2167969.2832031.3740234.2832031.4716797s-.1054688.1328125-.3144531.1044922l-.5029297-.0625c-1.2578125.4750977-2.8222656.9428711-4.6943359,1.4038086v3.7094727l6.6005859-.9638672.3564453-.6918945c.0283203-.0556641.0771484-.1533203.1464844-.293457.0703125-.1391602.1328125-.2441406.1894531-.3139648.0556641-.0698242.1113281-.1049805.1669922-.1049805.0839844,0,.2900391.0874023.6181641.2617188.328125.175293.6289062.3598633.9013672.5556641s.4091797.3422852.4091797.4399414c-.0146484.1118164-.0673828.206543-.1572266.2832031-.0917969.0766602-.1992188.1220703-.3251953.1357422l-8.90625,1.2993164v5.1137695c0,.2514648.0761719.4223633.2304688.5131836.1533203.0908203.5029297.1362305,1.0478516.1362305h2.8916016c1.3974609,0,2.3056641-.0209961,2.7246094-.0629883.1533203-.0136719.2646484-.0449219.3349609-.0942383.0703125-.0488281.1328125-.1289062.1884766-.2407227.1259766-.2792969.3076172-1.0341797.5449219-2.2636719l.1474609-.7333984c.0136719-.0976562.0693359-.1464844.1669922-.1464844.0839844,0,.1259766.0556641.1259766.1674805l.0419821,3.1015625c.2509866.0839844.4257913.1713867.5234476.262207.0976562.090332.1474609.2124023.1474609.3666992,0,.2373047-.1298828.4189453-.3876953.5444336-.2587891.1259766-.7412109.2168015-1.4462891.2724609-.7060547.0556641-1.7568359.0839844-3.1542969.0839844h-2.9755859c-.6708984,0-1.1806641-.0488281-1.5292969-.1464844-.3496094-.0981445-.5947266-.262207-.734375-.4926758s-.2089844-.5625-.2089844-.9956055v-5.1967773l-7.1044922,1.0268555h-.0419922c-.0419922,0-.0908203-.0419922-.1464844-.1259766l-.1044922-.2724609-.0214844-.0629883c0-.0556641.0488281-.097168.1474609-.1254883l7.2714844-1.0478516v-3.6044922Zm8.90625-5.3227539c.0419922-.0556641.1015625-.1328125.1777344-.2304688.0771484-.0976562.1435547-.1708984.1992188-.2202148.0556641-.0488281.1123047-.0732422.1679688-.0732422.1113281,0,.3564453.2060547.7333984.6181641s.6142578.7299805.7128906.9536133c.0419922.0834961.0205078.1538086-.0634766.2094727-.125.0698242-.3486328.1186523-.6699219.1464844-.3222656.3916016-.7099609.8212891-1.1630859,1.2890625-.4541016.4682617-.8769531.862793-1.2685547,1.184082-.0693359.0556641-.1464844.0556641-.2304688,0-.0839844-.0419922-.1044922-.1186523-.0625-.2304688.3769531-.7407227.7402344-1.5786133,1.0898438-2.5151367h-13.2236328c.0136719.6708984-.0908203,1.2504883-.3144531,1.7397461s-.4960938.8520508-.8173828,1.0893555c-.2792969.2099609-.5732422.3144531-.8798828.3144531-.3212891,0-.53125-.1118164-.6289062-.3354492-.0419922-.1113281-.0625-.2163086-.0625-.3139648,0-.2792969.1738281-.5585938.5234375-.8383789.4472656-.2651367.8212891-.6982422,1.1210938-1.2993164.3007812-.6005859.4433594-1.2573242.4296875-1.9697266,0-.1118164.0556641-.1679688.1679688-.1679688h.0625c.0839844,0,.1328125.0419922.1464844.1259766.0976562.3491211.1679688.6987305.2099609,1.0478516h5.7207031c0-1.0615234-.0556641-2.0258789-.1669922-2.8920898,0-.1396484.0693359-.1884766.2089844-.1464844,1.2294922.3491211,1.8447266.621582,1.8447266.8168945,0,.0703125-.0566406.1401367-.1679688.2099609l-.3564453.2304688v1.78125h6.1611328l.3984375-.5239258Z"/>
          <path class="cls-4" d="m236.6031634,224.7497461c0,.0561523-.0136719.0976562-.0419922.1254883l-18.8183594,18.8188477c-.0283203.027832-.0703125.0419922-.1259867.0419922-.0556539,0-.0976461-.0141602-.1259664-.0419922l-.3554688-.3349609c-.0283203-.0283203-.0419922-.0703125-.0419922-.1259766,0-.0561523.0136719-.0976562.0419922-.1254883l18.8183594-18.8188477c.0273438-.027832.0693359-.0454102.1259766-.0527344.0556641-.0068359.0976562.0039062.125.0317383l.3564453.355957c.0283203.0283203.0419922.0703125.0419922.1259766Z"/>
          <path class="cls-4" d="m244.2105852,230.2614648c-1.7744141,1.5922852-3.5771484,2.8569336-5.4072266,3.7929688-.0976562.0556641-.1748047.0351562-.2304688-.0629883-.0556641-.0976562-.0351562-.1743164.0625-.2304688,1.1181641-.7124023,2.2705078-1.6308594,3.4580078-2.7558594,1.1875-1.1245117,2.2148438-2.2807617,3.0810547-3.4682617.4052734-.5166016.7509766-1.0649414,1.0371094-1.6450195.2861328-.5795898.4921875-1.1420898.6181641-1.6870117.0283203-.1118164.0976562-.1464844.2099609-.1044922l2.2841797.7124023c.0556641.0141602.09375.0419922.1152344.0834961.0205078.0419922.0166016.0839844-.0107422.1259766-.1123047.1254883-.3632812.2094727-.7548828.2514648.8662109,1.2856445,2.0576172,2.4975586,3.5732422,3.6357422,1.515625,1.1391602,3.1884766,2.1274414,5.0195312,2.965332.0976562.0419922.1328125.1123047.1044922.2094727-.0283203.0839844-.0839844.1469727-.1679688.1889648-.2373047.0698242-.4472656.1884766-.6279297.355957-.1826172.1679688-.3144531.3564453-.3984375.565918-.0419922.1118164-.1191406.1328125-.2304688.0629883-1.6630859-.9360352-3.1748047-2.0883789-4.5371094-3.4580078-1.3623047-1.3686523-2.3925781-2.7939453-3.0908203-4.2749023-.9638672,1.5649414-2.3339844,3.1435547-4.1074219,4.7363281Zm8.2148438,6.265625c.0693359-.0698242.1386719-.1533203.2089844-.2514648.0703125-.0976562.1396484-.1811523.2099609-.2514648.0693359-.0698242.1328125-.1049805.1884766-.1049805.1259766,0,.4121094.1782227.859375.534668.4462891.3564453.71875.6323242.8173828.8276367.0136719.0703125.0068359.1401367-.0214844.2094727-.0839844.1401367-.2509766.2099609-.5029297.2099609h-5.7421875v4.5053711h5.4492188l.4609375-.6494141c.0419922-.0556641.1113281-.1503906.2089844-.2832031.0976562-.1323242.1787109-.2304688.2412109-.293457.0634654-.0625.1220703-.0942383.1787109-.0942383.125,0,.4257812.1958008.9003906.5869141.4755859.3911133.7685547.6914062.8808594.9008789l.0205078.0839844c0,.1118164-.0527344.1953125-.1572266.2514648-.1044922.0556641-.2412109.0839844-.4082031.0839844h-13.6005859c-.8945312.0136719-1.8935547.1044922-2.9970703.2724609h-.0419922c-.0703125,0-.1259766-.0351562-.1679688-.1049805l-.3769531-.7124023-.0205078-.0839844c0-.0698242.0488281-.1044922.1464844-.1044922.7539062.0693359,1.5996094.1181641,2.5361328.1464844h5.3857422v-4.5053711h-1.9072266c-.8945312.0136719-1.8935547.1044922-2.9970703.2719727h-.0625c-.0566406,0-.1054688-.034668-.1474609-.1044922l-.3769531-.7124023c-.0136719-.0136719-.0205078-.0419922-.0205078-.0839844,0-.0698242.0556641-.1049805.1669922-.1049805.754872.0703125,1.5996094.1191406,2.5361328.1469727h2.8085938v-3.9819336h-1.65625c-.8662109.0141602-1.8515625.1049805-2.9541016.2724609h-.0634766c-.0556641,0-.1044922-.034668-.1464844-.1044922l-.3349609-.7333984c-.0146484-.0141602-.0214844-.0419922-.0214844-.0839844,0-.0698242.0488281-.1049805.1464844-.1049805.7402344.0703125,1.5927734.1191406,2.5566406.1469727h6.7695312l.4189453-.565918c.0556641-.0698242.1152344-.1469727.1777344-.2304688.0634766-.0839844.1289062-.1606445.1992188-.2304688s.1328125-.1049805.1884766-.1049805c.1123047,0,.3847656.1713867.8173828.5136719s.6982422.6044922.796875.7856445l.0205078.0839844c0,.1118164-.0527344.1987305-.1572266.2617188s-.2275391.0942383-.3662109.0942383h-5.0302734v3.9819336h3.5419922l.4404297-.5869141Z"/>
          <path class="cls-4" d="m268.4986712,237.8054102v.5449219c0,.1118164-.0566406.1674805-.1679688.1674805h-2.2001953v2.074707c0,.3076172.1328125.5102539.3974609.6079102.265625.0976562.6152344.1464844,1.0478516.1464844h.2724609c.1259766,0,.1894531.0981445.1894531.293457,0,.2094727-.0634766.3144531-.1894531.3144531h-5.0292969c-.1113281,0-.1669922-.1049805-.1669922-.3144531,0-.1953125.0556641-.293457.1669922-.293457h.2724609c.4326172,0,.7822266-.0488281,1.0478516-.1464844s.3984375-.300293.3984375-.6079102v-2.074707h-5.4697266c-.1123047,0-.1679688-.0556641-.1679688-.1674805v-.6079102c0-.0556641.0214844-.1254883.0634766-.2094727l6.265625-10.8554688c.0419922-.0834961.1113281-.1113281.2099609-.0834961l.5449219.1044922c.0966797.0283203.1464844.0913086.1464844.1889648v10.7504883h2.2001953c.1113281,0,.1679688.0556641.1679688.1674805Zm-3.9609375-8.2148438l-4.6318359,8.0473633h4.6318359v-8.0473633Z"/>
          <path class="cls-4" d="m275.6021868,228.6476953c.0419922-.0556641.1015625-.1430664.1787109-.262207.0761719-.1181641.1425781-.2055664.1992188-.2617188.0556641-.0556641.1113281-.0839844.1669922-.0839844.1123047,0,.359375.1816406.7441406.5449219.3837891.3632812.6181641.6425781.7021484.8383789.0136719.0698242.0136719.1396484,0,.2094727-.0839844.1538086-.2451172.2304688-.4824219.2304688h-2.4726562v2.2211914c.9501953.4472656,1.6484375.9365234,2.0957031,1.4672852s.6708984,1.0131836.6708984,1.4458008c0,.2236328-.0566406.4052734-.1679688.5449219-.1123047.1396484-.2509766.2094727-.4189453.2094727-.1396484,0-.2792969-.0488281-.4189453-.1464844-.0566406-.027832-.1054688-.0839844-.1464844-.1679688-.1259766-.4326172-.3388672-.9116211-.6396484-1.4355469s-.625-1.0087891-.9746094-1.4560547v5.4692383c.0283203,1.7324219.0839844,3.3393555.1679688,4.8203125,0,.0693359-.0214844.1323242-.0634766.1884766-.125.1396484-.2929688.2617188-.5029297.3666992-.2089844.1049805-.4189453.1572266-.6279297.1572266-.1259766,0-.2382812-.0419922-.3359375-.1259766-.0976562-.0834961-.1464844-.1816406-.1464844-.293457.0556641-.8242188.1044922-1.6240234.1464844-2.3994141s.0703125-1.7915039.0839844-3.0488281v-4.2753906c-.8105469,2.0258789-1.8720703,3.7792969-3.1855469,5.2602539-.0273438.0419922-.0664062.0595703-.1152344.0522461-.0488281-.0068359-.0869141-.0244141-.1152344-.0522461l-.0625-.0629883c-.0703125-.0698242-.0771484-.1464844-.0205078-.2304688.7675781-1.1318359,1.4169922-2.4272461,1.9482422-3.887207s.9433594-3,1.2363281-4.6210938h-.8798828c-.4755859.0141602-.9433594.0981445-1.4042969.2514648h-.0625c-.0556641,0-.1044922-.034668-.1464844-.1049805l-.3779297-.7333984-.0205078-.0834961c0-.0839844.0556641-.1118164.1679688-.0839844.65625.0703125,1.3125.1118164,1.9697266.1259766h1.0683594v-.6499023c0-1.5224609-.0771484-2.8847656-.2304688-4.0864258v-.0419922c0-.1118164.0634766-.1464844.1884766-.1044922.6845703.2094727,1.1630859.3803711,1.4355469.5131836s.4091797.2480469.4091797.3457031c0,.0703125-.0566406.1401367-.1679688.2094727l-.3564453.2304688v3.5839844h.5869141l.3769531-.5869141Zm10.7509766.6074219c.0419922-.0556641.1113281-.1499023.2089844-.2827148s.1894531-.1992188.2724609-.1992188c.1259766,0,.3779297.1679688.7548828.5029297.3769531.3354492.6142578.6079102.7128906.8173828.0419922.0561523.0273438.1191406-.0419922.1884766-.1542969.1542969-.4052734.265625-.7548828.3354492v1.8862305c.0419922,1.5229492.0839844,2.6894531.1259766,3.4995117,0,.0839844-.0283203.1538086-.0839844.2094727-.1259766.1123047-.3037109.2167969-.5341797.3144531-.2304688.0981445-.4296875.1469727-.5976562.1469727h-.0419922c-.1113281,0-.1669922-.0556641-.1669922-.1679688v-.5029297h-2.5361328c.5732422,1.0058594,1.3203125,1.9350586,2.2421875,2.7871094.921875.8525391,1.8652344,1.5229492,2.8290896,2.0117188.0839963.0419922.1259885.0913086.1259885.1469727-.0136719.0698242-.0703125.1118164-.1679688.1254883-.4326172.1123047-.7470703.4335938-.9423828.9643555-.0419922.1254883-.1191406.1533203-.2304688.0834961-.8808594-.65625-1.6982422-1.515625-2.4521484-2.5776367-.7548828-1.0615234-1.3691406-2.2348633-1.8447266-3.5205078v2.3261719c.0419922,1.9418945.0908203,3.4160156.1474609,4.421875,0,.0834961-.0214844.1533203-.0634766.2094727-.0976562.1538086-.2509766.2827148-.4609375.3876953-.2089844.1049805-.4257812.1572266-.6494141.1572266-.1123047,0-.2060547-.0419922-.2832031-.1259766-.0771484-.0834961-.1152344-.1816406-.1152344-.2929688.0839844-1.2436523.1396484-2.4799805.1679688-3.7094727v-2.074707c-1.3828125,2.0400391-3.3183594,3.7026367-5.8046875,4.987793-.0986328.0415039-.1748047.0209961-.2304688-.0629883l-.0634766-.0839844c-.0556641-.0976562-.0351562-.1748047.0634766-.2304688,1.1308594-.7543945,2.1513672-1.6376953,3.0595703-2.6508789.9082031-1.0126953,1.6689453-2.105957,2.2841797-3.2797852h-2.2216797v.4194336c0,.0834961-.1044922.1816406-.3144531.2929688-.2089844.1123047-.4472656.1679688-.7119141.1679688-.0986328,0-.1787109-.0419922-.2412109-.1259766-.0634766-.0834961-.0947266-.1811523-.0947266-.293457.0556641-.5585938.0976562-1.2851562.1259766-2.1791992v-1.3203125c0-1.4946289-.0703125-2.7519531-.2099609-3.7719727v-.0419922c0-.0976562.0556641-.1259766.1679688-.0839844l1.5302734.6708984h2.6611328v-2.0537109h-1.5722656c-.8242188.0136769-1.7529297.1044922-2.7871094.2719727h-.0625c-.0556641,0-.1044922-.034668-.1464844-.1044922l-.3769531-.7124023c-.0146484-.0136719-.0214844-.0419922-.0214844-.0839844,0-.0698242.0556641-.1049805.1679688-.1049805.7539062.0703125,1.5996094.1191406,2.5351562.1469727h2.2636719c0-.9780273-.0419922-1.8442383-.1259766-2.5986328v-.0419922c0-.1118164.0634766-.1464844.1884766-.1044922.6572266.2094727,1.1113281.3769531,1.3623047.5029297.2519531.1254883.3769531.2373047.3769531.3349609,0,.0561523-.0625.1333008-.1884766.2304688l-.3564453.2304688v1.4462891h2.8505859l.3984375-.6079102c.0419922-.0556641.1005859-.1430664.1777344-.2617188s.1435547-.2094727.1992188-.2724609.1113281-.0942383.1679688-.0942383c.1113281,0,.3730469.1816406.7851562.5449219s.6669922.6425781.765625.8378906c.0136719.0703125.0068359.1401367-.0214844.2094727-.0839844.1542969-.2441406.230957-.4814453.230957h-4.8417969v2.0537109h2.7880859l.3349609-.4824219Zm-4.3798828,3.3530273v-2.2421875h-2.9130859v2.2421875h2.9130859Zm-2.9130859.6289062v2.1791992h2.9130859v-2.1791992h-2.9130859Zm7.1464844-.6289062v-2.2421875h-2.9765625v2.2421875h2.9765625Zm-2.9765625.6289062v2.1791992h2.9765625v-2.1791992h-2.9765625Z"/>
        </g>
      </g>
    </g>
  </g>
</svg>